SplineFontDB: 3.2
FontName: UbuntuFaust-BoldItalic
FullName: Ubuntu Faust Bold Italic
FamilyName: Ubuntu derivative Faust
Weight: Bold
Copyright: Copyright 2011 Canonical Ltd.  Licensed under the Ubuntu Font Licence 1.0\nAdditional Glyphs 2017 by Thorsten Vitt
Version: 0.83f1
ItalicAngle: -13
UnderlinePosition: -183
UnderlineWidth: 120
Ascent: 800
Descent: 200
InvalidEm: 0
sfntRevision: 0x0000d47b
LayerCount: 2
Layer: 0 1 "Back" 1
Layer: 1 1 "Fore" 0
XUID: [1021 205 319277455 14842662]
StyleMap: 0x0021
FSType: 0
OS2Version: 3
OS2_WeightWidthSlopeOnly: 0
OS2_UseTypoMetrics: 0
CreationTime: 1298466264
ModificationTime: 1593873932
PfmFamily: 17
TTFWeight: 700
TTFWidth: 5
LineGap: 28
VLineGap: 0
Panose: 2 11 8 4 3 6 2 10 2 4
OS2TypoAscent: 776
OS2TypoAOffset: 0
OS2TypoDescent: -185
OS2TypoDOffset: 0
OS2TypoLinegap: 56
OS2WinAscent: 932
OS2WinAOffset: 0
OS2WinDescent: 189
OS2WinDOffset: 0
HheadAscent: 932
HheadAOffset: 0
HheadDescent: -189
HheadDOffset: 0
OS2SubXSize: 700
OS2SubYSize: 650
OS2SubXOff: 0
OS2SubYOff: 140
OS2SupXSize: 700
OS2SupYSize: 650
OS2SupXOff: 0
OS2SupYOff: 477
OS2StrikeYSize: 120
OS2StrikeYPos: 250
OS2CapHeight: 693
OS2XHeight: 526
OS2Vendor: 'DAMA'
OS2CodePages: 2000009f.56010000
OS2UnicodeRanges: e00002ff.5000205b.00000000.00000000
Lookup: 1 0 0 "'locl' Localized Forms in Latin lookup 0" { "'locl' Localized Forms in Latin lookup 0 subtable"  } ['locl' ('latn' <'AZE ' > ) ]
Lookup: 1 0 0 "'locl' Localized Forms in Latin lookup 1" { "'locl' Localized Forms in Latin lookup 1 subtable"  } ['locl' ('latn' <'TRK ' > ) ]
Lookup: 1 0 0 "'locl' Localized Forms in Latin lookup 2" { "'locl' Localized Forms in Latin lookup 2 subtable"  } ['locl' ('latn' <'CRT ' > ) ]
Lookup: 1 0 0 "'locl' Localized Forms in Cyrillic lookup 3" { "'locl' Localized Forms in Cyrillic lookup 3 subtable"  } ['locl' ('cyrl' <'SRB ' > ) ]

StartChar: .notdef
Encoding: 65536 -1 0
Width: 500
Flags: W
LayerCount: 2
Fore
SplineSet
50 0 m 1,0,-1
 50 750 l 1,1,-1
 450 750 l 1,2,-1
 450 0 l 1,3,-1
 50 0 l 1,0,-1
400 50 m 1,4,-1
 400 700 l 1,5,-1
 100 700 l 1,6,-1
 100 50 l 1,7,-1
 400 50 l 1,4,-1
EndSplineSet
EndChar

StartChar: exclam
Encoding: 33 33 4
Width: 295
Flags: W
LayerCount: 2
Fore
SplineSet
348 514 m 2,0,1
 328 433 328 433 305.5 363 c 128,-1,2
 283 293 283 293 256 221 c 1,3,-1
 142 221 l 1,4,5
 150 293 150 293 160 363 c 128,-1,6
 170 433 170 433 189 514 c 2,7,-1
 232 693 l 1,8,-1
 391 693 l 1,9,-1
 348 514 l 2,0,1
180 171 m 0,10,11
 215 171 215 171 238.5 151 c 128,-1,12
 262 131 262 131 262 90 c 0,13,14
 262 67 262 67 253.5 48 c 128,-1,15
 245 29 245 29 231 15.5 c 128,-1,16
 217 2 217 2 199 -5.5 c 128,-1,17
 181 -13 181 -13 162 -13 c 0,18,19
 127 -13 127 -13 103.5 7 c 128,-1,20
 80 27 80 27 80 68 c 0,21,22
 80 91 80 91 88.5 110 c 128,-1,23
 97 129 97 129 111 142.5 c 128,-1,24
 125 156 125 156 143 163.5 c 128,-1,25
 161 171 161 171 180 171 c 0,10,11
EndSplineSet
EndChar

StartChar: numbersign
Encoding: 35 35 6
Width: 660
Flags: W
LayerCount: 2
Fore
SplineSet
379 170 m 1,0,-1
 268 170 l 1,1,-1
 197 0 l 1,2,-1
 69 0 l 1,3,-1
 140 170 l 1,4,-1
 71 170 l 1,5,-1
 99 285 l 1,6,-1
 188 285 l 1,7,-1
 239 408 l 1,8,-1
 129 408 l 1,9,-1
 157 523 l 1,10,-1
 287 523 l 1,11,-1
 359 693 l 1,12,-1
 487 693 l 1,13,-1
 415 523 l 1,14,-1
 526 523 l 1,15,-1
 598 693 l 1,16,-1
 726 693 l 1,17,-1
 654 523 l 1,18,-1
 724 523 l 1,19,-1
 696 408 l 1,20,-1
 606 408 l 1,21,-1
 555 285 l 1,22,-1
 666 285 l 1,23,-1
 638 170 l 1,24,-1
 507 170 l 1,25,-1
 436 0 l 1,26,-1
 308 0 l 1,27,-1
 379 170 l 1,0,-1
316 285 m 1,28,-1
 427 285 l 1,29,-1
 478 408 l 1,30,-1
 367 408 l 1,31,-1
 316 285 l 1,28,-1
EndSplineSet
EndChar

StartChar: dollar
Encoding: 36 36 7
Width: 568
Flags: W
LayerCount: 2
Fore
SplineSet
282 129 m 0,0,1
 303 129 303 129 324.5 131.5 c 128,-1,2
 346 134 346 134 363 141.5 c 128,-1,3
 380 149 380 149 390.5 163.5 c 128,-1,4
 401 178 401 178 401 202 c 0,5,6
 401 218 401 218 394 230 c 128,-1,7
 387 242 387 242 375 252 c 128,-1,8
 363 262 363 262 347.5 270.5 c 128,-1,9
 332 279 332 279 316 287 c 2,10,-1
 290 300 l 2,11,12
 226 332 226 332 197.5 380 c 128,-1,13
 169 428 169 428 169 480 c 0,14,15
 169 513 169 513 181 544.5 c 128,-1,16
 193 576 193 576 217.5 602 c 128,-1,17
 242 628 242 628 280.5 645.5 c 128,-1,18
 319 663 319 663 372 669 c 1,19,-1
 399 776 l 1,20,-1
 525 776 l 1,21,-1
 497 666 l 1,22,23
 535 658 535 658 566.5 644.5 c 128,-1,24
 598 631 598 631 618 618 c 1,25,-1
 558 512 l 1,26,27
 532 532 532 532 495 542.5 c 128,-1,28
 458 553 458 553 423 553 c 0,29,30
 380 553 380 553 349 537 c 128,-1,31
 318 521 318 521 318 487 c 0,32,33
 318 473 318 473 322 462 c 128,-1,34
 326 451 326 451 335.5 441 c 128,-1,35
 345 431 345 431 361 420.5 c 128,-1,36
 377 410 377 410 402 398 c 0,37,38
 431 383 431 383 457.5 366.5 c 128,-1,39
 484 350 484 350 504.5 328 c 128,-1,40
 525 306 525 306 537.5 278 c 128,-1,41
 550 250 550 250 550 212 c 0,42,43
 550 165 550 165 535 130 c 128,-1,44
 520 95 520 95 492.5 70 c 128,-1,45
 465 45 465 45 426.5 30.5 c 128,-1,46
 388 16 388 16 341 11 c 1,47,-1
 312 -109 l 1,48,-1
 186 -109 l 1,49,-1
 216 13 l 1,50,51
 162 21 162 21 124 38 c 128,-1,52
 86 55 86 55 68 68 c 1,53,-1
 129 178 l 1,54,55
 140 170 140 170 156 161.5 c 128,-1,56
 172 153 172 153 192 146 c 128,-1,57
 212 139 212 139 235 134 c 128,-1,58
 258 129 258 129 282 129 c 0,0,1
EndSplineSet
EndChar

StartChar: percent
Encoding: 37 37 8
Width: 870
Flags: W
LayerCount: 2
Fore
SplineSet
281 417 m 0,0,1
 297 417 297 417 312 426.5 c 128,-1,2
 327 436 327 436 338.5 454.5 c 128,-1,3
 350 473 350 473 357 499 c 128,-1,4
 364 525 364 525 364 558 c 0,5,6
 364 585 364 585 350.5 599.5 c 128,-1,7
 337 614 337 614 316 614 c 0,8,9
 300 614 300 614 284.5 604 c 128,-1,10
 269 594 269 594 257 576 c 128,-1,11
 245 558 245 558 237.5 531.5 c 128,-1,12
 230 505 230 505 230 472 c 0,13,14
 230 445 230 445 245 431 c 128,-1,15
 260 417 260 417 281 417 c 0,0,1
712 693 m 1,16,-1
 856 693 l 1,17,-1
 298 0 l 1,18,-1
 154 0 l 1,19,-1
 712 693 l 1,16,-1
324 709 m 0,20,21
 357 709 357 709 384.5 700 c 128,-1,22
 412 691 412 691 432 672.5 c 128,-1,23
 452 654 452 654 463 626.5 c 128,-1,24
 474 599 474 599 474 562 c 0,25,26
 474 505 474 505 457 460.5 c 128,-1,27
 440 416 440 416 411.5 385 c 128,-1,28
 383 354 383 354 346 337.5 c 128,-1,29
 309 321 309 321 270 321 c 0,30,31
 237 321 237 321 209.5 330 c 128,-1,32
 182 339 182 339 162 357.5 c 128,-1,33
 142 376 142 376 131 403.5 c 128,-1,34
 120 431 120 431 120 468 c 0,35,36
 120 525 120 525 137 569.5 c 128,-1,37
 154 614 154 614 182.5 645 c 128,-1,38
 211 676 211 676 248 692.5 c 128,-1,39
 285 709 285 709 324 709 c 0,20,21
697 80 m 0,40,41
 713 80 713 80 728 89.5 c 128,-1,42
 743 99 743 99 754.5 117.5 c 128,-1,43
 766 136 766 136 773 162 c 128,-1,44
 780 188 780 188 780 221 c 0,45,46
 780 248 780 248 766.5 262.5 c 128,-1,47
 753 277 753 277 732 277 c 0,48,49
 716 277 716 277 700.5 267 c 128,-1,50
 685 257 685 257 673 239 c 128,-1,51
 661 221 661 221 653.5 194.5 c 128,-1,52
 646 168 646 168 646 135 c 0,53,54
 646 108 646 108 661 94 c 128,-1,55
 676 80 676 80 697 80 c 0,40,41
740 372 m 0,56,57
 773 372 773 372 800.5 363 c 128,-1,58
 828 354 828 354 848 335.5 c 128,-1,59
 868 317 868 317 879 289.5 c 128,-1,60
 890 262 890 262 890 225 c 0,61,62
 890 168 890 168 873 123.5 c 128,-1,63
 856 79 856 79 827.5 48 c 128,-1,64
 799 17 799 17 762 0.5 c 128,-1,65
 725 -16 725 -16 686 -16 c 0,66,67
 653 -16 653 -16 625.5 -7 c 128,-1,68
 598 2 598 2 578 20.5 c 128,-1,69
 558 39 558 39 547 66.5 c 128,-1,70
 536 94 536 94 536 131 c 0,71,72
 536 188 536 188 553 232.5 c 128,-1,73
 570 277 570 277 598.5 308 c 128,-1,74
 627 339 627 339 664 355.5 c 128,-1,75
 701 372 701 372 740 372 c 0,56,57
EndSplineSet
EndChar

StartChar: ampersand
Encoding: 38 38 9
Width: 663
Flags: W
LayerCount: 2
Fore
SplineSet
80 157 m 0,0,1
 80 232 80 232 119 286.5 c 128,-1,2
 158 341 158 341 245 380 c 2,3,-1
 262 388 l 1,4,5
 242 421 242 421 232.5 453.5 c 128,-1,6
 223 486 223 486 223 517 c 0,7,8
 223 557 223 557 238.5 592.5 c 128,-1,9
 254 628 254 628 283.5 653.5 c 128,-1,10
 313 679 313 679 354.5 694 c 128,-1,11
 396 709 396 709 448 709 c 0,12,13
 491 709 491 709 524 697.5 c 128,-1,14
 557 686 557 686 578.5 667 c 128,-1,15
 600 648 600 648 611 622.5 c 128,-1,16
 622 597 622 597 622 569 c 0,17,18
 622 544 622 544 613 517 c 128,-1,19
 604 490 604 490 586.5 464 c 128,-1,20
 569 438 569 438 542 415 c 128,-1,21
 515 392 515 392 479 376 c 2,22,-1
 442 359 l 1,23,-1
 526 247 l 1,24,25
 551 288 551 288 572 348 c 1,26,-1
 703 331 l 1,27,28
 660 222 660 222 602 147 c 1,29,30
 628 110 628 110 648.5 73 c 128,-1,31
 669 36 669 36 686 0 c 1,32,-1
 535 0 l 1,33,34
 529 13 529 13 521.5 27 c 128,-1,35
 514 41 514 41 506 56 c 1,36,37
 411 -9 411 -9 289 -9 c 0,38,39
 236 -9 236 -9 196.5 5 c 128,-1,40
 157 19 157 19 131 42.5 c 128,-1,41
 105 66 105 66 92.5 95.5 c 128,-1,42
 80 125 80 125 80 157 c 0,0,1
308 107 m 0,43,44
 334 107 334 107 368 115.5 c 128,-1,45
 402 124 402 124 440 150 c 1,46,-1
 323 304 l 1,47,-1
 308 297 l 2,48,49
 266 278 266 278 247 247 c 128,-1,50
 228 216 228 216 228 186 c 0,51,52
 228 154 228 154 248.5 130.5 c 128,-1,53
 269 107 269 107 308 107 c 0,43,44
355 513 m 0,54,55
 355 485 355 485 381 442 c 1,56,-1
 393 447 l 2,57,58
 441 469 441 469 467.5 494.5 c 128,-1,59
 494 520 494 520 494 555 c 0,60,61
 494 574 494 574 480 588.5 c 128,-1,62
 466 603 466 603 436 603 c 256,63,64
 406 603 406 603 380.5 580.5 c 128,-1,65
 355 558 355 558 355 513 c 0,54,55
EndSplineSet
EndChar

StartChar: quotesingle
Encoding: 39 39 10
Width: 274
Flags: W
LayerCount: 2
Fore
SplineSet
374 760 m 1,0,-1
 356 686 l 2,1,2
 345 638 345 638 323.5 581 c 128,-1,3
 302 524 302 524 279 466 c 1,4,-1
 180 466 l 1,5,6
 184 524 184 524 191 581 c 128,-1,7
 198 638 198 638 209 687 c 2,8,-1
 227 760 l 1,9,-1
 374 760 l 1,0,-1
EndSplineSet
EndChar

StartChar: parenleft
Encoding: 40 40 11
Width: 356
Flags: W
LayerCount: 2
Fore
SplineSet
501 716 m 1,0,1
 444 654 444 654 397 585.5 c 128,-1,2
 350 517 350 517 316 443 c 128,-1,3
 282 369 282 369 263 290.5 c 128,-1,4
 244 212 244 212 244 131 c 0,5,6
 244 68 244 68 256 6.5 c 128,-1,7
 268 -55 268 -55 294 -118 c 1,8,-1
 184 -185 l 1,9,10
 139 -110 139 -110 118.5 -30 c 128,-1,11
 98 50 98 50 98 135 c 0,12,13
 98 225 98 225 120.5 314 c 128,-1,14
 143 403 143 403 183.5 486.5 c 128,-1,15
 224 570 224 570 280.5 645.5 c 128,-1,16
 337 721 337 721 405 783 c 1,17,-1
 501 716 l 1,0,1
EndSplineSet
Substitution2: "'case' Case-Sensitive Forms lookup 18 subtable" Parenleft
EndChar

StartChar: parenright
Encoding: 41 41 12
Width: 356
Flags: W
LayerCount: 2
Fore
SplineSet
-24 -117 m 1,0,1
 33 -56 33 -56 80.5 12.5 c 128,-1,2
 128 81 128 81 161.5 155.5 c 128,-1,3
 195 230 195 230 214 308.5 c 128,-1,4
 233 387 233 387 233 468 c 0,5,6
 233 531 233 531 221 592.5 c 128,-1,7
 209 654 209 654 183 717 c 1,8,-1
 293 784 l 1,9,10
 338 709 338 709 358.5 629 c 128,-1,11
 379 549 379 549 379 464 c 0,12,13
 379 374 379 374 356.5 285 c 128,-1,14
 334 196 334 196 293.5 112.5 c 128,-1,15
 253 29 253 29 196.5 -46.5 c 128,-1,16
 140 -122 140 -122 72 -184 c 1,17,-1
 -24 -117 l 1,0,1
EndSplineSet
Substitution2: "'case' Case-Sensitive Forms lookup 18 subtable" Parenright
EndChar

StartChar: asterisk
Encoding: 42 42 13
Width: 502
Flags: W
LayerCount: 2
Fore
SplineSet
373 536 m 1,0,1
 383 545 383 545 398 555.5 c 128,-1,2
 413 566 413 566 428.5 576.5 c 128,-1,3
 444 587 444 587 460 595.5 c 128,-1,4
 476 604 476 604 488 608 c 2,5,-1
 512 616 l 1,6,-1
 552 492 l 1,7,-1
 528 484 l 2,8,9
 515 480 515 480 498 478 c 128,-1,10
 481 476 481 476 462 475.5 c 128,-1,11
 443 475 443 475 425 475 c 128,-1,12
 407 475 407 475 393 475 c 1,13,14
 405 467 405 467 419.5 456.5 c 128,-1,15
 434 446 434 446 448.5 434.5 c 128,-1,16
 463 423 463 423 476 411 c 128,-1,17
 489 399 489 399 497 388 c 2,18,-1
 513 367 l 1,19,-1
 407 292 l 1,20,-1
 392 312 l 2,21,22
 384 322 384 322 376.5 338 c 128,-1,23
 369 354 369 354 362 371.5 c 128,-1,24
 355 389 355 389 350 406 c 128,-1,25
 345 423 345 423 341 437 c 1,26,27
 337 423 337 423 332 406 c 128,-1,28
 327 389 327 389 320 371.5 c 128,-1,29
 313 354 313 354 305.5 338 c 128,-1,30
 298 322 298 322 290 312 c 2,31,-1
 275 292 l 1,32,-1
 169 367 l 1,33,-1
 185 388 l 2,34,35
 193 399 193 399 206 411 c 128,-1,36
 219 423 219 423 233.5 434.5 c 128,-1,37
 248 446 248 446 262.5 456.5 c 128,-1,38
 277 467 277 467 289 475 c 1,39,40
 275 475 275 475 257 475 c 128,-1,41
 239 475 239 475 220 475.5 c 128,-1,42
 201 476 201 476 184 478 c 128,-1,43
 167 480 167 480 154 484 c 2,44,-1
 130 492 l 1,45,-1
 170 616 l 1,46,-1
 194 608 l 2,47,48
 206 604 206 604 222 595.5 c 128,-1,49
 238 587 238 587 253.5 576.5 c 128,-1,50
 269 566 269 566 283.5 555.5 c 128,-1,51
 298 545 298 545 309 536 c 1,52,53
 304 549 304 549 298.5 566.5 c 128,-1,54
 293 584 293 584 288 602 c 128,-1,55
 283 620 283 620 279.5 637.5 c 128,-1,56
 276 655 276 655 276 668 c 2,57,-1
 276 693 l 1,58,-1
 406 693 l 1,59,-1
 406 668 l 2,60,61
 406 655 406 655 402.5 637.5 c 128,-1,62
 399 620 399 620 394 602 c 128,-1,63
 389 584 389 584 383.5 566.5 c 128,-1,64
 378 549 378 549 373 536 c 1,0,1
EndSplineSet
EndChar

StartChar: plus
Encoding: 43 43 14
Width: 568
Flags: W
LayerCount: 2
Fore
SplineSet
126 361 m 1,0,-1
 293 361 l 1,1,-1
 337 546 l 1,2,-1
 473 546 l 1,3,-1
 429 361 l 1,4,-1
 596 361 l 1,5,-1
 565 236 l 1,6,-1
 398 236 l 1,7,-1
 354 51 l 1,8,-1
 218 51 l 1,9,-1
 262 236 l 1,10,-1
 95 236 l 1,11,-1
 126 361 l 1,0,-1
EndSplineSet
EndChar

StartChar: comma
Encoding: 44 44 15
Width: 251
Flags: W
LayerCount: 2
Fore
SplineSet
241 152 m 1,0,1
 238 65 238 65 197.5 -13 c 128,-1,2
 157 -91 157 -91 99 -163 c 1,3,-1
 -10 -134 l 1,4,5
 28 -68 28 -68 54 3 c 128,-1,6
 80 74 80 74 85 152 c 1,7,-1
 241 152 l 1,0,1
EndSplineSet
EndChar

StartChar: hyphen
Encoding: 45 45 16
Width: 343
Flags: W
LayerCount: 2
Fore
SplineSet
106 366 m 1,0,-1
 396 366 l 1,1,-1
 363 231 l 1,2,-1
 73 231 l 1,3,-1
 106 366 l 1,0,-1
EndSplineSet
Substitution2: "'case' Case-Sensitive Forms lookup 18 subtable" Hyphen
EndChar

StartChar: period
Encoding: 46 46 17
Width: 252
Flags: W
LayerCount: 2
Fore
SplineSet
160 171 m 0,0,1
 195 171 195 171 218.5 151.5 c 128,-1,2
 242 132 242 132 242 90 c 0,3,4
 242 67 242 67 233.5 48 c 128,-1,5
 225 29 225 29 211 15.5 c 128,-1,6
 197 2 197 2 179 -5.5 c 128,-1,7
 161 -13 161 -13 142 -13 c 0,8,9
 107 -13 107 -13 83.5 6.5 c 128,-1,10
 60 26 60 26 60 68 c 0,11,12
 60 91 60 91 68.5 110 c 128,-1,13
 77 129 77 129 91 142.5 c 128,-1,14
 105 156 105 156 123 163.5 c 128,-1,15
 141 171 141 171 160 171 c 0,0,1
EndSplineSet
EndChar

StartChar: slash
Encoding: 47 47 18
Width: 436
Flags: W
LayerCount: 2
Fore
SplineSet
62 -185 m 1,0,-1
 -90 -185 l 1,1,-1
 470 783 l 1,2,-1
 621 783 l 1,3,-1
 62 -185 l 1,0,-1
EndSplineSet
Substitution2: "'case' Case-Sensitive Forms lookup 18 subtable" Slash
Substitution2: "'frac' Diagonal Fractions lookup 14 subtable" fraction
EndChar

StartChar: zero
Encoding: 48 48 19
Width: 568
Flags: W
LayerCount: 2
Fore
SplineSet
298 114 m 0,0,1
 330 114 330 114 357 133 c 128,-1,2
 384 152 384 152 404.5 183 c 128,-1,3
 425 214 425 214 440.5 253.5 c 128,-1,4
 456 293 456 293 466 334 c 128,-1,5
 476 375 476 375 481 414 c 128,-1,6
 486 453 486 453 486 483 c 0,7,8
 486 534 486 534 470.5 558 c 128,-1,9
 455 582 455 582 423 582 c 0,10,11
 390 582 390 582 363 563 c 128,-1,12
 336 544 336 544 315 513 c 128,-1,13
 294 482 294 482 278.5 442 c 128,-1,14
 263 402 263 402 253 361 c 128,-1,15
 243 320 243 320 238 281 c 128,-1,16
 233 242 233 242 233 212 c 0,17,18
 233 160 233 160 249 137 c 128,-1,19
 265 114 265 114 298 114 c 0,0,1
275 -14 m 0,20,21
 226 -14 226 -14 192 3.5 c 128,-1,22
 158 21 158 21 136.5 50 c 128,-1,23
 115 79 115 79 105.5 115.5 c 128,-1,24
 96 152 96 152 96 191 c 0,25,26
 96 305 96 305 121.5 400 c 128,-1,27
 147 495 147 495 192.5 564 c 128,-1,28
 238 633 238 633 302 671 c 128,-1,29
 366 709 366 709 444 709 c 0,30,31
 493 709 493 709 527 691.5 c 128,-1,32
 561 674 561 674 582.5 645 c 128,-1,33
 604 616 604 616 613.5 579.5 c 128,-1,34
 623 543 623 543 623 504 c 0,35,36
 623 390 623 390 597.5 295 c 128,-1,37
 572 200 572 200 526.5 131 c 128,-1,38
 481 62 481 62 417 24 c 128,-1,39
 353 -14 353 -14 275 -14 c 0,20,21
EndSplineSet
Substitution2: "'frac' Diagonal Fractions lookup 16 subtable" zerosuperior
Substitution2: "'sinf' Scientific Inferiors lookup 13 subtable" zero.sinf
Substitution2: "'subs' Subscript lookup 12 subtable" zero.sinf
Substitution2: "'sups' Superscript lookup 11 subtable" zero.sups
Substitution2: "'dnom' Denominators lookup 10 subtable" zeroinferior
Substitution2: "'numr' Numerators lookup 8 subtable" zerosuperior
Substitution2: "'pnum' Proportional Numbers lookup 6 subtable" zero.alt
EndChar

StartChar: one
Encoding: 49 49 20
Width: 568
Flags: W
LayerCount: 2
Fore
SplineSet
200 549 m 1,0,1
 232 561 232 561 267 576.5 c 128,-1,2
 302 592 302 592 336.5 610.5 c 128,-1,3
 371 629 371 629 404 649.5 c 128,-1,4
 437 670 437 670 464 693 c 1,5,-1
 568 693 l 1,6,-1
 401 0 l 1,7,-1
 252 0 l 1,8,-1
 372 499 l 1,9,10
 337 479 337 479 296 462.5 c 128,-1,11
 255 446 255 446 218 434 c 1,12,-1
 200 549 l 1,0,1
EndSplineSet
Substitution2: "'frac' Diagonal Fractions lookup 16 subtable" onesuperior
Substitution2: "'sinf' Scientific Inferiors lookup 13 subtable" one.sinf
Substitution2: "'subs' Subscript lookup 12 subtable" one.sinf
Substitution2: "'sups' Superscript lookup 11 subtable" one.sups
Substitution2: "'dnom' Denominators lookup 10 subtable" oneinferior
Substitution2: "'numr' Numerators lookup 8 subtable" onesuperior
Substitution2: "'pnum' Proportional Numbers lookup 6 subtable" one.alt
EndChar

StartChar: two
Encoding: 50 50 21
Width: 568
Flags: W
LayerCount: 2
Fore
SplineSet
435 709 m 0,0,1
 475 709 475 709 509.5 696 c 128,-1,2
 544 683 544 683 569.5 660.5 c 128,-1,3
 595 638 595 638 609 608 c 128,-1,4
 623 578 623 578 623 544 c 0,5,6
 623 506 623 506 615 476 c 128,-1,7
 607 446 607 446 588 418 c 128,-1,8
 569 390 569 390 537.5 361 c 128,-1,9
 506 332 506 332 460 296 c 0,10,11
 433 275 433 275 405.5 256 c 128,-1,12
 378 237 378 237 351.5 217 c 128,-1,13
 325 197 325 197 300 174.5 c 128,-1,14
 275 152 275 152 253 124 c 1,15,-1
 551 124 l 1,16,-1
 521 0 l 1,17,-1
 60 0 l 1,18,19
 69 63 69 63 91 109 c 128,-1,20
 113 155 113 155 145.5 192.5 c 128,-1,21
 178 230 178 230 219 262.5 c 128,-1,22
 260 295 260 295 308 332 c 0,23,24
 353 367 353 367 384.5 392.5 c 128,-1,25
 416 418 416 418 435.5 439.5 c 128,-1,26
 455 461 455 461 464 480 c 128,-1,27
 473 499 473 499 473 520 c 0,28,29
 473 546 473 546 454.5 563.5 c 128,-1,30
 436 581 436 581 407 581 c 0,31,32
 366 581 366 581 327 563.5 c 128,-1,33
 288 546 288 546 242 511 c 1,34,-1
 191 620 l 1,35,36
 251 669 251 669 311 689 c 128,-1,37
 371 709 371 709 435 709 c 0,0,1
EndSplineSet
Substitution2: "'frac' Diagonal Fractions lookup 16 subtable" twosuperior
Substitution2: "'sinf' Scientific Inferiors lookup 13 subtable" two.sinf
Substitution2: "'subs' Subscript lookup 12 subtable" two.sinf
Substitution2: "'sups' Superscript lookup 11 subtable" two.sups
Substitution2: "'dnom' Denominators lookup 10 subtable" twoinferior
Substitution2: "'numr' Numerators lookup 8 subtable" twosuperior
Substitution2: "'pnum' Proportional Numbers lookup 6 subtable" two.alt
EndChar

StartChar: three
Encoding: 51 51 22
Width: 568
Flags: W
LayerCount: 2
Fore
SplineSet
474 368 m 1,0,1
 516 348 516 348 539 306.5 c 128,-1,2
 562 265 562 265 562 216 c 0,3,4
 562 175 562 175 545 134 c 128,-1,5
 528 93 528 93 491 60 c 128,-1,6
 454 27 454 27 397 6.5 c 128,-1,7
 340 -14 340 -14 260 -14 c 0,8,9
 146 -14 146 -14 55 33 c 1,10,-1
 109 151 l 1,11,12
 138 131 138 131 181 118.5 c 128,-1,13
 224 106 224 106 269 106 c 0,14,15
 297 106 297 106 323.5 112 c 128,-1,16
 350 118 350 118 370 132 c 128,-1,17
 390 146 390 146 402 168 c 128,-1,18
 414 190 414 190 414 222 c 0,19,20
 414 263 414 263 380.5 284 c 128,-1,21
 347 305 347 305 291 305 c 2,22,-1
 227 305 l 1,23,-1
 256 423 l 1,24,-1
 328 423 l 2,25,26
 349 423 349 423 372 427 c 128,-1,27
 395 431 395 431 414 441.5 c 128,-1,28
 433 452 433 452 445.5 469.5 c 128,-1,29
 458 487 458 487 458 515 c 0,30,31
 458 550 458 550 434 566.5 c 128,-1,32
 410 583 410 583 371 583 c 0,33,34
 340 583 340 583 302.5 572 c 128,-1,35
 265 561 265 561 225 540 c 1,36,-1
 187 652 l 1,37,38
 236 680 236 680 288 694.5 c 128,-1,39
 340 709 340 709 396 709 c 0,40,41
 449 709 449 709 489 694.5 c 128,-1,42
 529 680 529 680 555.5 656 c 128,-1,43
 582 632 582 632 595 601.5 c 128,-1,44
 608 571 608 571 608 539 c 0,45,46
 608 513 608 513 599.5 487.5 c 128,-1,47
 591 462 591 462 574.5 439.5 c 128,-1,48
 558 417 558 417 532.5 398.5 c 128,-1,49
 507 380 507 380 474 368 c 1,0,1
EndSplineSet
Substitution2: "'frac' Diagonal Fractions lookup 16 subtable" threesuperior
Substitution2: "'sinf' Scientific Inferiors lookup 13 subtable" three.sinf
Substitution2: "'subs' Subscript lookup 12 subtable" three.sinf
Substitution2: "'sups' Superscript lookup 11 subtable" three.sups
Substitution2: "'dnom' Denominators lookup 10 subtable" threeinferior
Substitution2: "'numr' Numerators lookup 8 subtable" threesuperior
Substitution2: "'pnum' Proportional Numbers lookup 6 subtable" three.alt
EndChar

StartChar: four
Encoding: 52 52 23
Width: 568
Flags: W
LayerCount: 2
Fore
SplineSet
455 517 m 1,0,1
 429 492 429 492 400.5 463 c 128,-1,2
 372 434 372 434 343 402.5 c 128,-1,3
 314 371 314 371 286.5 338.5 c 128,-1,4
 259 306 259 306 235 275 c 1,5,-1
 397 275 l 1,6,-1
 455 517 l 1,0,1
638 693 m 1,7,-1
 537 275 l 1,8,-1
 610 275 l 1,9,-1
 581 155 l 1,10,-1
 507 155 l 1,11,-1
 469 0 l 1,12,-1
 327 0 l 1,13,-1
 364 155 l 1,14,-1
 67 155 l 1,15,-1
 92 265 l 1,16,17
 124 309 124 309 170 364.5 c 128,-1,18
 216 420 216 420 270 478 c 128,-1,19
 324 536 324 536 382 592 c 128,-1,20
 440 648 440 648 496 693 c 1,21,-1
 638 693 l 1,7,-1
EndSplineSet
Substitution2: "'frac' Diagonal Fractions lookup 16 subtable" foursuperior
Substitution2: "'sinf' Scientific Inferiors lookup 13 subtable" four.sinf
Substitution2: "'subs' Subscript lookup 12 subtable" four.sinf
Substitution2: "'sups' Superscript lookup 11 subtable" four.sups
Substitution2: "'dnom' Denominators lookup 10 subtable" fourinferior
Substitution2: "'numr' Numerators lookup 8 subtable" foursuperior
Substitution2: "'pnum' Proportional Numbers lookup 6 subtable" four.alt
EndChar

StartChar: five
Encoding: 53 53 24
Width: 568
Flags: W
LayerCount: 2
Fore
SplineSet
118 154 m 1,0,1
 153 133 153 133 193 122 c 128,-1,2
 233 111 233 111 270 111 c 0,3,4
 342 111 342 111 380 138 c 128,-1,5
 418 165 418 165 418 222 c 0,6,7
 418 246 418 246 405 265.5 c 128,-1,8
 392 285 392 285 363 298.5 c 128,-1,9
 334 312 334 312 285.5 319.5 c 128,-1,10
 237 327 237 327 167 327 c 1,11,12
 200 420 200 420 230 514.5 c 128,-1,13
 260 609 260 609 283 693 c 1,14,-1
 653 693 l 1,15,-1
 623 569 l 1,16,-1
 376 569 l 1,17,18
 366 533 366 533 354.5 496.5 c 128,-1,19
 343 460 343 460 334 435 c 1,20,21
 394 430 394 430 437.5 412.5 c 128,-1,22
 481 395 481 395 509.5 368 c 128,-1,23
 538 341 538 341 552 306.5 c 128,-1,24
 566 272 566 272 566 233 c 0,25,26
 566 177 566 177 547.5 131 c 128,-1,27
 529 85 529 85 492 53 c 128,-1,28
 455 21 455 21 400 3.5 c 128,-1,29
 345 -14 345 -14 273 -14 c 0,30,31
 252 -14 252 -14 225 -11 c 128,-1,32
 198 -8 198 -8 169.5 -2.5 c 128,-1,33
 141 3 141 3 113.5 12 c 128,-1,34
 86 21 86 21 63 33 c 1,35,-1
 118 154 l 1,0,1
EndSplineSet
Substitution2: "'frac' Diagonal Fractions lookup 16 subtable" fivesuperior
Substitution2: "'sinf' Scientific Inferiors lookup 13 subtable" five.sinf
Substitution2: "'subs' Subscript lookup 12 subtable" five.sinf
Substitution2: "'sups' Superscript lookup 11 subtable" five.sups
Substitution2: "'dnom' Denominators lookup 10 subtable" fiveinferior
Substitution2: "'numr' Numerators lookup 8 subtable" fivesuperior
Substitution2: "'pnum' Proportional Numbers lookup 6 subtable" five.alt
EndChar

StartChar: six
Encoding: 54 54 25
Width: 568
Flags: W
LayerCount: 2
Fore
SplineSet
631 581 m 1,0,1
 569 579 569 579 515.5 572 c 128,-1,2
 462 565 462 565 417.5 546 c 128,-1,3
 373 527 373 527 339.5 495 c 128,-1,4
 306 463 306 463 284 412 c 1,5,6
 310 426 310 426 344.5 432.5 c 128,-1,7
 379 439 379 439 409 439 c 0,8,9
 446 439 446 439 478.5 427.5 c 128,-1,10
 511 416 511 416 535.5 392.5 c 128,-1,11
 560 369 560 369 574 334 c 128,-1,12
 588 299 588 299 588 253 c 0,13,14
 588 188 588 188 567 138.5 c 128,-1,15
 546 89 546 89 510 55 c 128,-1,16
 474 21 474 21 426 3.5 c 128,-1,17
 378 -14 378 -14 325 -14 c 0,18,19
 278 -14 278 -14 238 2 c 128,-1,20
 198 18 198 18 168.5 48.5 c 128,-1,21
 139 79 139 79 122 124.5 c 128,-1,22
 105 170 105 170 105 230 c 0,23,24
 105 318 105 318 135 402.5 c 128,-1,25
 165 487 165 487 227 553 c 128,-1,26
 289 619 289 619 384 659.5 c 128,-1,27
 479 700 479 700 609 700 c 0,28,29
 617 700 617 700 627.5 700 c 128,-1,30
 638 700 638 700 649 699 c 1,31,-1
 631 581 l 1,0,1
446 243 m 0,32,33
 446 291 446 291 420 309 c 128,-1,34
 394 327 394 327 358 327 c 0,35,36
 333 327 333 327 307.5 320.5 c 128,-1,37
 282 314 282 314 260 305 c 1,38,39
 247 267 247 267 247 227 c 0,40,41
 247 179 247 179 269 144.5 c 128,-1,42
 291 110 291 110 337 110 c 0,43,44
 385 110 385 110 415.5 145 c 128,-1,45
 446 180 446 180 446 243 c 0,32,33
EndSplineSet
Substitution2: "'frac' Diagonal Fractions lookup 16 subtable" sixsuperior
Substitution2: "'sinf' Scientific Inferiors lookup 13 subtable" six.sinf
Substitution2: "'subs' Subscript lookup 12 subtable" six.sinf
Substitution2: "'sups' Superscript lookup 11 subtable" six.sups
Substitution2: "'dnom' Denominators lookup 10 subtable" sixinferior
Substitution2: "'numr' Numerators lookup 8 subtable" sixsuperior
Substitution2: "'pnum' Proportional Numbers lookup 6 subtable" six.alt
EndChar

StartChar: seven
Encoding: 55 55 26
Width: 568
Flags: W
LayerCount: 2
Fore
SplineSet
135 0 m 1,0,1
 154 74 154 74 190 153.5 c 128,-1,2
 226 233 226 233 271 308.5 c 128,-1,3
 316 384 316 384 366 451 c 128,-1,4
 416 518 416 518 463 567 c 1,5,-1
 162 567 l 1,6,-1
 193 693 l 1,7,-1
 678 693 l 1,8,-1
 652 585 l 1,9,10
 614 553 614 553 561.5 492 c 128,-1,11
 509 431 509 431 456 352.5 c 128,-1,12
 403 274 403 274 357 183.5 c 128,-1,13
 311 93 311 93 286 0 c 1,14,-1
 135 0 l 1,0,1
EndSplineSet
Substitution2: "'frac' Diagonal Fractions lookup 16 subtable" sevensuperior
Substitution2: "'sinf' Scientific Inferiors lookup 13 subtable" seven.sinf
Substitution2: "'subs' Subscript lookup 12 subtable" seven.sinf
Substitution2: "'sups' Superscript lookup 11 subtable" seven.sups
Substitution2: "'dnom' Denominators lookup 10 subtable" seveninferior
Substitution2: "'numr' Numerators lookup 8 subtable" sevensuperior
Substitution2: "'pnum' Proportional Numbers lookup 6 subtable" seven.alt
EndChar

StartChar: eight
Encoding: 56 56 27
Width: 568
Flags: W
LayerCount: 2
Fore
SplineSet
93 157 m 0,0,1
 93 187 93 187 101.5 214.5 c 128,-1,2
 110 242 110 242 128.5 268 c 128,-1,3
 147 294 147 294 176 318.5 c 128,-1,4
 205 343 205 343 246 368 c 1,5,6
 222 391 222 391 205.5 420.5 c 128,-1,7
 189 450 189 450 189 492 c 0,8,9
 189 531 189 531 203.5 570 c 128,-1,10
 218 609 218 609 248.5 640 c 128,-1,11
 279 671 279 671 325 690 c 128,-1,12
 371 709 371 709 434 709 c 0,13,14
 476 709 476 709 512 697 c 128,-1,15
 548 685 548 685 574 663.5 c 128,-1,16
 600 642 600 642 615 611 c 128,-1,17
 630 580 630 580 630 543 c 0,18,19
 630 521 630 521 625 496.5 c 128,-1,20
 620 472 620 472 605 447.5 c 128,-1,21
 590 423 590 423 562.5 398 c 128,-1,22
 535 373 535 373 490 351 c 1,23,24
 507 339 507 339 522 325 c 128,-1,25
 537 311 537 311 548 293 c 128,-1,26
 559 275 559 275 565.5 253 c 128,-1,27
 572 231 572 231 572 203 c 0,28,29
 572 158 572 158 554.5 118.5 c 128,-1,30
 537 79 537 79 503.5 49.5 c 128,-1,31
 470 20 470 20 420 3 c 128,-1,32
 370 -14 370 -14 306 -14 c 0,33,34
 269 -14 269 -14 231 -5.5 c 128,-1,35
 193 3 193 3 162.5 23.5 c 128,-1,36
 132 44 132 44 112.5 76.5 c 128,-1,37
 93 109 93 109 93 157 c 0,0,1
428 199 m 0,38,39
 428 219 428 219 421 234.5 c 128,-1,40
 414 250 414 250 401.5 263 c 128,-1,41
 389 276 389 276 372.5 286.5 c 128,-1,42
 356 297 356 297 337 307 c 1,43,44
 306 292 306 292 286.5 275.5 c 128,-1,45
 267 259 267 259 255.5 242 c 128,-1,46
 244 225 244 225 240 208 c 128,-1,47
 236 191 236 191 236 175 c 0,48,49
 236 140 236 140 260.5 122.5 c 128,-1,50
 285 105 285 105 320 105 c 0,51,52
 341 105 341 105 360.5 111.5 c 128,-1,53
 380 118 380 118 395 130 c 128,-1,54
 410 142 410 142 419 159.5 c 128,-1,55
 428 177 428 177 428 199 c 0,38,39
326 501 m 0,56,57
 326 469 326 469 346 447 c 128,-1,58
 366 425 366 425 394 408 c 1,59,60
 452 435 452 435 471.5 464.5 c 128,-1,61
 491 494 491 494 491 522 c 0,62,63
 491 554 491 554 471 572 c 128,-1,64
 451 590 451 590 416 590 c 0,65,66
 375 590 375 590 350.5 564 c 128,-1,67
 326 538 326 538 326 501 c 0,56,57
EndSplineSet
Substitution2: "'frac' Diagonal Fractions lookup 16 subtable" eightsuperior
Substitution2: "'sinf' Scientific Inferiors lookup 13 subtable" eight.sinf
Substitution2: "'subs' Subscript lookup 12 subtable" eight.sinf
Substitution2: "'sups' Superscript lookup 11 subtable" eight.sups
Substitution2: "'dnom' Denominators lookup 10 subtable" eightinferior
Substitution2: "'numr' Numerators lookup 8 subtable" eightsuperior
Substitution2: "'pnum' Proportional Numbers lookup 6 subtable" eight.alt
EndChar

StartChar: nine
Encoding: 57 57 28
Width: 568
Flags: W
LayerCount: 2
Fore
SplineSet
95 115 m 1,0,1
 157 116 157 116 210.5 123.5 c 128,-1,2
 264 131 264 131 308.5 150 c 128,-1,3
 353 169 353 169 386.5 201 c 128,-1,4
 420 233 420 233 442 284 c 1,5,6
 416 270 416 270 381.5 263.5 c 128,-1,7
 347 257 347 257 317 257 c 0,8,9
 280 257 280 257 247.5 268.5 c 128,-1,10
 215 280 215 280 190.5 303.5 c 128,-1,11
 166 327 166 327 152 361.5 c 128,-1,12
 138 396 138 396 138 443 c 0,13,14
 138 507 138 507 159 557 c 128,-1,15
 180 607 180 607 216 641 c 128,-1,16
 252 675 252 675 300 692.5 c 128,-1,17
 348 710 348 710 401 710 c 0,18,19
 447 710 447 710 487.5 694 c 128,-1,20
 528 678 528 678 557.5 647.5 c 128,-1,21
 587 617 587 617 604 571.5 c 128,-1,22
 621 526 621 526 621 466 c 0,23,24
 621 378 621 378 591 293.5 c 128,-1,25
 561 209 561 209 499 143 c 128,-1,26
 437 77 437 77 342 36.5 c 128,-1,27
 247 -4 247 -4 117 -4 c 0,28,29
 109 -4 109 -4 98.5 -4 c 128,-1,30
 88 -4 88 -4 77 -3 c 1,31,-1
 95 115 l 1,0,1
280 453 m 0,32,33
 280 405 280 405 306 387 c 128,-1,34
 332 369 332 369 368 369 c 0,35,36
 393 369 393 369 418.5 375.5 c 128,-1,37
 444 382 444 382 466 391 c 1,38,39
 479 429 479 429 479 469 c 0,40,41
 479 517 479 517 457 551.5 c 128,-1,42
 435 586 435 586 389 586 c 0,43,44
 341 586 341 586 310.5 551 c 128,-1,45
 280 516 280 516 280 453 c 0,32,33
EndSplineSet
Substitution2: "'frac' Diagonal Fractions lookup 16 subtable" ninesuperior
Substitution2: "'sinf' Scientific Inferiors lookup 13 subtable" nine.sinf
Substitution2: "'subs' Subscript lookup 12 subtable" nine.sinf
Substitution2: "'sups' Superscript lookup 11 subtable" nine.sups
Substitution2: "'dnom' Denominators lookup 10 subtable" nineinferior
Substitution2: "'numr' Numerators lookup 8 subtable" ninesuperior
Substitution2: "'pnum' Proportional Numbers lookup 6 subtable" nine.alt
EndChar

StartChar: less
Encoding: 60 60 31
Width: 568
Flags: W
LayerCount: 2
Fore
SplineSet
121 361 m 1,0,-1
 595 542 l 1,1,-1
 605 418 l 1,2,-1
 259 298 l 1,3,-1
 543 167 l 1,4,-1
 480 56 l 1,5,-1
 94 244 l 1,6,-1
 121 361 l 1,0,-1
EndSplineSet
EndChar

StartChar: equal
Encoding: 61 61 32
Width: 568
Flags: W
LayerCount: 2
Fore
SplineSet
104 251 m 1,0,-1
 574 251 l 1,1,-1
 544 126 l 1,2,-1
 74 126 l 1,3,-1
 104 251 l 1,0,-1
157 470 m 1,4,-1
 627 470 l 1,5,-1
 597 345 l 1,6,-1
 127 345 l 1,7,-1
 157 470 l 1,4,-1
EndSplineSet
EndChar

StartChar: greater
Encoding: 62 62 33
Width: 568
Flags: W
LayerCount: 2
Fore
SplineSet
552 237 m 1,0,-1
 78 56 l 1,1,-1
 68 181 l 1,2,-1
 414 301 l 1,3,-1
 130 432 l 1,4,-1
 193 542 l 1,5,-1
 579 354 l 1,6,-1
 552 237 l 1,0,-1
EndSplineSet
EndChar

StartChar: question
Encoding: 63 63 34
Width: 430
Flags: W
LayerCount: 2
Fore
SplineSet
292 407 m 0,0,1
 322 430 322 430 343 447 c 128,-1,2
 364 464 364 464 377.5 478.5 c 128,-1,3
 391 493 391 493 397.5 506 c 128,-1,4
 404 519 404 519 404 533 c 0,5,6
 404 559 404 559 385.5 571 c 128,-1,7
 367 583 367 583 339 583 c 0,8,9
 321 583 321 583 301 579.5 c 128,-1,10
 281 576 281 576 262 570 c 128,-1,11
 243 564 243 564 226 557 c 128,-1,12
 209 550 209 550 196 543 c 1,13,-1
 177 660 l 1,14,15
 216 682 216 682 266.5 695.5 c 128,-1,16
 317 709 317 709 368 709 c 0,17,18
 404 709 404 709 437 700 c 128,-1,19
 470 691 470 691 495 672.5 c 128,-1,20
 520 654 520 654 535 626.5 c 128,-1,21
 550 599 550 599 550 563 c 0,22,23
 550 520 550 520 536.5 488 c 128,-1,24
 523 456 523 456 502 431 c 128,-1,25
 481 406 481 406 454.5 385.5 c 128,-1,26
 428 365 428 365 402 345 c 0,27,28
 364 316 364 316 335 287 c 128,-1,29
 306 258 306 258 303 221 c 1,30,-1
 171 221 l 1,31,32
 171 252 171 252 180.5 278 c 128,-1,33
 190 304 190 304 206.5 326 c 128,-1,34
 223 348 223 348 245 368 c 128,-1,35
 267 388 267 388 292 407 c 0,0,1
223 171 m 0,36,37
 258 171 258 171 281.5 151.5 c 128,-1,38
 305 132 305 132 305 90 c 0,39,40
 305 67 305 67 296.5 48 c 128,-1,41
 288 29 288 29 274 15.5 c 128,-1,42
 260 2 260 2 242 -5.5 c 128,-1,43
 224 -13 224 -13 205 -13 c 0,44,45
 170 -13 170 -13 146.5 6.5 c 128,-1,46
 123 26 123 26 123 68 c 0,47,48
 123 91 123 91 131.5 110 c 128,-1,49
 140 129 140 129 154 142.5 c 128,-1,50
 168 156 168 156 186 163.5 c 128,-1,51
 204 171 204 171 223 171 c 0,36,37
EndSplineSet
EndChar

StartChar: at
Encoding: 64 64 35
Width: 941
Flags: W
LayerCount: 2
Fore
SplineSet
647 -146 m 1,0,1
 605 -154 605 -154 560.5 -159 c 128,-1,2
 516 -164 516 -164 478 -164 c 0,3,4
 390 -164 390 -164 320 -140 c 128,-1,5
 250 -116 250 -116 201 -71.5 c 128,-1,6
 152 -27 152 -27 126 36.5 c 128,-1,7
 100 100 100 100 100 178 c 0,8,9
 100 308 100 308 144.5 409 c 128,-1,10
 189 510 189 510 263 578.5 c 128,-1,11
 337 647 337 647 432 682.5 c 128,-1,12
 527 718 527 718 629 718 c 0,13,14
 698 718 698 718 761 698.5 c 128,-1,15
 824 679 824 679 872.5 639 c 128,-1,16
 921 599 921 599 950 538 c 128,-1,17
 979 477 979 477 979 393 c 0,18,19
 979 326 979 326 962.5 260.5 c 128,-1,20
 946 195 946 195 911 143.5 c 128,-1,21
 876 92 876 92 822 60 c 128,-1,22
 768 28 768 28 694 28 c 0,23,24
 668 28 668 28 645 38 c 128,-1,25
 622 48 622 48 607 67 c 1,26,27
 572 47 572 47 538.5 37.5 c 128,-1,28
 505 28 505 28 467 28 c 0,29,30
 388 28 388 28 344 80 c 128,-1,31
 300 132 300 132 300 217 c 0,32,33
 300 266 300 266 320 319 c 128,-1,34
 340 372 340 372 379 415.5 c 128,-1,35
 418 459 418 459 476.5 487 c 128,-1,36
 535 515 535 515 613 515 c 0,37,38
 673 515 673 515 712 504.5 c 128,-1,39
 751 494 751 494 778 483 c 1,40,-1
 707 187 l 2,41,42
 705 182 705 182 705 178 c 128,-1,43
 705 174 705 174 705 170 c 0,44,45
 705 153 705 153 716 145.5 c 128,-1,46
 727 138 727 138 744 138 c 0,47,48
 770 138 770 138 792 156.5 c 128,-1,49
 814 175 814 175 830 207.5 c 128,-1,50
 846 240 846 240 855 284.5 c 128,-1,51
 864 329 864 329 864 381 c 0,52,53
 864 444 864 444 844.5 489.5 c 128,-1,54
 825 535 825 535 791 563.5 c 128,-1,55
 757 592 757 592 712 605.5 c 128,-1,56
 667 619 667 619 615 619 c 0,57,58
 543 619 543 619 471.5 591.5 c 128,-1,59
 400 564 400 564 343.5 509.5 c 128,-1,60
 287 455 287 455 252 372.5 c 128,-1,61
 217 290 217 290 217 181 c 0,62,63
 217 110 217 110 239.5 63 c 128,-1,64
 262 16 262 16 300 -12 c 128,-1,65
 338 -40 338 -40 388.5 -52 c 128,-1,66
 439 -64 439 -64 496 -64 c 0,67,68
 531 -64 531 -64 574 -59 c 128,-1,69
 617 -54 617 -54 653 -47 c 1,70,-1
 647 -146 l 1,0,1
572 157 m 1,71,72
 573 165 573 165 575 175 c 128,-1,73
 577 185 577 185 580 199 c 2,74,-1
 629 405 l 1,75,76
 612 409 612 409 588 409 c 0,77,78
 547 409 547 409 518 392 c 128,-1,79
 489 375 489 375 469.5 348.5 c 128,-1,80
 450 322 450 322 441 290 c 128,-1,81
 432 258 432 258 432 229 c 0,82,83
 432 184 432 184 448 160.5 c 128,-1,84
 464 137 464 137 502 137 c 0,85,86
 532 137 532 137 572 157 c 1,71,72
EndSplineSet
Substitution2: "'case' Case-Sensitive Forms lookup 18 subtable" At
EndChar

StartChar: A
Encoding: 65 65 36
Width: 714
Flags: W
LayerCount: 2
Fore
SplineSet
532 0 m 1,0,1
 530 39 530 39 527.5 76.5 c 128,-1,2
 525 114 525 114 522 151 c 1,3,-1
 262 151 l 1,4,5
 242 114 242 114 220 76.5 c 128,-1,6
 198 39 198 39 178 0 c 1,7,-1
 15 0 l 1,8,9
 80 112 80 112 136.5 207 c 128,-1,10
 193 302 193 302 245.5 386 c 128,-1,11
 298 470 298 470 348 545.5 c 128,-1,12
 398 621 398 621 450 693 c 1,13,-1
 589 693 l 1,14,15
 605 621 605 621 619.5 533.5 c 128,-1,16
 634 446 634 446 646.5 354.5 c 128,-1,17
 659 263 659 263 669.5 171.5 c 128,-1,18
 680 80 680 80 689 0 c 1,19,-1
 532 0 l 1,0,1
486 541 m 1,20,21
 444 474 444 474 403.5 408 c 128,-1,22
 363 342 363 342 325 273 c 1,23,-1
 512 273 l 1,24,25
 507 334 507 334 501.5 403 c 128,-1,26
 496 472 496 472 486 541 c 1,20,21
EndSplineSet
EndChar

StartChar: B
Encoding: 66 66 37
Width: 658
Flags: W
LayerCount: 2
Fore
SplineSet
312 -9 m 0,0,1
 252 -9 252 -9 189 -4 c 128,-1,2
 126 1 126 1 75 12 c 1,3,-1
 235 682 l 1,4,5
 292 693 292 693 354.5 697 c 128,-1,6
 417 701 417 701 469 701 c 0,7,8
 529 701 529 701 572.5 688.5 c 128,-1,9
 616 676 616 676 643.5 655 c 128,-1,10
 671 634 671 634 684.5 605.5 c 128,-1,11
 698 577 698 577 698 545 c 0,12,13
 698 523 698 523 693.5 499 c 128,-1,14
 689 475 689 475 675.5 451.5 c 128,-1,15
 662 428 662 428 638.5 407 c 128,-1,16
 615 386 615 386 577 369 c 1,17,18
 622 349 622 349 643 314.5 c 128,-1,19
 664 280 664 280 664 238 c 0,20,21
 664 190 664 190 645 145.5 c 128,-1,22
 626 101 626 101 584 66.5 c 128,-1,23
 542 32 542 32 475 11.5 c 128,-1,24
 408 -9 408 -9 312 -9 c 0,0,1
298 303 m 1,25,-1
 255 123 l 1,26,27
 271 120 271 120 295.5 118.5 c 128,-1,28
 320 117 320 117 341 117 c 0,29,30
 371 117 371 117 400.5 121.5 c 128,-1,31
 430 126 430 126 453.5 138 c 128,-1,32
 477 150 477 150 492 171 c 128,-1,33
 507 192 507 192 507 225 c 0,34,35
 507 239 507 239 501.5 253 c 128,-1,36
 496 267 496 267 484 278 c 128,-1,37
 472 289 472 289 452.5 296 c 128,-1,38
 433 303 433 303 406 303 c 2,39,-1
 298 303 l 1,25,-1
327 420 m 1,40,-1
 425 420 l 2,41,42
 485 420 485 420 514.5 446 c 128,-1,43
 544 472 544 472 544 508 c 0,44,45
 544 527 544 527 535.5 540.5 c 128,-1,46
 527 554 527 554 513 562 c 128,-1,47
 499 570 499 570 481 573.5 c 128,-1,48
 463 577 463 577 444 577 c 0,49,50
 423 577 423 577 399 575.5 c 128,-1,51
 375 574 375 574 363 572 c 1,52,-1
 327 420 l 1,40,-1
EndSplineSet
EndChar

StartChar: C
Encoding: 67 67 38
Width: 638
Flags: W
LayerCount: 2
Fore
SplineSet
614 30 m 1,0,1
 573 10 573 10 523 -2 c 128,-1,2
 473 -14 473 -14 401 -14 c 0,3,4
 339 -14 339 -14 287.5 6.5 c 128,-1,5
 236 27 236 27 199.5 65 c 128,-1,6
 163 103 163 103 143 157.5 c 128,-1,7
 123 212 123 212 123 280 c 0,8,9
 123 358 123 358 150.5 435 c 128,-1,10
 178 512 178 512 231.5 572.5 c 128,-1,11
 285 633 285 633 362.5 671 c 128,-1,12
 440 709 440 709 541 709 c 0,13,14
 589 709 589 709 635.5 698 c 128,-1,15
 682 687 682 687 733 659 c 1,16,-1
 677 538 l 1,17,18
 635 560 635 560 602 568 c 128,-1,19
 569 576 569 576 531 576 c 0,20,21
 474 576 474 576 428.5 553 c 128,-1,22
 383 530 383 530 350.5 490.5 c 128,-1,23
 318 451 318 451 301 399 c 128,-1,24
 284 347 284 347 284 289 c 0,25,26
 284 201 284 201 322.5 161 c 128,-1,27
 361 121 361 121 433 121 c 0,28,29
 481 121 481 121 521.5 131 c 128,-1,30
 562 141 562 141 597 157 c 1,31,-1
 614 30 l 1,0,1
EndSplineSet
EndChar

StartChar: D
Encoding: 68 68 39
Width: 718
Flags: W
LayerCount: 2
Fore
SplineSet
257 125 m 1,0,1
 268 124 268 124 279.5 123.5 c 128,-1,2
 291 123 291 123 311 123 c 0,3,4
 376 123 376 123 428.5 143 c 128,-1,5
 481 163 481 163 517.5 200.5 c 128,-1,6
 554 238 554 238 574 292.5 c 128,-1,7
 594 347 594 347 594 415 c 0,8,9
 594 450 594 450 585 478.5 c 128,-1,10
 576 507 576 507 555.5 527.5 c 128,-1,11
 535 548 535 548 502.5 559 c 128,-1,12
 470 570 470 570 424 570 c 0,13,14
 394 570 394 570 363 567 c 1,15,-1
 257 125 l 1,0,1
754 423 m 0,16,17
 754 322 754 322 721 242 c 128,-1,18
 688 162 688 162 626.5 106.5 c 128,-1,19
 565 51 565 51 477 21 c 128,-1,20
 389 -9 389 -9 278 -9 c 0,21,22
 236 -9 236 -9 181 -4 c 128,-1,23
 126 1 126 1 75 12 c 1,24,-1
 236 681 l 1,25,26
 293 692 293 692 345.5 696.5 c 128,-1,27
 398 701 398 701 440 701 c 0,28,29
 514 701 514 701 572.5 681 c 128,-1,30
 631 661 631 661 671.5 624 c 128,-1,31
 712 587 712 587 733 536 c 128,-1,32
 754 485 754 485 754 423 c 0,16,17
EndSplineSet
EndChar

StartChar: E
Encoding: 69 69 40
Width: 594
Flags: W
LayerCount: 2
Fore
SplineSet
75 0 m 1,0,-1
 241 693 l 1,1,-1
 694 693 l 1,2,-1
 662 565 l 1,3,-1
 365 565 l 1,4,-1
 333 425 l 1,5,-1
 595 425 l 1,6,-1
 564 299 l 1,7,-1
 302 299 l 1,8,-1
 262 129 l 1,9,-1
 582 129 l 1,10,-1
 550 0 l 1,11,-1
 75 0 l 1,0,-1
EndSplineSet
EndChar

StartChar: F
Encoding: 70 70 41
Width: 575
Flags: W
LayerCount: 2
Fore
SplineSet
75 0 m 1,0,-1
 241 693 l 1,1,-1
 690 693 l 1,2,-1
 658 564 l 1,3,-1
 365 564 l 1,4,-1
 330 416 l 1,5,-1
 589 416 l 1,6,-1
 558 287 l 1,7,-1
 299 287 l 1,8,-1
 230 0 l 1,9,-1
 75 0 l 1,0,-1
EndSplineSet
EndChar

StartChar: G
Encoding: 71 71 42
Width: 688
Flags: W
LayerCount: 2
Fore
SplineSet
429 120 m 0,0,1
 449 120 449 120 465 121.5 c 128,-1,2
 481 123 481 123 494 125 c 1,3,-1
 552 366 l 1,4,-1
 708 366 l 1,5,-1
 624 19 l 1,6,7
 596 8 596 8 543 -2.5 c 128,-1,8
 490 -13 490 -13 408 -13 c 0,9,10
 338 -13 338 -13 284.5 7.5 c 128,-1,11
 231 28 231 28 195 66 c 128,-1,12
 159 104 159 104 141 158 c 128,-1,13
 123 212 123 212 123 280 c 0,14,15
 123 358 123 358 150.5 435 c 128,-1,16
 178 512 178 512 232 572.5 c 128,-1,17
 286 633 286 633 366 671 c 128,-1,18
 446 709 446 709 550 709 c 0,19,20
 598 709 598 709 651.5 695 c 128,-1,21
 705 681 705 681 748 653 c 1,22,-1
 692 532 l 1,23,24
 657 554 657 554 617.5 565 c 128,-1,25
 578 576 578 576 540 576 c 0,26,27
 479 576 479 576 431.5 553 c 128,-1,28
 384 530 384 530 351 490.5 c 128,-1,29
 318 451 318 451 301 399 c 128,-1,30
 284 347 284 347 284 289 c 0,31,32
 284 201 284 201 320.5 160.5 c 128,-1,33
 357 120 357 120 429 120 c 0,0,1
EndSplineSet
EndChar

StartChar: H
Encoding: 72 72 43
Width: 714
Flags: W
LayerCount: 2
Fore
SplineSet
643 693 m 1,0,-1
 799 693 l 1,1,-1
 632 0 l 1,2,-1
 476 0 l 1,3,-1
 547 295 l 1,4,-1
 301 295 l 1,5,-1
 230 0 l 1,6,-1
 75 0 l 1,7,-1
 241 693 l 1,8,-1
 397 693 l 1,9,-1
 333 427 l 1,10,-1
 579 427 l 1,11,-1
 643 693 l 1,0,-1
EndSplineSet
EndChar

StartChar: I
Encoding: 73 73 44
Width: 312
Flags: W
LayerCount: 2
Fore
SplineSet
241 693 m 1,0,-1
 397 693 l 1,1,-1
 230 0 l 1,2,-1
 75 0 l 1,3,-1
 241 693 l 1,0,-1
EndSplineSet
EndChar

StartChar: J
Encoding: 74 74 45
Width: 516
Flags: W
LayerCount: 2
Fore
SplineSet
485 210 m 2,0,1
 473 159 473 159 453 117.5 c 128,-1,2
 433 76 433 76 401 46.5 c 128,-1,3
 369 17 369 17 322 1.5 c 128,-1,4
 275 -14 275 -14 208 -14 c 0,5,6
 154 -14 154 -14 105.5 2.5 c 128,-1,7
 57 19 57 19 20 47 c 1,8,-1
 89 163 l 1,9,10
 113 146 113 146 141.5 133 c 128,-1,11
 170 120 170 120 209 120 c 0,12,13
 237 120 237 120 257.5 126.5 c 128,-1,14
 278 133 278 133 293 147.5 c 128,-1,15
 308 162 308 162 318.5 185 c 128,-1,16
 329 208 329 208 337 241 c 2,17,-1
 445 693 l 1,18,-1
 601 693 l 1,19,-1
 485 210 l 2,0,1
EndSplineSet
EndChar

StartChar: K
Encoding: 75 75 46
Width: 662
Flags: W
LayerCount: 2
Fore
SplineSet
483 0 m 1,0,1
 469 34 469 34 449.5 73 c 128,-1,2
 430 112 430 112 406.5 151 c 128,-1,3
 383 190 383 190 356 226 c 128,-1,4
 329 262 329 262 301 290 c 1,5,-1
 230 0 l 1,6,-1
 75 0 l 1,7,-1
 241 693 l 1,8,-1
 397 693 l 1,9,-1
 336 443 l 1,10,11
 414 510 414 510 483 571.5 c 128,-1,12
 552 633 552 633 612 693 c 1,13,-1
 797 693 l 1,14,15
 706 608 706 608 616.5 524.5 c 128,-1,16
 527 441 527 441 428 362 c 1,17,18
 491 293 491 293 549 204 c 128,-1,19
 607 115 607 115 653 0 c 1,20,-1
 483 0 l 1,0,1
EndSplineSet
EndChar

StartChar: L
Encoding: 76 76 47
Width: 564
Flags: W
LayerCount: 2
Fore
SplineSet
569 132 m 1,0,-1
 537 0 l 1,1,-1
 75 0 l 1,2,-1
 241 693 l 1,3,-1
 397 693 l 1,4,-1
 262 132 l 1,5,-1
 569 132 l 1,0,-1
EndSplineSet
EndChar

StartChar: M
Encoding: 77 77 48
Width: 878
Flags: W
LayerCount: 2
Fore
SplineSet
416 693 m 1,0,1
 422 666 422 666 431.5 616.5 c 128,-1,2
 441 567 441 567 451.5 507.5 c 128,-1,3
 462 448 462 448 473 385.5 c 128,-1,4
 484 323 484 323 493 271 c 1,5,6
 527 323 527 323 567 383 c 128,-1,7
 607 443 607 443 646 501 c 128,-1,8
 685 559 685 559 720 609.5 c 128,-1,9
 755 660 755 660 780 693 c 1,10,-1
 918 693 l 1,11,12
 911 624 911 624 899.5 538 c 128,-1,13
 888 452 888 452 873.5 360 c 128,-1,14
 859 268 859 268 843 175 c 128,-1,15
 827 82 827 82 811 0 c 1,16,-1
 659 0 l 1,17,18
 680 102 680 102 703.5 220.5 c 128,-1,19
 727 339 727 339 747 460 c 1,20,21
 721 419 721 419 689 368.5 c 128,-1,22
 657 318 657 318 625 266.5 c 128,-1,23
 593 215 593 215 563 168 c 128,-1,24
 533 121 533 121 511 88 c 1,25,-1
 397 88 l 1,26,27
 392 118 392 118 385 164 c 128,-1,28
 378 210 378 210 369.5 261.5 c 128,-1,29
 361 313 361 313 352 365.5 c 128,-1,30
 343 418 343 418 335 460 c 1,31,32
 296 339 296 339 264.5 220.5 c 128,-1,33
 233 102 233 102 206 0 c 1,34,-1
 55 0 l 1,35,36
 78 82 78 82 105.5 175 c 128,-1,37
 133 268 133 268 162.5 360.5 c 128,-1,38
 192 453 192 453 221 539 c 128,-1,39
 250 625 250 625 276 693 c 1,40,-1
 416 693 l 1,0,1
EndSplineSet
EndChar

StartChar: N
Encoding: 78 78 49
Width: 742
Flags: W
LayerCount: 2
Fore
SplineSet
543 0 m 1,0,1
 501 118 501 118 449.5 236 c 128,-1,2
 398 354 398 354 338 459 c 1,3,-1
 228 0 l 1,4,-1
 75 0 l 1,5,-1
 241 693 l 1,6,-1
 360 693 l 1,7,8
 383 658 383 658 409.5 610.5 c 128,-1,9
 436 563 436 563 464 508 c 128,-1,10
 492 453 492 453 520 393.5 c 128,-1,11
 548 334 548 334 573 276 c 1,12,-1
 672 693 l 1,13,-1
 827 693 l 1,14,-1
 660 0 l 1,15,-1
 543 0 l 1,0,1
EndSplineSet
EndChar

StartChar: O
Encoding: 79 79 50
Width: 757
Flags: W
LayerCount: 2
Fore
SplineSet
500 575 m 0,0,1
 454 575 454 575 414.5 551 c 128,-1,2
 375 527 375 527 345.5 487 c 128,-1,3
 316 447 316 447 299.5 395 c 128,-1,4
 283 343 283 343 283 288 c 0,5,6
 283 213 283 213 314.5 166.5 c 128,-1,7
 346 120 346 120 417 120 c 0,8,9
 463 120 463 120 502.5 144 c 128,-1,10
 542 168 542 168 571.5 208 c 128,-1,11
 601 248 601 248 617.5 299.5 c 128,-1,12
 634 351 634 351 634 407 c 0,13,14
 634 482 634 482 602.5 528.5 c 128,-1,15
 571 575 571 575 500 575 c 0,0,1
401 -14 m 0,16,17
 340 -14 340 -14 289 6 c 128,-1,18
 238 26 238 26 201 63.5 c 128,-1,19
 164 101 164 101 143.5 155 c 128,-1,20
 123 209 123 209 123 277 c 0,21,22
 123 355 123 355 150 432 c 128,-1,23
 177 509 177 509 227.5 570.5 c 128,-1,24
 278 632 278 632 351 670.5 c 128,-1,25
 424 709 424 709 516 709 c 0,26,27
 577 709 577 709 628 689 c 128,-1,28
 679 669 679 669 716 631.5 c 128,-1,29
 753 594 753 594 773.5 540 c 128,-1,30
 794 486 794 486 794 418 c 0,31,32
 794 340 794 340 767.5 262.5 c 128,-1,33
 741 185 741 185 690.5 123.5 c 128,-1,34
 640 62 640 62 567 24 c 128,-1,35
 494 -14 494 -14 401 -14 c 0,16,17
EndSplineSet
EndChar

StartChar: P
Encoding: 80 80 51
Width: 639
Flags: W
LayerCount: 2
Fore
SplineSet
432 701 m 0,0,1
 495 701 495 701 545.5 687.5 c 128,-1,2
 596 674 596 674 631 648.5 c 128,-1,3
 666 623 666 623 685 586 c 128,-1,4
 704 549 704 549 704 503 c 0,5,6
 704 428 704 428 675 376 c 128,-1,7
 646 324 646 324 595 292 c 128,-1,8
 544 260 544 260 475 246 c 128,-1,9
 406 232 406 232 325 232 c 2,10,-1
 286 232 l 1,11,-1
 230 0 l 1,12,-1
 75 0 l 1,13,-1
 238 683 l 1,14,15
 292 693 292 693 340.5 697 c 128,-1,16
 389 701 389 701 432 701 c 0,0,1
419 570 m 0,17,18
 402 570 402 570 390 569 c 128,-1,19
 378 568 378 568 366 567 c 1,20,-1
 318 363 l 1,21,-1
 357 363 l 2,22,23
 399 363 399 363 433.5 369.5 c 128,-1,24
 468 376 468 376 492.5 391 c 128,-1,25
 517 406 517 406 530.5 429.5 c 128,-1,26
 544 453 544 453 544 487 c 0,27,28
 544 532 544 532 511.5 551 c 128,-1,29
 479 570 479 570 419 570 c 0,17,18
EndSplineSet
EndChar

StartChar: Q
Encoding: 81 81 52
Width: 756
Flags: W
LayerCount: 2
Fore
SplineSet
610 -187 m 1,0,1
 531 -184 531 -184 478 -171 c 128,-1,2
 425 -158 425 -158 392.5 -136.5 c 128,-1,3
 360 -115 360 -115 346 -84 c 128,-1,4
 332 -53 332 -53 332 -14 c 2,5,-1
 332 -7 l 1,6,7
 236 13 236 13 179.5 86 c 128,-1,8
 123 159 123 159 123 277 c 0,9,10
 123 355 123 355 150 432 c 128,-1,11
 177 509 177 509 227.5 570.5 c 128,-1,12
 278 632 278 632 351 670.5 c 128,-1,13
 424 709 424 709 516 709 c 0,14,15
 577 709 577 709 628 689 c 128,-1,16
 679 669 679 669 716 631.5 c 128,-1,17
 753 594 753 594 773.5 540 c 128,-1,18
 794 486 794 486 794 418 c 0,19,20
 794 349 794 349 773 279.5 c 128,-1,21
 752 210 752 210 711.5 151.5 c 128,-1,22
 671 93 671 93 612.5 51 c 128,-1,23
 554 9 554 9 479 -6 c 1,24,-1
 479 -9 l 2,25,26
 479 -31 479 -31 493.5 -44 c 128,-1,27
 508 -57 508 -57 532.5 -64 c 128,-1,28
 557 -71 557 -71 589 -74 c 128,-1,29
 621 -77 621 -77 656 -79 c 1,30,-1
 610 -187 l 1,0,1
500 575 m 0,31,32
 454 575 454 575 414.5 551 c 128,-1,33
 375 527 375 527 345.5 487 c 128,-1,34
 316 447 316 447 299.5 395 c 128,-1,35
 283 343 283 343 283 288 c 0,36,37
 283 213 283 213 314.5 166.5 c 128,-1,38
 346 120 346 120 417 120 c 0,39,40
 463 120 463 120 502.5 144 c 128,-1,41
 542 168 542 168 571.5 208 c 128,-1,42
 601 248 601 248 617.5 299.5 c 128,-1,43
 634 351 634 351 634 407 c 0,44,45
 634 482 634 482 602.5 528.5 c 128,-1,46
 571 575 571 575 500 575 c 0,31,32
EndSplineSet
EndChar

StartChar: R
Encoding: 82 82 53
Width: 656
Flags: W
LayerCount: 2
Fore
SplineSet
436 701 m 0,0,1
 503 701 503 701 553 685 c 128,-1,2
 603 669 603 669 636 642 c 128,-1,3
 669 615 669 615 685 578.5 c 128,-1,4
 701 542 701 542 701 502 c 0,5,6
 701 469 701 469 693.5 437 c 128,-1,7
 686 405 686 405 665.5 376 c 128,-1,8
 645 347 645 347 610.5 322.5 c 128,-1,9
 576 298 576 298 522 281 c 1,10,11
 550 229 550 229 579.5 155 c 128,-1,12
 609 81 609 81 635 0 c 1,13,-1
 468 0 l 1,14,15
 445 69 445 69 421.5 136.5 c 128,-1,16
 398 204 398 204 369 253 c 1,17,-1
 291 253 l 1,18,-1
 230 0 l 1,19,-1
 75 0 l 1,20,-1
 238 683 l 1,21,22
 292 693 292 693 343 697 c 128,-1,23
 394 701 394 701 436 701 c 0,0,1
431 569 m 0,24,25
 414 569 414 569 396 568 c 128,-1,26
 378 567 378 567 366 566 c 1,27,-1
 321 376 l 1,28,-1
 374 376 l 2,29,30
 422 376 422 376 455 385 c 128,-1,31
 488 394 488 394 508 409 c 128,-1,32
 528 424 528 424 536.5 443.5 c 128,-1,33
 545 463 545 463 545 483 c 0,34,35
 545 500 545 500 540 515.5 c 128,-1,36
 535 531 535 531 522 543 c 128,-1,37
 509 555 509 555 487 562 c 128,-1,38
 465 569 465 569 431 569 c 0,24,25
EndSplineSet
EndChar

StartChar: S
Encoding: 83 83 54
Width: 559
Flags: W
LayerCount: 2
Fore
SplineSet
269 116 m 0,0,1
 292 116 292 116 315 119.5 c 128,-1,2
 338 123 338 123 356 132 c 128,-1,3
 374 141 374 141 385.5 157.5 c 128,-1,4
 397 174 397 174 397 200 c 0,5,6
 397 220 397 220 386 234.5 c 128,-1,7
 375 249 375 249 358 261 c 128,-1,8
 341 273 341 273 320 283 c 128,-1,9
 299 293 299 293 278 305 c 0,10,11
 251 321 251 321 227 339 c 128,-1,12
 203 357 203 357 186 379.5 c 128,-1,13
 169 402 169 402 159 429.5 c 128,-1,14
 149 457 149 457 149 493 c 0,15,16
 149 539 149 539 166.5 578.5 c 128,-1,17
 184 618 184 618 218.5 647 c 128,-1,18
 253 676 253 676 305 692.5 c 128,-1,19
 357 709 357 709 427 709 c 0,20,21
 459 709 459 709 489 703.5 c 128,-1,22
 519 698 519 698 545 690 c 128,-1,23
 571 682 571 682 592.5 671.5 c 128,-1,24
 614 661 614 661 629 651 c 1,25,-1
 564 536 l 1,26,27
 539 555 539 555 503 568 c 128,-1,28
 467 581 467 581 425 581 c 0,29,30
 402 581 402 581 381 577 c 128,-1,31
 360 573 360 573 344 563.5 c 128,-1,32
 328 554 328 554 318.5 539 c 128,-1,33
 309 524 309 524 309 502 c 0,34,35
 309 482 309 482 316.5 468.5 c 128,-1,36
 324 455 324 455 336 445 c 128,-1,37
 348 435 348 435 364 427 c 128,-1,38
 380 419 380 419 398 410 c 0,39,40
 429 394 429 394 458 376 c 128,-1,41
 487 358 487 358 509 334.5 c 128,-1,42
 531 311 531 311 544 281 c 128,-1,43
 557 251 557 251 557 210 c 0,44,45
 557 153 557 153 536 111 c 128,-1,46
 515 69 515 69 477 41 c 128,-1,47
 439 13 439 13 386.5 -0.5 c 128,-1,48
 334 -14 334 -14 270 -14 c 0,49,50
 228 -14 228 -14 191.5 -7 c 128,-1,51
 155 0 155 0 125.5 9.5 c 128,-1,52
 96 19 96 19 74.5 30 c 128,-1,53
 53 41 53 41 40 50 c 1,54,-1
 106 169 l 1,55,56
 118 161 118 161 135 152 c 128,-1,57
 152 143 152 143 173.5 135 c 128,-1,58
 195 127 195 127 219 121.5 c 128,-1,59
 243 116 243 116 269 116 c 0,0,1
EndSplineSet
EndChar

StartChar: T
Encoding: 84 84 55
Width: 594
Flags: W
LayerCount: 2
Fore
SplineSet
739 693 m 1,0,-1
 707 562 l 1,1,-1
 504 562 l 1,2,-1
 369 0 l 1,3,-1
 213 0 l 1,4,-1
 348 562 l 1,5,-1
 145 562 l 1,6,-1
 177 693 l 1,7,-1
 739 693 l 1,0,-1
EndSplineSet
EndChar

StartChar: U
Encoding: 85 85 56
Width: 683
Flags: W
LayerCount: 2
Fore
SplineSet
668 252 m 2,0,1
 634 111 634 111 557.5 48.5 c 128,-1,2
 481 -14 481 -14 355 -14 c 0,3,4
 290 -14 290 -14 245.5 1.5 c 128,-1,5
 201 17 201 17 173 44.5 c 128,-1,6
 145 72 145 72 132.5 110.5 c 128,-1,7
 120 149 120 149 120 194 c 0,8,9
 120 246 120 246 135 305 c 2,10,-1
 228 693 l 1,11,-1
 384 693 l 1,12,-1
 286 283 l 2,13,14
 276 247 276 247 276 210 c 0,15,16
 276 190 276 190 280.5 174 c 128,-1,17
 285 158 285 158 296.5 146 c 128,-1,18
 308 134 308 134 327.5 127.5 c 128,-1,19
 347 121 347 121 376 121 c 0,20,21
 436 121 436 121 467 158.5 c 128,-1,22
 498 196 498 196 515 265 c 2,23,-1
 617 693 l 1,24,-1
 773 693 l 1,25,-1
 668 252 l 2,0,1
EndSplineSet
EndChar

StartChar: V
Encoding: 86 86 57
Width: 688
Flags: W
LayerCount: 2
Fore
SplineSet
268 0 m 1,0,1
 252 85 252 85 237.5 176 c 128,-1,2
 223 267 223 267 210 357 c 128,-1,3
 197 447 197 447 187 532.5 c 128,-1,4
 177 618 177 618 170 693 c 1,5,-1
 337 693 l 1,6,7
 340 636 340 636 344.5 570.5 c 128,-1,8
 349 505 349 505 355 438.5 c 128,-1,9
 361 372 361 372 367.5 306.5 c 128,-1,10
 374 241 374 241 381 184 c 1,11,12
 412 236 412 236 447.5 298 c 128,-1,13
 483 360 483 360 519.5 427 c 128,-1,14
 556 494 556 494 591.5 562 c 128,-1,15
 627 630 627 630 657 693 c 1,16,-1
 823 693 l 1,17,18
 785 621 785 621 740 538 c 128,-1,19
 695 455 695 455 643.5 366 c 128,-1,20
 592 277 592 277 534.5 184.5 c 128,-1,21
 477 92 477 92 414 0 c 1,22,-1
 268 0 l 1,0,1
EndSplineSet
EndChar

StartChar: W
Encoding: 87 87 58
Width: 936
Flags: W
LayerCount: 2
Fore
SplineSet
667 619 m 1,0,1
 669 578 669 578 672.5 526 c 128,-1,2
 676 474 676 474 680.5 418.5 c 128,-1,3
 685 363 685 363 690 308 c 128,-1,4
 695 253 695 253 700 206 c 1,5,6
 726 257 726 257 753 316 c 128,-1,7
 780 375 780 375 807 438 c 128,-1,8
 834 501 834 501 860.5 566 c 128,-1,9
 887 631 887 631 911 693 c 1,10,-1
 1076 693 l 1,11,12
 998 503 998 503 917 331.5 c 128,-1,13
 836 160 836 160 743 0 c 1,14,-1
 597 0 l 1,15,16
 589 55 589 55 582.5 105.5 c 128,-1,17
 576 156 576 156 570.5 205 c 128,-1,18
 565 254 565 254 560.5 304 c 128,-1,19
 556 354 556 354 552 408 c 1,20,21
 495 302 495 302 439.5 200.5 c 128,-1,22
 384 99 384 99 321 0 c 1,23,-1
 175 0 l 1,24,25
 167 93 167 93 163.5 184 c 128,-1,26
 160 275 160 275 160 369 c 0,27,28
 160 450 160 450 163 530.5 c 128,-1,29
 166 611 166 611 171 693 c 1,30,-1
 328 693 l 1,31,32
 323 605 323 605 318.5 520.5 c 128,-1,33
 314 436 314 436 314 345 c 0,34,35
 314 311 314 311 314 276 c 128,-1,36
 314 241 314 241 316 206 c 1,37,38
 344 255 344 255 375 310 c 128,-1,39
 406 365 406 365 436 420 c 128,-1,40
 466 475 466 475 493 526.5 c 128,-1,41
 520 578 520 578 539 619 c 1,42,-1
 667 619 l 1,0,1
EndSplineSet
EndChar

StartChar: X
Encoding: 88 88 59
Width: 669
Flags: W
LayerCount: 2
Fore
SplineSet
487 0 m 1,0,1
 473 43 473 43 461.5 76 c 128,-1,2
 450 109 450 109 439.5 137.5 c 128,-1,3
 429 166 429 166 418 191.5 c 128,-1,4
 407 217 407 217 394 245 c 1,5,-1
 193 0 l 1,6,-1
 15 0 l 1,7,-1
 330 377 l 1,8,-1
 189 693 l 1,9,-1
 361 693 l 1,10,-1
 444 479 l 1,11,12
 489 533 489 533 531 588.5 c 128,-1,13
 573 644 573 644 608 693 c 1,14,-1
 779 693 l 1,15,16
 750 652 750 652 717.5 608.5 c 128,-1,17
 685 565 685 565 650.5 521.5 c 128,-1,18
 616 478 616 478 581 436.5 c 128,-1,19
 546 395 546 395 513 358 c 1,20,21
 534 311 534 311 552.5 269 c 128,-1,22
 571 227 571 227 588 184.5 c 128,-1,23
 605 142 605 142 621 97 c 128,-1,24
 637 52 637 52 654 0 c 1,25,-1
 487 0 l 1,0,1
EndSplineSet
EndChar

StartChar: Y
Encoding: 89 89 60
Width: 652
Flags: W
LayerCount: 2
Fore
SplineSet
413 408 m 1,0,1
 442 445 442 445 468.5 479.5 c 128,-1,2
 495 514 495 514 520 548.5 c 128,-1,3
 545 583 545 583 569.5 618.5 c 128,-1,4
 594 654 594 654 620 693 c 1,5,-1
 792 693 l 1,6,7
 750 634 750 634 711 581 c 128,-1,8
 672 528 672 528 633 477.5 c 128,-1,9
 594 427 594 427 553 377 c 128,-1,10
 512 327 512 327 466 274 c 1,11,-1
 400 0 l 1,12,-1
 244 0 l 1,13,-1
 310 274 l 1,14,15
 268 380 268 380 234 481 c 128,-1,16
 200 582 200 582 170 693 c 1,17,-1
 336 693 l 1,18,19
 352 621 352 621 371 552 c 128,-1,20
 390 483 390 483 413 408 c 1,0,1
EndSplineSet
EndChar

StartChar: Z
Encoding: 90 90 61
Width: 638
Flags: W
LayerCount: 2
Fore
SplineSet
712 585 m 1,0,1
 672 551 672 551 616 498.5 c 128,-1,2
 560 446 560 446 499 384.5 c 128,-1,3
 438 323 438 323 377 257 c 128,-1,4
 316 191 316 191 266 131 c 1,5,-1
 614 131 l 1,6,-1
 582 0 l 1,7,-1
 45 0 l 1,8,-1
 68 93 l 1,9,10
 108 146 108 146 162 208.5 c 128,-1,11
 216 271 216 271 274.5 334 c 128,-1,12
 333 397 333 397 392 456 c 128,-1,13
 451 515 451 515 501 562 c 1,14,-1
 195 562 l 1,15,-1
 227 693 l 1,16,-1
 738 693 l 1,17,-1
 712 585 l 1,0,1
EndSplineSet
EndChar

StartChar: bracketleft
Encoding: 91 91 62
Width: 373
Flags: W
LayerCount: 2
Fore
SplineSet
262 783 m 1,0,-1
 533 783 l 1,1,-1
 504 664 l 1,2,-1
 375 664 l 1,3,-1
 200 -66 l 1,4,-1
 329 -66 l 1,5,-1
 300 -185 l 1,6,-1
 30 -185 l 1,7,-1
 262 783 l 1,0,-1
EndSplineSet
Substitution2: "'case' Case-Sensitive Forms lookup 18 subtable" Bracketleft
EndChar

StartChar: backslash
Encoding: 92 92 63
Width: 406
Flags: W
LayerCount: 2
Fore
SplineSet
150 783 m 1,0,-1
 293 783 l 1,1,-1
 396 -185 l 1,2,-1
 253 -185 l 1,3,-1
 150 783 l 1,0,-1
EndSplineSet
Substitution2: "'case' Case-Sensitive Forms lookup 18 subtable" Backslash
EndChar

StartChar: bracketright
Encoding: 93 93 64
Width: 373
Flags: W
LayerCount: 2
Fore
SplineSet
232 -185 m 1,0,-1
 -38 -185 l 1,1,-1
 -9 -66 l 1,2,-1
 119 -66 l 1,3,-1
 294 664 l 1,4,-1
 165 664 l 1,5,-1
 194 783 l 1,6,-1
 465 783 l 1,7,-1
 232 -185 l 1,0,-1
EndSplineSet
Substitution2: "'case' Case-Sensitive Forms lookup 18 subtable" Bracketright
EndChar

StartChar: asciicircum
Encoding: 94 94 65
Width: 568
Flags: W
LayerCount: 2
Fore
SplineSet
620 347 m 1,0,-1
 490 292 l 1,1,-1
 412 539 l 1,2,-1
 210 296 l 1,3,-1
 104 361 l 1,4,-1
 385 697 l 1,5,-1
 503 697 l 1,6,-1
 620 347 l 1,0,-1
EndSplineSet
EndChar

StartChar: underscore
Encoding: 95 95 66
Width: 503
Flags: W
LayerCount: 2
Fore
SplineSet
-2 -61 m 1,0,-1
 498 -61 l 1,1,-1
 469 -185 l 1,2,-1
 -30 -185 l 1,3,-1
 -2 -61 l 1,0,-1
EndSplineSet
EndChar

StartChar: grave
Encoding: 96 96 67
Width: 247
Flags: W
LayerCount: 2
Fore
SplineSet
246 799 m 1,0,-1
 381 634 l 1,1,-1
 317 576 l 1,2,-1
 154 720 l 1,3,-1
 246 799 l 1,0,-1
EndSplineSet
EndChar

StartChar: a
Encoding: 97 97 68
Width: 588
Flags: W
LayerCount: 2
Fore
SplineSet
563 227 m 2,0,1
 549 170 549 170 555 112.5 c 128,-1,2
 561 55 561 55 578 10 c 1,3,-1
 445 -9 l 1,4,5
 439 3 439 3 434 14 c 128,-1,6
 429 25 429 25 424 39 c 1,7,8
 396 16 396 16 362 1 c 128,-1,9
 328 -14 328 -14 286 -14 c 0,10,11
 236 -14 236 -14 200.5 3.5 c 128,-1,12
 165 21 165 21 142.5 50.5 c 128,-1,13
 120 80 120 80 110 119.5 c 128,-1,14
 100 159 100 159 100 204 c 0,15,16
 100 273 100 273 124.5 334 c 128,-1,17
 149 395 149 395 192.5 440.5 c 128,-1,18
 236 486 236 486 295 512 c 128,-1,19
 354 538 354 538 423 538 c 0,20,21
 432 538 432 538 454.5 537 c 128,-1,22
 477 536 477 536 506 532.5 c 128,-1,23
 535 529 535 529 567 521 c 128,-1,24
 599 513 599 513 628 499 c 1,25,-1
 563 227 l 2,0,1
459 411 m 1,26,27
 446 413 446 413 435.5 414 c 128,-1,28
 425 415 425 415 410 415 c 0,29,30
 376 415 376 415 346.5 398 c 128,-1,31
 317 381 317 381 295 353.5 c 128,-1,32
 273 326 273 326 260.5 290 c 128,-1,33
 248 254 248 254 248 215 c 0,34,35
 248 167 248 167 264 139 c 128,-1,36
 280 111 280 111 323 111 c 0,37,38
 346 111 346 111 364.5 120 c 128,-1,39
 383 129 383 129 404 150 c 1,40,41
 406 175 406 175 410.5 202.5 c 128,-1,42
 415 230 415 230 420 253 c 2,43,-1
 459 411 l 1,26,27
EndSplineSet
Substitution2: "'case' Case-Sensitive Forms lookup 19 subtable" A
Substitution2: "'ordn' Ordinals in Latin lookup 9 subtable" ordfeminine
EndChar

StartChar: b
Encoding: 98 98 69
Width: 575
Flags: W
LayerCount: 2
Fore
SplineSet
419 537 m 0,0,1
 467 537 467 537 502 520 c 128,-1,2
 537 503 537 503 560 474 c 128,-1,3
 583 445 583 445 594 406 c 128,-1,4
 605 367 605 367 605 322 c 0,5,6
 605 253 605 253 579.5 191.5 c 128,-1,7
 554 130 554 130 510 84.5 c 128,-1,8
 466 39 466 39 406 12.5 c 128,-1,9
 346 -14 346 -14 276 -14 c 0,10,11
 267 -14 267 -14 244.5 -13.5 c 128,-1,12
 222 -13 222 -13 193 -9 c 128,-1,13
 164 -5 164 -5 131.5 3 c 128,-1,14
 99 11 99 11 70 25 c 1,15,-1
 243 752 l 1,16,-1
 398 776 l 1,17,-1
 336 518 l 1,18,19
 356 527 356 527 376 532 c 128,-1,20
 396 537 396 537 419 537 c 0,0,1
289 109 m 0,21,22
 324 109 324 109 355 126 c 128,-1,23
 386 143 386 143 408.5 171.5 c 128,-1,24
 431 200 431 200 444 236 c 128,-1,25
 457 272 457 272 457 311 c 0,26,27
 457 359 457 359 441 386 c 128,-1,28
 425 413 425 413 382 413 c 0,29,30
 368 413 368 413 345.5 408 c 128,-1,31
 323 403 323 403 305 387 c 1,32,-1
 239 113 l 1,33,34
 245 112 245 112 249.5 111 c 128,-1,35
 254 110 254 110 259 109.5 c 128,-1,36
 264 109 264 109 271 109 c 128,-1,37
 278 109 278 109 289 109 c 0,21,22
EndSplineSet
Substitution2: "'case' Case-Sensitive Forms lookup 19 subtable" B
EndChar

StartChar: c
Encoding: 99 99 70
Width: 480
Flags: W
LayerCount: 2
Fore
SplineSet
100 210 m 0,0,1
 100 278 100 278 122 338 c 128,-1,2
 144 398 144 398 185 443 c 128,-1,3
 226 488 226 488 284.5 514 c 128,-1,4
 343 540 343 540 415 540 c 0,5,6
 460 540 460 540 495.5 531.5 c 128,-1,7
 531 523 531 523 560 509 c 1,8,-1
 509 393 l 1,9,10
 489 401 489 401 467.5 407.5 c 128,-1,11
 446 414 446 414 415 414 c 0,12,13
 340 414 340 414 297 363.5 c 128,-1,14
 254 313 254 313 254 226 c 0,15,16
 254 175 254 175 276 143.5 c 128,-1,17
 298 112 298 112 357 112 c 0,18,19
 386 112 386 112 413 118 c 128,-1,20
 440 124 440 124 461 133 c 1,21,-1
 472 14 l 1,22,23
 444 3 444 3 410.5 -5.5 c 128,-1,24
 377 -14 377 -14 329 -14 c 0,25,26
 267 -14 267 -14 224 4 c 128,-1,27
 181 22 181 22 153 52.5 c 128,-1,28
 125 83 125 83 112.5 124 c 128,-1,29
 100 165 100 165 100 210 c 0,0,1
EndSplineSet
Substitution2: "'case' Case-Sensitive Forms lookup 19 subtable" C
EndChar

StartChar: d
Encoding: 100 100 71
Width: 590
Flags: W
LayerCount: 2
Fore
SplineSet
287 -14 m 0,0,1
 237 -14 237 -14 201.5 3 c 128,-1,2
 166 20 166 20 143.5 49.5 c 128,-1,3
 121 79 121 79 110.5 118.5 c 128,-1,4
 100 158 100 158 100 203 c 0,5,6
 100 271 100 271 124.5 331.5 c 128,-1,7
 149 392 149 392 192 437 c 128,-1,8
 235 482 235 482 294 508 c 128,-1,9
 353 534 353 534 423 534 c 0,10,11
 441 534 441 534 456.5 532 c 128,-1,12
 472 530 472 530 488 526 c 1,13,-1
 542 752 l 1,14,-1
 697 776 l 1,15,-1
 565 227 l 2,16,17
 551 170 551 170 557 112.5 c 128,-1,18
 563 55 563 55 580 10 c 1,19,-1
 447 -9 l 1,20,21
 441 3 441 3 436 14 c 128,-1,22
 431 25 431 25 426 39 c 1,23,24
 398 16 398 16 363.5 1 c 128,-1,25
 329 -14 329 -14 287 -14 c 0,0,1
459 407 m 1,26,27
 453 408 453 408 448.5 409 c 128,-1,28
 444 410 444 410 439.5 410.5 c 128,-1,29
 435 411 435 411 428 411 c 128,-1,30
 421 411 421 411 410 411 c 0,31,32
 375 411 375 411 345 394.5 c 128,-1,33
 315 378 315 378 293.5 350 c 128,-1,34
 272 322 272 322 260 286.5 c 128,-1,35
 248 251 248 251 248 214 c 0,36,37
 248 166 248 166 264.5 138.5 c 128,-1,38
 281 111 281 111 324 111 c 0,39,40
 347 111 347 111 366 120 c 128,-1,41
 385 129 385 129 406 150 c 1,42,43
 408 175 408 175 412.5 202.5 c 128,-1,44
 417 230 417 230 422 253 c 2,45,-1
 459 407 l 1,26,27
EndSplineSet
Substitution2: "'case' Case-Sensitive Forms lookup 19 subtable" D
EndChar

StartChar: e
Encoding: 101 101 72
Width: 530
Flags: W
LayerCount: 2
Fore
SplineSet
100 206 m 0,0,1
 100 270 100 270 122.5 330 c 128,-1,2
 145 390 145 390 186 436.5 c 128,-1,3
 227 483 227 483 285.5 511.5 c 128,-1,4
 344 540 344 540 415 540 c 0,5,6
 450 540 450 540 480 530 c 128,-1,7
 510 520 510 520 532.5 501 c 128,-1,8
 555 482 555 482 567.5 454.5 c 128,-1,9
 580 427 580 427 580 392 c 0,10,11
 580 336 580 336 555 297 c 128,-1,12
 530 258 530 258 485.5 233.5 c 128,-1,13
 441 209 441 209 380 198 c 128,-1,14
 319 187 319 187 247 187 c 1,15,16
 254 145 254 145 277.5 127.5 c 128,-1,17
 301 110 301 110 352 110 c 0,18,19
 384 110 384 110 417 115.5 c 128,-1,20
 450 121 450 121 479 132 c 1,21,-1
 490 15 l 1,22,23
 462 4 462 4 418.5 -5 c 128,-1,24
 375 -14 375 -14 324 -14 c 0,25,26
 262 -14 262 -14 219.5 3.5 c 128,-1,27
 177 21 177 21 150.5 51 c 128,-1,28
 124 81 124 81 112 121 c 128,-1,29
 100 161 100 161 100 206 c 0,0,1
391 422 m 0,30,31
 340 422 340 422 301.5 385.5 c 128,-1,32
 263 349 263 349 251 289 c 1,33,34
 313 291 313 291 351 299.5 c 128,-1,35
 389 308 389 308 410 320 c 128,-1,36
 431 332 431 332 438 346 c 128,-1,37
 445 360 445 360 445 374 c 0,38,39
 445 422 445 422 391 422 c 0,30,31
EndSplineSet
Substitution2: "'case' Case-Sensitive Forms lookup 19 subtable" E
EndChar

StartChar: f
Encoding: 102 102 73
Width: 438
Flags: W
LayerCount: 2
Fore
SplineSet
479 776 m 0,0,1
 524 776 524 776 557.5 766.5 c 128,-1,2
 591 757 591 757 608 749 c 1,3,-1
 558 632 l 1,4,5
 540 641 540 641 516.5 645.5 c 128,-1,6
 493 650 493 650 473 650 c 0,7,8
 418 650 418 650 391.5 622 c 128,-1,9
 365 594 365 594 355 552 c 2,10,-1
 349 526 l 1,11,-1
 525 526 l 1,12,-1
 495 404 l 1,13,-1
 320 404 l 1,14,-1
 259 149 l 2,15,16
 225 6 225 6 185 -73.5 c 128,-1,17
 145 -153 145 -153 97 -189 c 1,18,-1
 -36 -170 l 1,19,20
 -10 -146 -10 -146 12 -111 c 128,-1,21
 34 -76 34 -76 51.5 -37 c 128,-1,22
 69 2 69 2 81.5 42.5 c 128,-1,23
 94 83 94 83 102 118 c 2,24,-1
 206 554 l 2,25,26
 231 660 231 660 296 718 c 128,-1,27
 361 776 361 776 479 776 c 0,0,1
EndSplineSet
Substitution2: "'case' Case-Sensitive Forms lookup 19 subtable" F
EndChar

StartChar: g
Encoding: 103 103 74
Width: 567
Flags: W
LayerCount: 2
Fore
SplineSet
524 66 m 2,0,1
 509 1 509 1 484.5 -46.5 c 128,-1,2
 460 -94 460 -94 423.5 -125.5 c 128,-1,3
 387 -157 387 -157 336 -172.5 c 128,-1,4
 285 -188 285 -188 217 -188 c 0,5,6
 154 -188 154 -188 111 -176.5 c 128,-1,7
 68 -165 68 -165 33 -148 c 1,8,-1
 83 -30 l 1,9,10
 114 -44 114 -44 147.5 -54 c 128,-1,11
 181 -64 181 -64 230 -64 c 0,12,13
 294 -64 294 -64 326.5 -35.5 c 128,-1,14
 359 -7 359 -7 369 38 c 2,15,-1
 373 57 l 1,16,17
 353 47 353 47 330.5 41 c 128,-1,18
 308 35 308 35 283 35 c 0,19,20
 236 35 236 35 202 49.5 c 128,-1,21
 168 64 168 64 146.5 90 c 128,-1,22
 125 116 125 116 114.5 151.5 c 128,-1,23
 104 187 104 187 104 229 c 0,24,25
 104 305 104 305 132 363.5 c 128,-1,26
 160 422 160 422 206.5 461 c 128,-1,27
 253 500 253 500 313.5 520 c 128,-1,28
 374 540 374 540 440 540 c 0,29,30
 488 540 488 540 535 530 c 128,-1,31
 582 520 582 520 627 499 c 1,32,-1
 524 66 l 2,0,1
458 411 m 1,33,34
 441 415 441 415 416 415 c 0,35,36
 378 415 378 415 348 401.5 c 128,-1,37
 318 388 318 388 296.5 365 c 128,-1,38
 275 342 275 342 263.5 309.5 c 128,-1,39
 252 277 252 277 252 240 c 0,40,41
 252 222 252 222 255 206.5 c 128,-1,42
 258 191 258 191 266 179.5 c 128,-1,43
 274 168 274 168 288 161 c 128,-1,44
 302 154 302 154 323 154 c 0,45,46
 337 154 337 154 360.5 159 c 128,-1,47
 384 164 384 164 403 182 c 1,48,-1
 458 411 l 1,33,34
EndSplineSet
Substitution2: "'case' Case-Sensitive Forms lookup 19 subtable" G
EndChar

StartChar: h
Encoding: 104 104 75
Width: 565
Flags: W
LayerCount: 2
Fore
SplineSet
425 535 m 0,0,1
 468 535 468 535 499 522.5 c 128,-1,2
 530 510 530 510 550 487.5 c 128,-1,3
 570 465 570 465 580 434 c 128,-1,4
 590 403 590 403 590 367 c 0,5,6
 590 325 590 325 580 284 c 2,7,-1
 512 0 l 1,8,-1
 363 0 l 1,9,-1
 429 278 l 2,10,11
 433 295 433 295 436.5 314 c 128,-1,12
 440 333 440 333 440 350 c 0,13,14
 440 376 440 376 426.5 394.5 c 128,-1,15
 413 413 413 413 375 413 c 0,16,17
 359 413 359 413 344.5 411 c 128,-1,18
 330 409 330 409 316 406 c 1,19,-1
 219 0 l 1,20,-1
 70 0 l 1,21,-1
 250 752 l 1,22,-1
 405 776 l 1,23,-1
 344 525 l 1,24,25
 364 529 364 529 384.5 532 c 128,-1,26
 405 535 405 535 425 535 c 0,0,1
EndSplineSet
Substitution2: "'case' Case-Sensitive Forms lookup 19 subtable" H
EndChar

StartChar: i
Encoding: 105 105 76
Width: 283
Flags: W
LayerCount: 2
Fore
SplineSet
218 0 m 1,0,-1
 70 0 l 1,1,-1
 195 526 l 1,2,-1
 344 526 l 1,3,-1
 218 0 l 1,0,-1
290 590 m 0,4,5
 259 590 259 590 234 608.5 c 128,-1,6
 209 627 209 627 209 665 c 0,7,8
 209 686 209 686 217.5 704.5 c 128,-1,9
 226 723 226 723 240 736.5 c 128,-1,10
 254 750 254 750 272.5 758 c 128,-1,11
 291 766 291 766 312 766 c 0,12,13
 343 766 343 766 368 747.5 c 128,-1,14
 393 729 393 729 393 691 c 0,15,16
 393 670 393 670 384.5 651.5 c 128,-1,17
 376 633 376 633 362 619.5 c 128,-1,18
 348 606 348 606 329.5 598 c 128,-1,19
 311 590 311 590 290 590 c 0,4,5
EndSplineSet
Substitution2: "'case' Case-Sensitive Forms lookup 19 subtable" I
Substitution2: "'locl' Localized Forms in Latin lookup 2 subtable" i.locl
Substitution2: "'locl' Localized Forms in Latin lookup 1 subtable" i.locl
Substitution2: "'locl' Localized Forms in Latin lookup 0 subtable" i.locl
EndChar

StartChar: j
Encoding: 106 106 77
Width: 290
Flags: W
LayerCount: 2
Fore
SplineSet
15 -185 m 0,0,1
 -13 -185 -13 -185 -40.5 -179.5 c 128,-1,2
 -68 -174 -68 -174 -90 -166 c 1,3,-1
 -52 -48 l 1,4,5
 -38 -53 -38 -53 -24.5 -56 c 128,-1,6
 -11 -59 -11 -59 6 -59 c 0,7,8
 41 -59 41 -59 60 -38 c 128,-1,9
 79 -17 79 -17 87 23 c 2,10,-1
 208 526 l 1,11,-1
 357 526 l 1,12,-1
 235 19 l 2,13,14
 211 -85 211 -85 160 -135 c 128,-1,15
 109 -185 109 -185 15 -185 c 0,0,1
303 590 m 0,16,17
 272 590 272 590 247 608.5 c 128,-1,18
 222 627 222 627 222 665 c 0,19,20
 222 686 222 686 230.5 704.5 c 128,-1,21
 239 723 239 723 253 736.5 c 128,-1,22
 267 750 267 750 285.5 758 c 128,-1,23
 304 766 304 766 325 766 c 0,24,25
 356 766 356 766 381 747.5 c 128,-1,26
 406 729 406 729 406 691 c 0,27,28
 406 670 406 670 397.5 651.5 c 128,-1,29
 389 633 389 633 375 619.5 c 128,-1,30
 361 606 361 606 342.5 598 c 128,-1,31
 324 590 324 590 303 590 c 0,16,17
EndSplineSet
Substitution2: "'case' Case-Sensitive Forms lookup 19 subtable" J
EndChar

StartChar: k
Encoding: 107 107 78
Width: 561
Flags: W
LayerCount: 2
Fore
SplineSet
299 336 m 1,0,1
 359 384 359 384 412 434 c 128,-1,2
 465 484 465 484 503 526 c 1,3,-1
 671 526 l 1,4,5
 615 464 615 464 554.5 404.5 c 128,-1,6
 494 345 494 345 416 278 c 1,7,8
 437 252 437 252 458.5 218 c 128,-1,9
 480 184 480 184 499.5 147 c 128,-1,10
 519 110 519 110 535.5 72 c 128,-1,11
 552 34 552 34 563 0 c 1,12,-1
 397 0 l 1,13,14
 388 26 388 26 374.5 57 c 128,-1,15
 361 88 361 88 344.5 118.5 c 128,-1,16
 328 149 328 149 310 178 c 128,-1,17
 292 207 292 207 274 230 c 1,18,-1
 218 0 l 1,19,-1
 70 0 l 1,20,-1
 250 752 l 1,21,-1
 405 776 l 1,22,-1
 299 336 l 1,0,1
EndSplineSet
Substitution2: "'case' Case-Sensitive Forms lookup 19 subtable" K
EndChar

StartChar: l
Encoding: 108 108 79
Width: 315
Flags: W
LayerCount: 2
Fore
SplineSet
288 -10 m 1,0,1
 217 -10 217 -10 176.5 8.5 c 128,-1,2
 136 27 136 27 118.5 59 c 128,-1,3
 101 91 101 91 101.5 132.5 c 128,-1,4
 102 174 102 174 113 221 c 2,5,-1
 240 752 l 1,6,-1
 395 776 l 1,7,-1
 256 200 l 2,8,9
 252 182 252 182 251.5 167 c 128,-1,10
 251 152 251 152 257 140.5 c 128,-1,11
 263 129 263 129 277.5 122 c 128,-1,12
 292 115 292 115 318 113 c 1,13,-1
 288 -10 l 1,0,1
EndSplineSet
Substitution2: "'case' Case-Sensitive Forms lookup 19 subtable" L
EndChar

StartChar: m
Encoding: 109 109 80
Width: 846
Flags: W
LayerCount: 2
Fore
SplineSet
191 502 m 1,0,1
 208 507 208 507 227.5 513.5 c 128,-1,2
 247 520 247 520 271.5 525.5 c 128,-1,3
 296 531 296 531 326.5 534.5 c 128,-1,4
 357 538 357 538 397 538 c 0,5,6
 445 538 445 538 476.5 526 c 128,-1,7
 508 514 508 514 534 490 c 1,8,9
 571 511 571 511 607.5 524.5 c 128,-1,10
 644 538 644 538 693 538 c 0,11,12
 740 538 740 538 773.5 525.5 c 128,-1,13
 807 513 807 513 829 489.5 c 128,-1,14
 851 466 851 466 861 433.5 c 128,-1,15
 871 401 871 401 871 362 c 0,16,17
 871 344 871 344 868.5 324 c 128,-1,18
 866 304 866 304 861 284 c 2,19,-1
 793 0 l 1,20,-1
 644 0 l 1,21,-1
 710 278 l 2,22,23
 713 292 713 292 716.5 309.5 c 128,-1,24
 720 327 720 327 720 344 c 0,25,26
 720 372 720 372 707 392.5 c 128,-1,27
 694 413 694 413 656 413 c 0,28,29
 635 413 635 413 616 405.5 c 128,-1,30
 597 398 597 398 582 390 c 1,31,32
 584 382 584 382 584 375 c 128,-1,33
 584 368 584 368 584 362 c 0,34,35
 584 344 584 344 581.5 324 c 128,-1,36
 579 304 579 304 574 284 c 2,37,-1
 506 0 l 1,38,-1
 357 0 l 1,39,-1
 423 278 l 2,40,41
 426 292 426 292 429.5 309.5 c 128,-1,42
 433 327 433 327 433 344 c 0,43,44
 433 372 433 372 420 392.5 c 128,-1,45
 407 413 407 413 369 413 c 0,46,47
 353 413 353 413 342 411.5 c 128,-1,48
 331 410 331 410 316 407 c 1,49,-1
 219 0 l 1,50,-1
 70 0 l 1,51,-1
 191 502 l 1,0,1
EndSplineSet
Substitution2: "'case' Case-Sensitive Forms lookup 19 subtable" M
EndChar

StartChar: n
Encoding: 110 110 81
Width: 567
Flags: W
LayerCount: 2
Fore
SplineSet
191 502 m 1,0,1
 208 507 208 507 228.5 513.5 c 128,-1,2
 249 520 249 520 274.5 525.5 c 128,-1,3
 300 531 300 531 331.5 534.5 c 128,-1,4
 363 538 363 538 403 538 c 0,5,6
 521 538 521 538 565 470 c 128,-1,7
 609 402 609 402 580 284 c 2,8,-1
 512 0 l 1,9,-1
 363 0 l 1,10,-1
 429 278 l 2,11,12
 435 304 435 304 438.5 328.5 c 128,-1,13
 442 353 442 353 438 371.5 c 128,-1,14
 434 390 434 390 419.5 401.5 c 128,-1,15
 405 413 405 413 375 413 c 0,16,17
 346 413 346 413 316 407 c 1,18,-1
 219 0 l 1,19,-1
 70 0 l 1,20,-1
 191 502 l 1,0,1
EndSplineSet
Substitution2: "'case' Case-Sensitive Forms lookup 19 subtable" N
EndChar

StartChar: o
Encoding: 111 111 82
Width: 574
Flags: W
LayerCount: 2
Fore
SplineSet
308 -14 m 0,0,1
 255 -14 255 -14 216 2 c 128,-1,2
 177 18 177 18 151.5 47 c 128,-1,3
 126 76 126 76 113 115.5 c 128,-1,4
 100 155 100 155 100 203 c 0,5,6
 100 263 100 263 119.5 323 c 128,-1,7
 139 383 139 383 177 431 c 128,-1,8
 215 479 215 479 270 509.5 c 128,-1,9
 325 540 325 540 396 540 c 0,10,11
 448 540 448 540 487.5 524 c 128,-1,12
 527 508 527 508 552.5 479 c 128,-1,13
 578 450 578 450 591 410.5 c 128,-1,14
 604 371 604 371 604 323 c 0,15,16
 604 263 604 263 585 203 c 128,-1,17
 566 143 566 143 529 95 c 128,-1,18
 492 47 492 47 436.5 16.5 c 128,-1,19
 381 -14 381 -14 308 -14 c 0,0,1
382 414 m 0,20,21
 349 414 349 414 324 395 c 128,-1,22
 299 376 299 376 282 347 c 128,-1,23
 265 318 265 318 256.5 283.5 c 128,-1,24
 248 249 248 249 248 218 c 0,25,26
 248 167 248 167 264 139.5 c 128,-1,27
 280 112 280 112 322 112 c 0,28,29
 355 112 355 112 380 131 c 128,-1,30
 405 150 405 150 422 179 c 128,-1,31
 439 208 439 208 447.5 242.5 c 128,-1,32
 456 277 456 277 456 308 c 0,33,34
 456 359 456 359 440 386.5 c 128,-1,35
 424 414 424 414 382 414 c 0,20,21
EndSplineSet
Substitution2: "'case' Case-Sensitive Forms lookup 19 subtable" O
Substitution2: "'ordn' Ordinals in Latin lookup 9 subtable" ordmasculine
EndChar

StartChar: p
Encoding: 112 112 83
Width: 578
Flags: W
LayerCount: 2
Fore
SplineSet
245 116 m 1,0,1
 262 112 262 112 287 112 c 0,2,3
 326 112 326 112 358 126.5 c 128,-1,4
 390 141 390 141 412.5 167 c 128,-1,5
 435 193 435 193 447.5 229.5 c 128,-1,6
 460 266 460 266 460 310 c 0,7,8
 460 353 460 353 441 383 c 128,-1,9
 422 413 422 413 375 413 c 0,10,11
 343 413 343 413 315 407 c 1,12,-1
 245 116 l 1,0,1
608 321 m 0,13,14
 608 248 608 248 584 187.5 c 128,-1,15
 560 127 560 127 517.5 83 c 128,-1,16
 475 39 475 39 415.5 14.5 c 128,-1,17
 356 -10 356 -10 286 -10 c 0,18,19
 252 -10 252 -10 218 -4 c 1,20,-1
 173 -185 l 1,21,-1
 25 -185 l 1,22,-1
 191 507 l 1,23,24
 231 519 231 519 282.5 528.5 c 128,-1,25
 334 538 334 538 394 538 c 0,26,27
 450 538 450 538 490.5 521 c 128,-1,28
 531 504 531 504 557 474.5 c 128,-1,29
 583 445 583 445 595.5 405.5 c 128,-1,30
 608 366 608 366 608 321 c 0,13,14
EndSplineSet
Substitution2: "'case' Case-Sensitive Forms lookup 19 subtable" P
EndChar

StartChar: q
Encoding: 113 113 84
Width: 573
Flags: W
LayerCount: 2
Fore
SplineSet
100 204 m 0,0,1
 100 282 100 282 126.5 344 c 128,-1,2
 153 406 153 406 199.5 449 c 128,-1,3
 246 492 246 492 308 515 c 128,-1,4
 370 538 370 538 442 538 c 0,5,6
 535 538 535 538 633 499 c 1,7,-1
 470 -185 l 1,8,-1
 321 -185 l 1,9,-1
 367 9 l 1,10,11
 323 -10 323 -10 277 -10 c 0,12,13
 239 -10 239 -10 206.5 4.5 c 128,-1,14
 174 19 174 19 150.5 46.5 c 128,-1,15
 127 74 127 74 113.5 114 c 128,-1,16
 100 154 100 154 100 204 c 0,0,1
464 411 m 1,17,18
 454 413 454 413 443 414 c 128,-1,19
 432 415 432 415 421 415 c 0,20,21
 380 415 380 415 348 399 c 128,-1,22
 316 383 316 383 293.5 355.5 c 128,-1,23
 271 328 271 328 259.5 291.5 c 128,-1,24
 248 255 248 255 248 215 c 0,25,26
 248 158 248 158 267 136 c 128,-1,27
 286 114 286 114 319 114 c 0,28,29
 338 114 338 114 356.5 119.5 c 128,-1,30
 375 125 375 125 398 139 c 1,31,-1
 464 411 l 1,17,18
EndSplineSet
Substitution2: "'case' Case-Sensitive Forms lookup 19 subtable" Q
EndChar

StartChar: r
Encoding: 114 114 85
Width: 426
Flags: W
LayerCount: 2
Fore
SplineSet
472 398 m 1,0,1
 452 403 452 403 432.5 407.5 c 128,-1,2
 413 412 413 412 375 412 c 0,3,4
 361 412 361 412 344 409.5 c 128,-1,5
 327 407 327 407 316 404 c 1,6,-1
 219 0 l 1,7,-1
 70 0 l 1,8,-1
 190 498 l 1,9,10
 233 512 233 512 286.5 524.5 c 128,-1,11
 340 537 340 537 407 537 c 0,12,13
 432 537 432 537 462.5 532.5 c 128,-1,14
 493 528 493 528 516 518 c 1,15,-1
 472 398 l 1,0,1
EndSplineSet
Substitution2: "'case' Case-Sensitive Forms lookup 19 subtable" R
EndChar

StartChar: s
Encoding: 115 115 86
Width: 483
Flags: W
LayerCount: 2
Fore
SplineSet
241 106 m 256,0,1
 292 106 292 106 311 120.5 c 128,-1,2
 330 135 330 135 330 152 c 0,3,4
 330 163 330 163 326.5 171 c 128,-1,5
 323 179 323 179 315 186 c 128,-1,6
 307 193 307 193 293 200.5 c 128,-1,7
 279 208 279 208 257 218 c 0,8,9
 232 229 232 229 210 241.5 c 128,-1,10
 188 254 188 254 171.5 271.5 c 128,-1,11
 155 289 155 289 145.5 311.5 c 128,-1,12
 136 334 136 334 136 365 c 0,13,14
 136 446 136 446 195.5 493 c 128,-1,15
 255 540 255 540 369 540 c 0,16,17
 423 540 423 540 465 528 c 128,-1,18
 507 516 507 516 533 502 c 1,19,-1
 482 391 l 1,20,21
 461 402 461 402 428 412 c 128,-1,22
 395 422 395 422 363 422 c 0,23,24
 349 422 349 422 335.5 420.5 c 128,-1,25
 322 419 322 419 310.5 414 c 128,-1,26
 299 409 299 409 292 400 c 128,-1,27
 285 391 285 391 285 376 c 0,28,29
 285 356 285 356 300.5 346 c 128,-1,30
 316 336 316 336 344 322 c 0,31,32
 383 303 383 303 409 287 c 128,-1,33
 435 271 435 271 450.5 253 c 128,-1,34
 466 235 466 235 473 212 c 128,-1,35
 480 189 480 189 480 158 c 0,36,37
 480 126 480 126 466.5 95 c 128,-1,38
 453 64 453 64 424 40 c 128,-1,39
 395 16 395 16 350 1 c 128,-1,40
 305 -14 305 -14 242 -14 c 0,41,42
 203 -14 203 -14 171.5 -9 c 128,-1,43
 140 -4 140 -4 116 3.5 c 128,-1,44
 92 11 92 11 75.5 19 c 128,-1,45
 59 27 59 27 50 32 c 1,46,-1
 101 146 l 1,47,48
 118 136 118 136 154 121 c 128,-1,49
 190 106 190 106 241 106 c 256,0,1
EndSplineSet
Substitution2: "'case' Case-Sensitive Forms lookup 19 subtable" S
EndChar

StartChar: t
Encoding: 116 116 87
Width: 416
Flags: W
LayerCount: 2
Fore
SplineSet
213 657 m 1,0,-1
 368 681 l 1,1,-1
 330 526 l 1,2,-1
 496 526 l 1,3,-1
 466 404 l 1,4,-1
 301 404 l 1,5,-1
 257 220 l 2,6,7
 251 197 251 197 249.5 177 c 128,-1,8
 248 157 248 157 254.5 142.5 c 128,-1,9
 261 128 261 128 277 120 c 128,-1,10
 293 112 293 112 321 112 c 0,11,12
 345 112 345 112 367.5 116.5 c 128,-1,13
 390 121 390 121 413 129 c 1,14,-1
 424 15 l 1,15,16
 394 4 394 4 359 -4 c 128,-1,17
 324 -12 324 -12 276 -12 c 0,18,19
 207 -12 207 -12 169 8.5 c 128,-1,20
 131 29 131 29 115 64.5 c 128,-1,21
 99 100 99 100 101 146 c 128,-1,22
 103 192 103 192 115 243 c 2,23,-1
 213 657 l 1,0,-1
EndSplineSet
Substitution2: "'case' Case-Sensitive Forms lookup 19 subtable" T
EndChar

StartChar: u
Encoding: 117 117 88
Width: 581
Flags: W
LayerCount: 2
Fore
SplineSet
621 526 m 1,0,-1
 550 227 l 2,1,2
 536 170 536 170 542 112.5 c 128,-1,3
 548 55 548 55 565 10 c 1,4,-1
 432 -9 l 1,5,6
 421 13 421 13 411 40 c 1,7,8
 383 18 383 18 348 3 c 128,-1,9
 313 -12 313 -12 270 -12 c 0,10,11
 211 -12 211 -12 174.5 9.5 c 128,-1,12
 138 31 138 31 120 66.5 c 128,-1,13
 102 102 102 102 100.5 148 c 128,-1,14
 99 194 99 194 111 242 c 2,15,-1
 179 526 l 1,16,-1
 328 526 l 1,17,-1
 261 244 l 2,18,19
 256 222 256 222 252.5 199 c 128,-1,20
 249 176 249 176 252 156.5 c 128,-1,21
 255 137 255 137 267.5 124.5 c 128,-1,22
 280 112 280 112 307 112 c 0,23,24
 330 112 330 112 349.5 120.5 c 128,-1,25
 369 129 369 129 391 150 c 1,26,27
 393 175 393 175 397.5 202.5 c 128,-1,28
 402 230 402 230 407 253 c 2,29,-1
 472 526 l 1,30,-1
 621 526 l 1,0,-1
EndSplineSet
Substitution2: "'case' Case-Sensitive Forms lookup 19 subtable" U
EndChar

StartChar: v
Encoding: 118 118 89
Width: 546
Flags: W
LayerCount: 2
Fore
SplineSet
201 0 m 1,0,1
 175 100 175 100 154 233.5 c 128,-1,2
 133 367 133 367 125 526 c 1,3,-1
 279 526 l 1,4,5
 280 487 280 487 282 440.5 c 128,-1,6
 284 394 284 394 287 347 c 128,-1,7
 290 300 290 300 294 255.5 c 128,-1,8
 298 211 298 211 303 175 c 1,9,10
 325 205 325 205 352.5 249 c 128,-1,11
 380 293 380 293 406 341 c 128,-1,12
 432 389 432 389 454 437.5 c 128,-1,13
 476 486 476 486 488 526 c 1,14,-1
 646 526 l 1,15,16
 620 455 620 455 581.5 380 c 128,-1,17
 543 305 543 305 499 235 c 128,-1,18
 455 165 455 165 409.5 104 c 128,-1,19
 364 43 364 43 325 0 c 1,20,-1
 201 0 l 1,0,1
EndSplineSet
Substitution2: "'case' Case-Sensitive Forms lookup 19 subtable" V
EndChar

StartChar: w
Encoding: 119 119 90
Width: 816
Flags: W
LayerCount: 2
Fore
SplineSet
482 308 m 1,0,1
 463 267 463 267 439.5 224.5 c 128,-1,2
 416 182 416 182 391.5 141.5 c 128,-1,3
 367 101 367 101 344 64.5 c 128,-1,4
 321 28 321 28 303 0 c 1,5,-1
 187 0 l 1,6,7
 179 42 179 42 170.5 100 c 128,-1,8
 162 158 162 158 154 226.5 c 128,-1,9
 146 295 146 295 139.5 371.5 c 128,-1,10
 133 448 133 448 130 526 c 1,11,-1
 276 526 l 1,12,13
 276 490 276 490 276.5 448 c 128,-1,14
 277 406 277 406 278.5 361 c 128,-1,15
 280 316 280 316 283 269 c 128,-1,16
 286 222 286 222 291 176 c 1,17,18
 316 218 316 218 340.5 263.5 c 128,-1,19
 365 309 365 309 387.5 354.5 c 128,-1,20
 410 400 410 400 429.5 444 c 128,-1,21
 449 488 449 488 464 526 c 1,22,-1
 588 526 l 1,23,24
 588 454 588 454 590.5 365 c 128,-1,25
 593 276 593 276 603 176 c 1,26,27
 630 221 630 221 653 268.5 c 128,-1,28
 676 316 676 316 695.5 362 c 128,-1,29
 715 408 715 408 730.5 450 c 128,-1,30
 746 492 746 492 758 526 c 1,31,-1
 916 526 l 1,32,33
 896 476 896 476 868.5 413.5 c 128,-1,34
 841 351 841 351 805 282 c 128,-1,35
 769 213 769 213 724 141 c 128,-1,36
 679 69 679 69 624 0 c 1,37,-1
 508 0 l 1,38,39
 496 82 496 82 490 157 c 128,-1,40
 484 232 484 232 482 308 c 1,0,1
EndSplineSet
Substitution2: "'case' Case-Sensitive Forms lookup 19 subtable" W
EndChar

StartChar: x
Encoding: 120 120 91
Width: 549
Flags: W
LayerCount: 2
Fore
SplineSet
281 526 m 1,0,-1
 357 362 l 1,1,2
 391 404 391 404 421.5 444 c 128,-1,3
 452 484 452 484 480 526 c 1,4,-1
 629 526 l 1,5,6
 587 466 587 466 537 401.5 c 128,-1,7
 487 337 487 337 421 267 c 1,8,9
 461 192 461 192 489 128.5 c 128,-1,10
 517 65 517 65 539 0 c 1,11,-1
 392 0 l 1,12,13
 374 49 374 49 356 90 c 128,-1,14
 338 131 338 131 321 166 c 1,15,-1
 176 0 l 1,16,-1
 20 0 l 1,17,-1
 259 268 l 1,18,-1
 130 526 l 1,19,-1
 281 526 l 1,0,-1
EndSplineSet
Substitution2: "'case' Case-Sensitive Forms lookup 19 subtable" X
EndChar

StartChar: y
Encoding: 121 121 92
Width: 532
Flags: W
LayerCount: 2
Fore
SplineSet
632 526 m 1,0,1
 604 450 604 450 575.5 384 c 128,-1,2
 547 318 547 318 516 258.5 c 128,-1,3
 485 199 485 199 452 145 c 128,-1,4
 419 91 419 91 382 38 c 0,5,6
 355 -1 355 -1 326 -41 c 128,-1,7
 297 -81 297 -81 261.5 -113 c 128,-1,8
 226 -145 226 -145 182.5 -165 c 128,-1,9
 139 -185 139 -185 82 -185 c 0,10,11
 47 -185 47 -185 22 -178.5 c 128,-1,12
 -3 -172 -3 -172 -25 -161 c 1,13,-1
 20 -44 l 1,14,15
 40 -52 40 -52 56 -56.5 c 128,-1,16
 72 -61 72 -61 95 -61 c 0,17,18
 130 -61 130 -61 161.5 -38.5 c 128,-1,19
 193 -16 193 -16 214 22 c 1,20,21
 188 122 188 122 166.5 246 c 128,-1,22
 145 370 145 370 137 526 c 1,23,-1
 290 526 l 1,24,25
 291 487 291 487 294 440 c 128,-1,26
 297 393 297 393 301 345.5 c 128,-1,27
 305 298 305 298 310 253 c 128,-1,28
 315 208 315 208 321 172 c 1,29,30
 369 244 369 244 405.5 332 c 128,-1,31
 442 420 442 420 474 526 c 1,32,-1
 632 526 l 1,0,1
EndSplineSet
Substitution2: "'case' Case-Sensitive Forms lookup 19 subtable" Y
EndChar

StartChar: z
Encoding: 122 122 93
Width: 526
Flags: W
LayerCount: 2
Fore
SplineSet
582 427 m 1,0,1
 559 407 559 407 522 372.5 c 128,-1,2
 485 338 485 338 442 296.5 c 128,-1,3
 399 255 399 255 354 209.5 c 128,-1,4
 309 164 309 164 270 122 c 1,5,-1
 514 122 l 1,6,-1
 484 0 l 1,7,-1
 60 0 l 1,8,-1
 81 87 l 1,9,10
 110 123 110 123 147.5 165 c 128,-1,11
 185 207 185 207 225.5 250 c 128,-1,12
 266 293 266 293 306.5 332.5 c 128,-1,13
 347 372 347 372 382 404 c 1,14,-1
 168 404 l 1,15,-1
 198 526 l 1,16,-1
 606 526 l 1,17,-1
 582 427 l 1,0,1
EndSplineSet
Substitution2: "'case' Case-Sensitive Forms lookup 19 subtable" Z
EndChar

StartChar: braceleft
Encoding: 123 123 94
Width: 371
Flags: W
LayerCount: 2
Fore
SplineSet
109 358 m 1,0,1
 140 358 140 358 162 365 c 128,-1,2
 184 372 184 372 199 384.5 c 128,-1,3
 214 397 214 397 222.5 414 c 128,-1,4
 231 431 231 431 236 452 c 2,5,-1
 272 603 l 2,6,7
 283 648 283 648 302 682 c 128,-1,8
 321 716 321 716 352 738.5 c 128,-1,9
 383 761 383 761 428.5 772 c 128,-1,10
 474 783 474 783 537 783 c 2,11,-1
 557 783 l 1,12,-1
 528 664 l 1,13,-1
 503 664 l 2,14,15
 479 664 479 664 462.5 658.5 c 128,-1,16
 446 653 446 653 435 642.5 c 128,-1,17
 424 632 424 632 417.5 617 c 128,-1,18
 411 602 411 602 407 582 c 2,19,-1
 376 449 l 2,20,21
 370 423 370 423 362 401 c 128,-1,22
 354 379 354 379 340 360 c 128,-1,23
 326 341 326 341 304.5 326 c 128,-1,24
 283 311 283 311 250 299 c 1,25,26
 285 283 285 283 298 260.5 c 128,-1,27
 311 238 311 238 311 209 c 0,28,29
 311 186 311 186 303 149 c 2,30,-1
 272 16 l 2,31,32
 266 -8 266 -8 266 -24 c 0,33,34
 266 -47 266 -47 280 -56.5 c 128,-1,35
 294 -66 294 -66 328 -66 c 2,36,-1
 353 -66 l 1,37,-1
 324 -185 l 1,38,-1
 304 -185 l 2,39,40
 216 -185 216 -185 169.5 -157.5 c 128,-1,41
 123 -130 123 -130 123 -57 c 0,42,43
 123 -27 123 -27 134 22 c 2,44,-1
 163 146 l 2,45,46
 173 194 173 194 155 217 c 128,-1,47
 137 240 137 240 80 240 c 1,48,-1
 109 358 l 1,0,1
EndSplineSet
Substitution2: "'case' Case-Sensitive Forms lookup 18 subtable" Braceleft
EndChar

StartChar: bar
Encoding: 124 124 95
Width: 304
Flags: W
LayerCount: 2
Fore
SplineSet
262 783 m 1,0,-1
 404 783 l 1,1,-1
 171 -185 l 1,2,-1
 30 -185 l 1,3,-1
 262 783 l 1,0,-1
EndSplineSet
EndChar

StartChar: braceright
Encoding: 125 125 96
Width: 371
Flags: W
LayerCount: 2
Fore
SplineSet
397 240 m 1,0,1
 366 240 366 240 344 233 c 128,-1,2
 322 226 322 226 307 213.5 c 128,-1,3
 292 201 292 201 283.5 184 c 128,-1,4
 275 167 275 167 270 146 c 2,5,-1
 234 -5 l 2,6,7
 223 -50 223 -50 204 -84 c 128,-1,8
 185 -118 185 -118 154 -140.5 c 128,-1,9
 123 -163 123 -163 77.5 -174 c 128,-1,10
 32 -185 32 -185 -31 -185 c 2,11,-1
 -51 -185 l 1,12,-1
 -22 -66 l 1,13,-1
 3 -66 l 2,14,15
 28 -66 28 -66 44 -61 c 128,-1,16
 60 -56 60 -56 70.5 -45.5 c 128,-1,17
 81 -35 81 -35 87.5 -19.5 c 128,-1,18
 94 -4 94 -4 99 16 c 2,19,-1
 130 149 l 2,20,21
 136 175 136 175 144 197 c 128,-1,22
 152 219 152 219 166 238 c 128,-1,23
 180 257 180 257 201.5 272 c 128,-1,24
 223 287 223 287 256 299 c 1,25,26
 221 315 221 315 208 337.5 c 128,-1,27
 195 360 195 360 195 389 c 0,28,29
 195 412 195 412 203 449 c 2,30,-1
 234 582 l 2,31,32
 240 606 240 606 240 622 c 0,33,34
 240 645 240 645 226 654.5 c 128,-1,35
 212 664 212 664 178 664 c 2,36,-1
 153 664 l 1,37,-1
 182 783 l 1,38,-1
 202 783 l 2,39,40
 290 783 290 783 336.5 755.5 c 128,-1,41
 383 728 383 728 383 655 c 0,42,43
 383 625 383 625 372 576 c 2,44,-1
 343 452 l 2,45,46
 333 404 333 404 351 381 c 128,-1,47
 369 358 369 358 426 358 c 1,48,-1
 397 240 l 1,0,1
EndSplineSet
Substitution2: "'case' Case-Sensitive Forms lookup 18 subtable" Braceright
EndChar

StartChar: asciitilde
Encoding: 126 126 97
Width: 568
Flags: W
LayerCount: 2
Fore
SplineSet
428 196 m 0,0,1
 395 196 395 196 370.5 208 c 128,-1,2
 346 220 346 220 326 234 c 128,-1,3
 306 248 306 248 287.5 260 c 128,-1,4
 269 272 269 272 247 272 c 0,5,6
 238 272 238 272 230.5 270 c 128,-1,7
 223 268 223 268 215 260.5 c 128,-1,8
 207 253 207 253 198 238.5 c 128,-1,9
 189 224 189 224 177 199 c 1,10,-1
 82 227 l 1,11,12
 93 261 93 261 109.5 293 c 128,-1,13
 126 325 126 325 149.5 349.5 c 128,-1,14
 173 374 173 374 203.5 388.5 c 128,-1,15
 234 403 234 403 273 403 c 0,16,17
 306 403 306 403 330.5 391 c 128,-1,18
 355 379 355 379 375 365 c 128,-1,19
 395 351 395 351 413.5 339 c 128,-1,20
 432 327 432 327 454 327 c 0,21,22
 463 327 463 327 470.5 329 c 128,-1,23
 478 331 478 331 486 338.5 c 128,-1,24
 494 346 494 346 503 360.5 c 128,-1,25
 512 375 512 375 524 400 c 1,26,-1
 619 372 l 1,27,28
 605 334 605 334 588 302 c 128,-1,29
 571 270 571 270 548.5 246.5 c 128,-1,30
 526 223 526 223 496.5 209.5 c 128,-1,31
 467 196 467 196 428 196 c 0,0,1
EndSplineSet
EndChar

StartChar: Euro
Encoding: 8364 8364 98
Width: 568
Flags: W
LayerCount: 2
Fore
SplineSet
314 218 m 1,0,1
 319 156 319 156 350 133 c 128,-1,2
 381 110 381 110 428 110 c 0,3,4
 458 110 458 110 492.5 117 c 128,-1,5
 527 124 527 124 562 135 c 1,6,-1
 568 18 l 1,7,8
 526 3 526 3 485 -5.5 c 128,-1,9
 444 -14 444 -14 402 -14 c 0,10,11
 355 -14 355 -14 313.5 -1.5 c 128,-1,12
 272 11 272 11 240 38.5 c 128,-1,13
 208 66 208 66 188.5 110.5 c 128,-1,14
 169 155 169 155 167 218 c 1,15,-1
 85 218 l 1,16,-1
 108 317 l 1,17,-1
 172 317 l 1,18,19
 174 334 174 334 177.5 350 c 128,-1,20
 181 366 181 366 185 382 c 1,21,-1
 122 382 l 1,22,-1
 146 481 l 1,23,-1
 214 481 l 1,24,25
 236 532 236 532 266.5 573.5 c 128,-1,26
 297 615 297 615 339 644.5 c 128,-1,27
 381 674 381 674 436.5 690 c 128,-1,28
 492 706 492 706 564 706 c 0,29,30
 630 706 630 706 699 683 c 1,31,-1
 640 567 l 1,32,33
 590 584 590 584 542 584 c 0,34,35
 472 584 472 584 431 556.5 c 128,-1,36
 390 529 390 529 364 481 c 1,37,-1
 599 481 l 1,38,-1
 556 382 l 1,39,-1
 330 382 l 1,40,41
 323 350 323 350 318 317 c 1,42,-1
 528 317 l 1,43,-1
 486 218 l 1,44,-1
 314 218 l 1,0,1
EndSplineSet
EndChar

StartChar: florin
Encoding: 402 402 100
Width: 438
Flags: W
LayerCount: 2
Fore
SplineSet
8 -185 m 0,0,1
 -20 -185 -20 -185 -47.5 -179.5 c 128,-1,2
 -75 -174 -75 -174 -97 -166 c 1,3,-1
 -59 -48 l 1,4,5
 -45 -53 -45 -53 -31.5 -56 c 128,-1,6
 -18 -59 -18 -59 -1 -59 c 0,7,8
 34 -59 34 -59 52 -38 c 128,-1,9
 70 -17 70 -17 80 23 c 2,10,-1
 206 554 l 2,11,12
 231 660 231 660 296 718 c 128,-1,13
 361 776 361 776 479 776 c 0,14,15
 524 776 524 776 557.5 766.5 c 128,-1,16
 591 757 591 757 608 749 c 1,17,-1
 558 632 l 1,18,19
 540 641 540 641 516.5 645.5 c 128,-1,20
 493 650 493 650 473 650 c 0,21,22
 418 650 418 650 391.5 622 c 128,-1,23
 365 594 365 594 355 552 c 2,24,-1
 349 526 l 1,25,-1
 525 526 l 1,26,-1
 495 404 l 1,27,-1
 320 404 l 1,28,-1
 228 19 l 2,29,30
 203 -85 203 -85 152.5 -135 c 128,-1,31
 102 -185 102 -185 8 -185 c 0,0,1
EndSplineSet
EndChar

StartChar: dagger
Encoding: 8224 8224 103
Width: 487
Flags: W
LayerCount: 2
Fore
SplineSet
388 376 m 1,0,-1
 333 148 l 2,1,2
 313 67 313 67 292 -2.5 c 128,-1,3
 271 -72 271 -72 243 -145 c 1,4,-1
 160 -145 l 1,5,6
 168 -72 168 -72 179.5 -2.5 c 128,-1,7
 191 67 191 67 210 148 c 2,8,-1
 265 376 l 1,9,-1
 123 376 l 1,10,-1
 153 491 l 1,11,-1
 293 491 l 1,12,-1
 341 693 l 1,13,-1
 464 693 l 1,14,-1
 416 491 l 1,15,-1
 557 491 l 1,16,-1
 527 376 l 1,17,-1
 388 376 l 1,0,-1
EndSplineSet
EndChar

StartChar: daggerdbl
Encoding: 8225 8225 104
Width: 487
Flags: W
LayerCount: 2
Fore
SplineSet
324 110 m 1,0,1
 306 41 306 41 287 -19 c 128,-1,2
 268 -79 268 -79 243 -145 c 1,3,-1
 160 -145 l 1,4,5
 166 -81 166 -81 175.5 -20 c 128,-1,6
 185 41 185 41 201 110 c 1,7,-1
 60 110 l 1,8,-1
 89 225 l 1,9,-1
 229 225 l 1,10,-1
 265 376 l 1,11,-1
 123 376 l 1,12,-1
 153 491 l 1,13,-1
 293 491 l 1,14,-1
 341 693 l 1,15,-1
 464 693 l 1,16,-1
 416 491 l 1,17,-1
 557 491 l 1,18,-1
 527 376 l 1,19,-1
 388 376 l 1,20,-1
 352 225 l 1,21,-1
 493 225 l 1,22,-1
 463 110 l 1,23,-1
 324 110 l 1,0,1
EndSplineSet
EndChar

StartChar: circumflex
Encoding: 710 710 105
Width: 398
Flags: W
LayerCount: 2
Fore
SplineSet
499 629 m 1,0,-1
 439 576 l 1,1,-1
 356 654 l 1,2,-1
 243 578 l 1,3,-1
 197 639 l 1,4,-1
 376 784 l 1,5,-1
 499 629 l 1,0,-1
EndSplineSet
EndChar

StartChar: perthousand
Encoding: 8240 8240 106
Width: 1263
Flags: W
LayerCount: 2
Fore
SplineSet
281 417 m 0,0,1
 297 417 297 417 312 426.5 c 128,-1,2
 327 436 327 436 338.5 454.5 c 128,-1,3
 350 473 350 473 357 499 c 128,-1,4
 364 525 364 525 364 558 c 0,5,6
 364 585 364 585 350.5 599.5 c 128,-1,7
 337 614 337 614 316 614 c 0,8,9
 300 614 300 614 284.5 604 c 128,-1,10
 269 594 269 594 257 576 c 128,-1,11
 245 558 245 558 237.5 531.5 c 128,-1,12
 230 505 230 505 230 472 c 0,13,14
 230 445 230 445 245 431 c 128,-1,15
 260 417 260 417 281 417 c 0,0,1
712 693 m 1,16,-1
 856 693 l 1,17,-1
 298 0 l 1,18,-1
 154 0 l 1,19,-1
 712 693 l 1,16,-1
324 709 m 0,20,21
 390 709 390 709 432 673 c 128,-1,22
 474 637 474 637 474 562 c 0,23,24
 474 505 474 505 457 460.5 c 128,-1,25
 440 416 440 416 411.5 385 c 128,-1,26
 383 354 383 354 346 337.5 c 128,-1,27
 309 321 309 321 270 321 c 0,28,29
 204 321 204 321 162 357 c 128,-1,30
 120 393 120 393 120 468 c 0,31,32
 120 525 120 525 137 569.5 c 128,-1,33
 154 614 154 614 182.5 645 c 128,-1,34
 211 676 211 676 248 692.5 c 128,-1,35
 285 709 285 709 324 709 c 0,20,21
697 80 m 0,36,37
 713 80 713 80 728 89.5 c 128,-1,38
 743 99 743 99 754.5 117.5 c 128,-1,39
 766 136 766 136 773 162 c 128,-1,40
 780 188 780 188 780 221 c 0,41,42
 780 248 780 248 766.5 262.5 c 128,-1,43
 753 277 753 277 732 277 c 0,44,45
 716 277 716 277 700.5 267 c 128,-1,46
 685 257 685 257 673 239 c 128,-1,47
 661 221 661 221 653.5 194.5 c 128,-1,48
 646 168 646 168 646 135 c 0,49,50
 646 108 646 108 661 94 c 128,-1,51
 676 80 676 80 697 80 c 0,36,37
740 372 m 0,52,53
 806 372 806 372 848 336 c 128,-1,54
 890 300 890 300 890 225 c 0,55,56
 890 168 890 168 873 123.5 c 128,-1,57
 856 79 856 79 827.5 48 c 128,-1,58
 799 17 799 17 762 0.5 c 128,-1,59
 725 -16 725 -16 686 -16 c 0,60,61
 620 -16 620 -16 578 20 c 128,-1,62
 536 56 536 56 536 131 c 0,63,64
 536 188 536 188 553 232.5 c 128,-1,65
 570 277 570 277 598.5 308 c 128,-1,66
 627 339 627 339 664 355.5 c 128,-1,67
 701 372 701 372 740 372 c 0,52,53
1133 372 m 0,68,69
 1199 372 1199 372 1241 336 c 128,-1,70
 1283 300 1283 300 1283 225 c 0,71,72
 1283 168 1283 168 1266 123.5 c 128,-1,73
 1249 79 1249 79 1220.5 48 c 128,-1,74
 1192 17 1192 17 1155 0.5 c 128,-1,75
 1118 -16 1118 -16 1079 -16 c 0,76,77
 1013 -16 1013 -16 971 20 c 128,-1,78
 929 56 929 56 929 131 c 0,79,80
 929 188 929 188 946 232.5 c 128,-1,81
 963 277 963 277 991.5 308 c 128,-1,82
 1020 339 1020 339 1057 355.5 c 128,-1,83
 1094 372 1094 372 1133 372 c 0,68,69
1125 277 m 0,84,85
 1109 277 1109 277 1093.5 267 c 128,-1,86
 1078 257 1078 257 1066 239 c 128,-1,87
 1054 221 1054 221 1046.5 194.5 c 128,-1,88
 1039 168 1039 168 1039 135 c 0,89,90
 1039 108 1039 108 1054 94 c 128,-1,91
 1069 80 1069 80 1090 80 c 0,92,93
 1106 80 1106 80 1121 89.5 c 128,-1,94
 1136 99 1136 99 1147.5 117.5 c 128,-1,95
 1159 136 1159 136 1166 162 c 128,-1,96
 1173 188 1173 188 1173 221 c 0,97,98
 1173 248 1173 248 1159.5 262.5 c 128,-1,99
 1146 277 1146 277 1125 277 c 0,84,85
EndSplineSet
EndChar

StartChar: guilsinglleft
Encoding: 8249 8249 108
Width: 343
Flags: W
LayerCount: 2
Fore
SplineSet
256 271 m 1,0,-1
 328 90 l 1,1,-1
 229 44 l 1,2,-1
 100 290 l 1,3,-1
 319 524 l 1,4,-1
 413 468 l 1,5,-1
 256 271 l 1,0,-1
EndSplineSet
Substitution2: "'case' Case-Sensitive Forms lookup 18 subtable" Guilsinglleft
EndChar

StartChar: OE
Encoding: 338 338 109
Width: 985
Flags: W
LayerCount: 2
Fore
SplineSet
546 0 m 1,0,1
 520 -4 520 -4 492.5 -6 c 128,-1,2
 465 -8 465 -8 437 -8 c 0,3,4
 378 -8 378 -8 322 4.5 c 128,-1,5
 266 17 266 17 221.5 48.5 c 128,-1,6
 177 80 177 80 150 134.5 c 128,-1,7
 123 189 123 189 123 274 c 0,8,9
 123 376 123 376 157.5 455.5 c 128,-1,10
 192 535 192 535 254 589.5 c 128,-1,11
 316 644 316 644 400.5 672 c 128,-1,12
 485 700 485 700 586 700 c 0,13,14
 612 700 612 700 643.5 698.5 c 128,-1,15
 675 697 675 697 702 693 c 1,16,-1
 1085 693 l 1,17,-1
 1053 562 l 1,18,-1
 768 562 l 1,19,-1
 736 426 l 1,20,-1
 986 426 l 1,21,-1
 955 298 l 1,22,-1
 705 298 l 1,23,-1
 665 131 l 1,24,-1
 973 131 l 1,25,-1
 941 0 l 1,26,-1
 546 0 l 1,0,1
558 570 m 0,27,28
 487 570 487 570 435 543.5 c 128,-1,29
 383 517 383 517 348.5 476 c 128,-1,30
 314 435 314 435 297.5 384 c 128,-1,31
 281 333 281 333 281 285 c 0,32,33
 281 252 281 252 290.5 222 c 128,-1,34
 300 192 300 192 320 169.5 c 128,-1,35
 340 147 340 147 371 134 c 128,-1,36
 402 121 402 121 445 121 c 0,37,38
 477 121 477 121 513 127 c 1,39,-1
 618 566 l 1,40,41
 602 568 602 568 587 569 c 128,-1,42
 572 570 572 570 558 570 c 0,27,28
EndSplineSet
EndChar

StartChar: quoteleft
Encoding: 8216 8216 110
Width: 237
Flags: W
LayerCount: 2
Fore
SplineSet
130 495 m 1,0,1
 131 509 131 509 133.5 524 c 128,-1,2
 136 539 136 539 138 546 c 0,3,4
 154 613 154 613 192.5 673.5 c 128,-1,5
 231 734 231 734 276 776 c 1,6,-1
 368 741 l 1,7,8
 333 687 333 687 308 625.5 c 128,-1,9
 283 564 283 564 275 495 c 1,10,-1
 130 495 l 1,0,1
EndSplineSet
EndChar

StartChar: quoteright
Encoding: 8217 8217 111
Width: 237
Flags: W
LayerCount: 2
Fore
SplineSet
355 767 m 1,0,1
 354 753 354 753 351.5 738 c 128,-1,2
 349 723 349 723 347 716 c 0,3,4
 331 649 331 649 292.5 588.5 c 128,-1,5
 254 528 254 528 209 486 c 1,6,-1
 120 523 l 1,7,8
 155 577 155 577 178.5 638.5 c 128,-1,9
 202 700 202 700 210 767 c 1,10,-1
 355 767 l 1,0,1
EndSplineSet
EndChar

StartChar: bullet
Encoding: 8226 8226 114
Width: 388
Flags: W
LayerCount: 2
Fore
SplineSet
408 353 m 0,0,1
 408 324 408 324 398 298.5 c 128,-1,2
 388 273 388 273 369 253.5 c 128,-1,3
 350 234 350 234 323.5 222.5 c 128,-1,4
 297 211 297 211 264 211 c 256,5,6
 231 211 231 211 204.5 222.5 c 128,-1,7
 178 234 178 234 159 253.5 c 128,-1,8
 140 273 140 273 130 298.5 c 128,-1,9
 120 324 120 324 120 353 c 0,10,11
 120 381 120 381 130 407 c 128,-1,12
 140 433 140 433 159 452.5 c 128,-1,13
 178 472 178 472 204.5 483.5 c 128,-1,14
 231 495 231 495 264 495 c 256,15,16
 297 495 297 495 323.5 483.5 c 128,-1,17
 350 472 350 472 369 452.5 c 128,-1,18
 388 433 388 433 398 407 c 128,-1,19
 408 381 408 381 408 353 c 0,0,1
EndSplineSet
Substitution2: "'case' Case-Sensitive Forms lookup 18 subtable" Bullet
EndChar

StartChar: endash
Encoding: 8211 8211 115
Width: 508
Flags: W
LayerCount: 2
Fore
SplineSet
88 361 m 1,0,-1
 588 361 l 1,1,-1
 559 237 l 1,2,-1
 60 237 l 1,3,-1
 88 361 l 1,0,-1
EndSplineSet
Substitution2: "'case' Case-Sensitive Forms lookup 18 subtable" Endash
EndChar

StartChar: emdash
Encoding: 8212 8212 116
Width: 1008
Flags: W
LayerCount: 2
Fore
SplineSet
88 361 m 1,0,-1
 1088 361 l 1,1,-1
 1059 237 l 1,2,-1
 60 237 l 1,3,-1
 88 361 l 1,0,-1
EndSplineSet
Substitution2: "'case' Case-Sensitive Forms lookup 18 subtable" Emdash
EndChar

StartChar: tilde
Encoding: 732 732 117
Width: 373
Flags: W
LayerCount: 2
Fore
SplineSet
396 607 m 0,0,1
 377 607 377 607 362 612.5 c 128,-1,2
 347 618 347 618 334 624.5 c 128,-1,3
 321 631 321 631 309 636.5 c 128,-1,4
 297 642 297 642 285 642 c 0,5,6
 271 642 271 642 259.5 634 c 128,-1,7
 248 626 248 626 231 601 c 1,8,-1
 164 642 l 1,9,10
 187 696 187 696 219 722.5 c 128,-1,11
 251 749 251 749 297 749 c 0,12,13
 316 749 316 749 331 743.5 c 128,-1,14
 346 738 346 738 359 731.5 c 128,-1,15
 372 725 372 725 384 719.5 c 128,-1,16
 396 714 396 714 408 714 c 0,17,18
 422 714 422 714 433.5 722 c 128,-1,19
 445 730 445 730 462 755 c 1,20,-1
 529 714 l 1,21,22
 506 660 506 660 474 633.5 c 128,-1,23
 442 607 442 607 396 607 c 0,0,1
EndSplineSet
EndChar

StartChar: trademark
Encoding: 8482 8482 118
Width: 854
Flags: W
LayerCount: 2
Fore
SplineSet
442 693 m 1,0,-1
 442 590 l 1,1,-1
 340 590 l 1,2,-1
 340 341 l 1,3,-1
 222 341 l 1,4,-1
 222 590 l 1,5,-1
 120 590 l 1,6,-1
 120 693 l 1,7,-1
 442 693 l 1,0,-1
881 693 m 1,8,9
 891 634 891 634 898.5 549.5 c 128,-1,10
 906 465 906 465 914 341 c 1,11,-1
 799 341 l 1,12,-1
 795 528 l 1,13,-1
 736 378 l 1,14,-1
 657 378 l 1,15,-1
 598 527 l 1,16,17
 598 495 598 495 597.5 463.5 c 128,-1,18
 597 432 597 432 596.5 406 c 128,-1,19
 596 380 596 380 595.5 362 c 128,-1,20
 595 344 595 344 595 341 c 2,21,-1
 481 341 l 1,22,23
 488 465 488 465 496 549.5 c 128,-1,24
 504 634 504 634 512 693 c 1,25,-1
 618 693 l 1,26,27
 639 648 639 648 658 601.5 c 128,-1,28
 677 555 677 555 697 510 c 1,29,30
 717 555 717 555 737.5 605 c 128,-1,31
 758 655 758 655 774 693 c 1,32,-1
 881 693 l 1,8,9
EndSplineSet
EndChar

StartChar: guilsinglright
Encoding: 8250 8250 120
Width: 344
Flags: W
LayerCount: 2
Fore
SplineSet
218 297 m 1,0,-1
 146 478 l 1,1,-1
 245 524 l 1,2,-1
 374 278 l 1,3,-1
 155 44 l 1,4,-1
 61 100 l 1,5,-1
 218 297 l 1,0,-1
EndSplineSet
Substitution2: "'case' Case-Sensitive Forms lookup 18 subtable" Guilsinglright
EndChar

StartChar: oe
Encoding: 339 339 121
Width: 869
Flags: W
LayerCount: 2
Fore
SplineSet
308 -14 m 0,0,1
 256 -14 256 -14 217 2 c 128,-1,2
 178 18 178 18 152 46.5 c 128,-1,3
 126 75 126 75 113 114 c 128,-1,4
 100 153 100 153 100 200 c 0,5,6
 100 260 100 260 119.5 320.5 c 128,-1,7
 139 381 139 381 177 430 c 128,-1,8
 215 479 215 479 270.5 509.5 c 128,-1,9
 326 540 326 540 398 540 c 0,10,11
 449 540 449 540 492 518.5 c 128,-1,12
 535 497 535 497 560 454 c 1,13,14
 600 496 600 496 648 518 c 128,-1,15
 696 540 696 540 754 540 c 0,16,17
 789 540 789 540 819 530 c 128,-1,18
 849 520 849 520 871.5 501 c 128,-1,19
 894 482 894 482 906.5 454.5 c 128,-1,20
 919 427 919 427 919 392 c 0,21,22
 919 336 919 336 894 297 c 128,-1,23
 869 258 869 258 824.5 233.5 c 128,-1,24
 780 209 780 209 719 198 c 128,-1,25
 658 187 658 187 586 187 c 1,26,27
 593 145 593 145 616.5 127.5 c 128,-1,28
 640 110 640 110 691 110 c 0,29,30
 723 110 723 110 756 115.5 c 128,-1,31
 789 121 789 121 818 132 c 1,32,-1
 829 15 l 1,33,34
 801 4 801 4 757.5 -5 c 128,-1,35
 714 -14 714 -14 663 -14 c 0,36,37
 600 -14 600 -14 557 9.5 c 128,-1,38
 514 33 514 33 488 68 c 1,39,40
 458 33 458 33 411.5 9.5 c 128,-1,41
 365 -14 365 -14 308 -14 c 0,0,1
382 414 m 0,42,43
 349 414 349 414 324 395 c 128,-1,44
 299 376 299 376 282 347 c 128,-1,45
 265 318 265 318 256.5 283.5 c 128,-1,46
 248 249 248 249 248 218 c 0,47,48
 248 167 248 167 264 139.5 c 128,-1,49
 280 112 280 112 322 112 c 0,50,51
 355 112 355 112 380 131 c 128,-1,52
 405 150 405 150 422 179 c 128,-1,53
 439 208 439 208 447.5 242.5 c 128,-1,54
 456 277 456 277 456 308 c 0,55,56
 456 359 456 359 440 386.5 c 128,-1,57
 424 414 424 414 382 414 c 0,42,43
730 422 m 0,58,59
 679 422 679 422 640.5 385.5 c 128,-1,60
 602 349 602 349 590 289 c 1,61,62
 652 291 652 291 690 299.5 c 128,-1,63
 728 308 728 308 749 320 c 128,-1,64
 770 332 770 332 777 346 c 128,-1,65
 784 360 784 360 784 374 c 0,66,67
 784 422 784 422 730 422 c 0,58,59
EndSplineSet
Substitution2: "'case' Case-Sensitive Forms lookup 19 subtable" OE
EndChar

StartChar: exclamdown
Encoding: 161 161 124
Width: 295
Flags: W
LayerCount: 2
Fore
SplineSet
75 4 m 2,0,1
 95 85 95 85 117.5 155 c 128,-1,2
 140 225 140 225 167 297 c 1,3,-1
 281 297 l 1,4,5
 273 225 273 225 263 155 c 128,-1,6
 253 85 253 85 234 4 c 2,7,-1
 191 -175 l 1,8,-1
 32 -175 l 1,9,-1
 75 4 l 2,0,1
243 347 m 0,10,11
 208 347 208 347 184.5 366.5 c 128,-1,12
 161 386 161 386 161 428 c 0,13,14
 161 451 161 451 169.5 470 c 128,-1,15
 178 489 178 489 192 502.5 c 128,-1,16
 206 516 206 516 224 523.5 c 128,-1,17
 242 531 242 531 261 531 c 0,18,19
 296 531 296 531 319.5 511.5 c 128,-1,20
 343 492 343 492 343 450 c 0,21,22
 343 427 343 427 334.5 408 c 128,-1,23
 326 389 326 389 312 375.5 c 128,-1,24
 298 362 298 362 280 354.5 c 128,-1,25
 262 347 262 347 243 347 c 0,10,11
EndSplineSet
Substitution2: "'case' Case-Sensitive Forms lookup 18 subtable" Exclamdown
EndChar

StartChar: cent
Encoding: 162 162 125
Width: 568
Flags: W
LayerCount: 2
Fore
SplineSet
517 59 m 1,0,1
 488 47 488 47 457 39.5 c 128,-1,2
 426 32 426 32 396 29 c 1,3,-1
 363 -109 l 1,4,-1
 221 -109 l 1,5,-1
 258 45 l 1,6,7
 207 66 207 66 176.5 111 c 128,-1,8
 146 156 146 156 146 234 c 0,9,10
 146 298 146 298 164 350.5 c 128,-1,11
 182 403 182 403 213.5 443 c 128,-1,12
 245 483 245 483 287 510 c 128,-1,13
 329 537 329 537 377 549 c 1,14,-1
 412 693 l 1,15,-1
 554 693 l 1,16,-1
 520 553 l 1,17,18
 564 544 564 544 603 522 c 1,19,-1
 553 407 l 1,20,21
 529 421 529 421 504 427 c 128,-1,22
 479 433 479 433 456 433 c 0,23,24
 422 433 422 433 393.5 420 c 128,-1,25
 365 407 365 407 344 382.5 c 128,-1,26
 323 358 323 358 311.5 321.5 c 128,-1,27
 300 285 300 285 300 239 c 0,28,29
 300 189 300 189 325.5 170.5 c 128,-1,30
 351 152 351 152 387 152 c 0,31,32
 416 152 416 152 448 160 c 128,-1,33
 480 168 480 168 506 178 c 1,34,-1
 517 59 l 1,0,1
EndSplineSet
EndChar

StartChar: sterling
Encoding: 163 163 126
Width: 568
Flags: W
LayerCount: 2
Fore
SplineSet
374 394 m 1,0,-1
 550 394 l 1,1,-1
 521 272 l 1,2,-1
 345 272 l 1,3,4
 336 237 336 237 323 197.5 c 128,-1,5
 310 158 310 158 297 125 c 1,6,-1
 568 125 l 1,7,-1
 538 0 l 1,8,-1
 104 0 l 1,9,10
 140 81 140 81 162.5 148 c 128,-1,11
 185 215 185 215 200 272 c 1,12,-1
 113 272 l 1,13,-1
 142 394 l 1,14,-1
 229 394 l 1,15,-1
 254 490 l 2,16,17
 270 550 270 550 297.5 591.5 c 128,-1,18
 325 633 325 633 360 658.5 c 128,-1,19
 395 684 395 684 435.5 695 c 128,-1,20
 476 706 476 706 520 706 c 0,21,22
 565 706 565 706 603.5 696 c 128,-1,23
 642 686 642 686 674 669 c 1,24,-1
 614 559 l 1,25,26
 563 582 563 582 519 582 c 0,27,28
 498 582 498 582 478.5 577 c 128,-1,29
 459 572 459 572 442.5 558.5 c 128,-1,30
 426 545 426 545 412.5 521 c 128,-1,31
 399 497 399 497 390 459 c 2,32,-1
 374 394 l 1,0,-1
EndSplineSet
EndChar

StartChar: currency
Encoding: 164 164 127
Width: 568
Flags: W
LayerCount: 2
Fore
SplineSet
354 544 m 0,0,1
 379 544 379 544 401.5 540 c 128,-1,2
 424 536 424 536 446 526 c 1,3,-1
 520 597 l 1,4,-1
 613 506 l 1,5,-1
 541 437 l 1,6,7
 562 398 562 398 562 347 c 256,8,9
 562 296 562 296 541 257 c 1,10,-1
 613 188 l 1,11,-1
 519 96 l 1,12,-1
 445 168 l 1,13,14
 424 158 424 158 402 154 c 128,-1,15
 380 150 380 150 354 150 c 0,16,17
 329 150 329 150 306.5 154 c 128,-1,18
 284 158 284 158 262 168 c 1,19,-1
 188 97 l 1,20,-1
 95 188 l 1,21,-1
 167 257 l 1,22,23
 146 296 146 296 146 347 c 256,24,25
 146 398 146 398 167 437 c 1,26,-1
 95 506 l 1,27,-1
 189 598 l 1,28,-1
 263 526 l 1,29,30
 284 536 284 536 306 540 c 128,-1,31
 328 544 328 544 354 544 c 0,0,1
436 347 m 256,32,33
 436 390 436 390 412 412 c 128,-1,34
 388 434 388 434 354 434 c 256,35,36
 320 434 320 434 296 412 c 128,-1,37
 272 390 272 390 272 347 c 256,38,39
 272 304 272 304 296 282 c 128,-1,40
 320 260 320 260 354 260 c 256,41,42
 388 260 388 260 412 282 c 128,-1,43
 436 304 436 304 436 347 c 256,32,33
EndSplineSet
EndChar

StartChar: yen
Encoding: 165 165 128
Width: 568
Flags: W
LayerCount: 2
Fore
SplineSet
385 431 m 1,0,1
 436 497 436 497 481 557.5 c 128,-1,2
 526 618 526 618 574 693 c 1,3,-1
 736 693 l 1,4,5
 680 609 680 609 620 531 c 128,-1,6
 560 453 560 453 492 370 c 1,7,-1
 593 370 l 1,8,-1
 570 275 l 1,9,-1
 424 275 l 1,10,-1
 408 206 l 1,11,-1
 554 206 l 1,12,-1
 531 111 l 1,13,-1
 385 111 l 1,14,-1
 358 0 l 1,15,-1
 202 0 l 1,16,-1
 229 111 l 1,17,-1
 84 111 l 1,18,-1
 107 206 l 1,19,-1
 252 206 l 1,20,-1
 268 275 l 1,21,-1
 123 275 l 1,22,-1
 146 370 l 1,23,-1
 261 370 l 1,24,25
 245 411 245 411 229.5 453.5 c 128,-1,26
 214 496 214 496 200 538 c 128,-1,27
 186 580 186 580 174.5 619.5 c 128,-1,28
 163 659 163 659 155 693 c 1,29,-1
 311 693 l 1,30,31
 318 657 318 657 326 625.5 c 128,-1,32
 334 594 334 594 343 563 c 128,-1,33
 352 532 352 532 362.5 499.5 c 128,-1,34
 373 467 373 467 385 431 c 1,0,1
EndSplineSet
EndChar

StartChar: brokenbar
Encoding: 166 166 129
Width: 302
Flags: W
LayerCount: 2
Fore
SplineSet
119 212 m 1,0,-1
 261 212 l 1,1,-1
 165 -185 l 1,2,-1
 24 -185 l 1,3,-1
 119 212 l 1,0,-1
256 783 m 1,4,-1
 398 783 l 1,5,-1
 302 386 l 1,6,-1
 160 386 l 1,7,-1
 256 783 l 1,4,-1
EndSplineSet
EndChar

StartChar: section
Encoding: 167 167 130
Width: 515
Flags: W
LayerCount: 2
Fore
SplineSet
111 287 m 0,0,1
 111 335 111 335 143.5 382.5 c 128,-1,2
 176 430 176 430 230 462 c 1,3,4
 202 496 202 496 202 543 c 0,5,6
 202 574 202 574 217 604 c 128,-1,7
 232 634 232 634 261 657 c 128,-1,8
 290 680 290 680 334 694.5 c 128,-1,9
 378 709 378 709 436 709 c 0,10,11
 481 709 481 709 523.5 699 c 128,-1,12
 566 689 566 689 600 669 c 1,13,-1
 549 563 l 1,14,15
 518 579 518 579 489 586 c 128,-1,16
 460 593 460 593 434 593 c 0,17,18
 392 593 392 593 367.5 578 c 128,-1,19
 343 563 343 563 343 540 c 0,20,21
 343 529 343 529 351 518.5 c 128,-1,22
 359 508 359 508 379 498 c 2,23,-1
 454 460 l 2,24,25
 505 434 505 434 526.5 400.5 c 128,-1,26
 548 367 548 367 548 330 c 0,27,28
 548 282 548 282 518 237 c 128,-1,29
 488 192 488 192 440 163 c 2,30,-1
 427 155 l 1,31,32
 457 114 457 114 457 71 c 0,33,34
 457 38 457 38 442.5 5.5 c 128,-1,35
 428 -27 428 -27 398 -52.5 c 128,-1,36
 368 -78 368 -78 321.5 -94 c 128,-1,37
 275 -110 275 -110 212 -110 c 0,38,39
 164 -110 164 -110 116 -99 c 128,-1,40
 68 -88 68 -88 36 -66 c 1,41,-1
 87 40 l 1,42,43
 148 6 148 6 210 6 c 0,44,45
 267 6 267 6 291.5 25 c 128,-1,46
 316 44 316 44 316 67 c 0,47,48
 316 83 316 83 306.5 97.5 c 128,-1,49
 297 112 297 112 280 120 c 2,50,-1
 205 158 l 2,51,52
 154 183 154 183 132.5 216.5 c 128,-1,53
 111 250 111 250 111 287 c 0,0,1
243 311 m 0,54,55
 243 291 243 291 257.5 271.5 c 128,-1,56
 272 252 272 252 307 235 c 2,57,-1
 350 214 l 1,58,59
 380 234 380 234 398 257 c 128,-1,60
 416 280 416 280 416 305 c 0,61,62
 416 327 416 327 399 348 c 128,-1,63
 382 369 382 369 344 387 c 2,64,-1
 309 403 l 1,65,66
 280 384 280 384 261.5 360 c 128,-1,67
 243 336 243 336 243 311 c 0,54,55
EndSplineSet
EndChar

StartChar: dieresis
Encoding: 168 168 131
Width: 536
Flags: W
LayerCount: 2
Fore
SplineSet
298 602 m 0,0,1
 269 602 269 602 250 620 c 128,-1,2
 231 638 231 638 231 668 c 0,3,4
 231 687 231 687 238 703 c 128,-1,5
 245 719 245 719 256.5 730 c 128,-1,6
 268 741 268 741 282.5 747.5 c 128,-1,7
 297 754 297 754 312 754 c 0,8,9
 340 754 340 754 360 735.5 c 128,-1,10
 380 717 380 717 380 686 c 0,11,12
 380 668 380 668 372.5 652.5 c 128,-1,13
 365 637 365 637 353 625.5 c 128,-1,14
 341 614 341 614 326.5 608 c 128,-1,15
 312 602 312 602 298 602 c 0,0,1
520 602 m 0,16,17
 491 602 491 602 472 620 c 128,-1,18
 453 638 453 638 453 668 c 0,19,20
 453 687 453 687 460 703 c 128,-1,21
 467 719 467 719 478.5 730 c 128,-1,22
 490 741 490 741 504.5 747.5 c 128,-1,23
 519 754 519 754 534 754 c 0,24,25
 562 754 562 754 582 735.5 c 128,-1,26
 602 717 602 717 602 686 c 0,27,28
 602 668 602 668 594.5 652.5 c 128,-1,29
 587 637 587 637 575 625.5 c 128,-1,30
 563 614 563 614 548.5 608 c 128,-1,31
 534 602 534 602 520 602 c 0,16,17
EndSplineSet
EndChar

StartChar: copyright
Encoding: 169 169 132
Width: 796
Flags: W
LayerCount: 2
Fore
SplineSet
816 347 m 0,0,1
 816 261 816 261 787.5 194 c 128,-1,2
 759 127 759 127 711 80.5 c 128,-1,3
 663 34 663 34 600 9.5 c 128,-1,4
 537 -15 537 -15 468 -15 c 256,5,6
 399 -15 399 -15 336 9.5 c 128,-1,7
 273 34 273 34 225 80.5 c 128,-1,8
 177 127 177 127 148.5 194 c 128,-1,9
 120 261 120 261 120 347 c 0,10,11
 120 432 120 432 148.5 499.5 c 128,-1,12
 177 567 177 567 225 613.5 c 128,-1,13
 273 660 273 660 336 684.5 c 128,-1,14
 399 709 399 709 468 709 c 256,15,16
 537 709 537 709 600 684.5 c 128,-1,17
 663 660 663 660 711 613.5 c 128,-1,18
 759 567 759 567 787.5 499.5 c 128,-1,19
 816 432 816 432 816 347 c 0,0,1
714 347 m 256,20,21
 714 407 714 407 696 456 c 128,-1,22
 678 505 678 505 645.5 540 c 128,-1,23
 613 575 613 575 567.5 594 c 128,-1,24
 522 613 522 613 468 613 c 256,25,26
 414 613 414 613 368.5 594 c 128,-1,27
 323 575 323 575 290.5 540 c 128,-1,28
 258 505 258 505 240 456 c 128,-1,29
 222 407 222 407 222 347 c 256,30,31
 222 287 222 287 240 238 c 128,-1,32
 258 189 258 189 290.5 154 c 128,-1,33
 323 119 323 119 368.5 100 c 128,-1,34
 414 81 414 81 468 81 c 256,35,36
 522 81 522 81 567.5 100 c 128,-1,37
 613 119 613 119 645.5 154 c 128,-1,38
 678 189 678 189 696 238 c 128,-1,39
 714 287 714 287 714 347 c 256,20,21
484 160 m 0,40,41
 394 160 394 160 347.5 209 c 128,-1,42
 301 258 301 258 301 349 c 256,43,44
 301 440 301 440 350.5 488.5 c 128,-1,45
 400 537 400 537 481 537 c 0,46,47
 529 537 529 537 558.5 524 c 128,-1,48
 588 511 588 511 599 505 c 1,49,-1
 567 417 l 1,50,51
 553 425 553 425 535.5 430.5 c 128,-1,52
 518 436 518 436 490 436 c 0,53,54
 457 436 457 436 437 415 c 128,-1,55
 417 394 417 394 417 354 c 0,56,57
 417 336 417 336 420 319.5 c 128,-1,58
 423 303 423 303 431 290.5 c 128,-1,59
 439 278 439 278 453 270 c 128,-1,60
 467 262 467 262 490 262 c 0,61,62
 520 262 520 262 540 269 c 128,-1,63
 560 276 560 276 576 282 c 1,64,-1
 604 191 l 1,65,66
 591 184 591 184 560 172 c 128,-1,67
 529 160 529 160 484 160 c 0,40,41
EndSplineSet
EndChar

StartChar: ordfeminine
Encoding: 170 170 133
Width: 472
Flags: W
LayerCount: 2
Fore
SplineSet
415 607 m 1,0,1
 408 608 408 608 401.5 608.5 c 128,-1,2
 395 609 395 609 389 609 c 0,3,4
 362 609 362 609 338 600 c 128,-1,5
 314 591 314 591 295.5 573.5 c 128,-1,6
 277 556 277 556 266.5 532 c 128,-1,7
 256 508 256 508 256 478 c 256,8,9
 256 448 256 448 271.5 426.5 c 128,-1,10
 287 405 287 405 319 405 c 0,11,12
 333 405 333 405 348 410 c 128,-1,13
 363 415 363 415 379 427 c 0,14,15
 378 430 378 430 378 441 c 0,16,17
 378 456 378 456 381 472 c 128,-1,18
 384 488 384 488 388 503 c 2,19,-1
 415 607 l 1,0,1
498 504 m 2,20,21
 488 470 488 470 485 424.5 c 128,-1,22
 482 379 482 379 504 322 c 1,23,-1
 410 309 l 1,24,-1
 397 340 l 1,25,26
 344 305 344 305 292 305 c 0,27,28
 257 305 257 305 230.5 318 c 128,-1,29
 204 331 204 331 186 353.5 c 128,-1,30
 168 376 168 376 159 405.5 c 128,-1,31
 150 435 150 435 150 467 c 0,32,33
 150 509 150 509 166 552 c 128,-1,34
 182 595 182 595 214.5 629.5 c 128,-1,35
 247 664 247 664 296.5 686 c 128,-1,36
 346 708 346 708 414 708 c 0,37,38
 443 708 443 708 475 704 c 128,-1,39
 507 700 507 700 542 690 c 1,40,-1
 498 504 l 2,20,21
EndSplineSet
EndChar

StartChar: logicalnot
Encoding: 172 172 135
Width: 568
Flags: W
LayerCount: 2
Fore
SplineSet
514 51 m 1,0,-1
 378 51 l 1,1,-1
 435 285 l 1,2,-1
 101 285 l 1,3,-1
 131 410 l 1,4,-1
 601 410 l 1,5,-1
 514 51 l 1,0,-1
EndSplineSet
EndChar

StartChar: registered
Encoding: 174 174 137
Width: 796
Flags: W
LayerCount: 2
Fore
SplineSet
816 347 m 0,0,1
 816 261 816 261 787.5 194 c 128,-1,2
 759 127 759 127 711 80.5 c 128,-1,3
 663 34 663 34 600 9.5 c 128,-1,4
 537 -15 537 -15 468 -15 c 256,5,6
 399 -15 399 -15 336 9.5 c 128,-1,7
 273 34 273 34 225 80.5 c 128,-1,8
 177 127 177 127 148.5 194 c 128,-1,9
 120 261 120 261 120 347 c 0,10,11
 120 432 120 432 148.5 499.5 c 128,-1,12
 177 567 177 567 225 613.5 c 128,-1,13
 273 660 273 660 336 684.5 c 128,-1,14
 399 709 399 709 468 709 c 256,15,16
 537 709 537 709 600 684.5 c 128,-1,17
 663 660 663 660 711 613.5 c 128,-1,18
 759 567 759 567 787.5 499.5 c 128,-1,19
 816 432 816 432 816 347 c 0,0,1
714 347 m 256,20,21
 714 407 714 407 696 456 c 128,-1,22
 678 505 678 505 645.5 540 c 128,-1,23
 613 575 613 575 567.5 594 c 128,-1,24
 522 613 522 613 468 613 c 256,25,26
 414 613 414 613 368.5 594 c 128,-1,27
 323 575 323 575 290.5 540 c 128,-1,28
 258 505 258 505 240 456 c 128,-1,29
 222 407 222 407 222 347 c 256,30,31
 222 287 222 287 240 238 c 128,-1,32
 258 189 258 189 290.5 154 c 128,-1,33
 323 119 323 119 368.5 100 c 128,-1,34
 414 81 414 81 468 81 c 256,35,36
 522 81 522 81 567.5 100 c 128,-1,37
 613 119 613 119 645.5 154 c 128,-1,38
 678 189 678 189 696 238 c 128,-1,39
 714 287 714 287 714 347 c 256,20,21
529 177 m 1,40,41
 512 215 512 215 500 243.5 c 128,-1,42
 488 272 488 272 473 295 c 1,43,-1
 433 295 l 1,44,-1
 433 177 l 1,45,-1
 336 177 l 1,46,-1
 336 519 l 1,47,48
 370 527 370 527 399.5 530.5 c 128,-1,49
 429 534 429 534 451 534 c 0,50,51
 612 534 612 534 612 413 c 0,52,53
 612 351 612 351 558 322 c 1,54,55
 569 305 569 305 577.5 289.5 c 128,-1,56
 586 274 586 274 594.5 257.5 c 128,-1,57
 603 241 603 241 611.5 221.5 c 128,-1,58
 620 202 620 202 631 177 c 1,59,-1
 529 177 l 1,40,41
433 373 m 1,60,-1
 451 373 l 2,61,62
 483 373 483 373 499 381.5 c 128,-1,63
 515 390 515 390 515 414 c 0,64,65
 515 434 515 434 501 442 c 128,-1,66
 487 450 487 450 460 450 c 0,67,68
 453 450 453 450 445.5 449.5 c 128,-1,69
 438 449 438 449 433 448 c 1,70,-1
 433 373 l 1,60,-1
EndSplineSet
EndChar

StartChar: macron
Encoding: 175 175 138
Width: 376
Flags: W
LayerCount: 2
Fore
SplineSet
196 725 m 1,0,-1
 518 725 l 1,1,-1
 493 623 l 1,2,-1
 171 623 l 1,3,-1
 196 725 l 1,0,-1
EndSplineSet
EndChar

StartChar: degree
Encoding: 176 176 139
Width: 382
Flags: W
LayerCount: 2
Fore
SplineSet
321 781 m 256,0,1
 353 781 353 781 382.5 770.5 c 128,-1,2
 412 760 412 760 434 739.5 c 128,-1,3
 456 719 456 719 469 690.5 c 128,-1,4
 482 662 482 662 482 626 c 256,5,6
 482 590 482 590 469 561.5 c 128,-1,7
 456 533 456 533 434 512.5 c 128,-1,8
 412 492 412 492 382.5 481.5 c 128,-1,9
 353 471 353 471 321 471 c 256,10,11
 289 471 289 471 259.5 481.5 c 128,-1,12
 230 492 230 492 208 512.5 c 128,-1,13
 186 533 186 533 173 561.5 c 128,-1,14
 160 590 160 590 160 626 c 256,15,16
 160 662 160 662 173 690.5 c 128,-1,17
 186 719 186 719 208 739.5 c 128,-1,18
 230 760 230 760 259.5 770.5 c 128,-1,19
 289 781 289 781 321 781 c 256,0,1
321 569 m 256,20,21
 342 569 342 569 359 584.5 c 128,-1,22
 376 600 376 600 376 626 c 256,23,24
 376 652 376 652 359 667.5 c 128,-1,25
 342 683 342 683 321 683 c 256,26,27
 300 683 300 683 283 667.5 c 128,-1,28
 266 652 266 652 266 626 c 256,29,30
 266 600 266 600 283 584.5 c 128,-1,31
 300 569 300 569 321 569 c 256,20,21
EndSplineSet
EndChar

StartChar: plusminus
Encoding: 177 177 140
Width: 568
Flags: W
LayerCount: 2
Fore
SplineSet
153 455 m 1,0,-1
 320 455 l 1,1,-1
 361 625 l 1,2,-1
 497 625 l 1,3,-1
 456 455 l 1,4,-1
 623 455 l 1,5,-1
 593 330 l 1,6,-1
 426 330 l 1,7,-1
 385 160 l 1,8,-1
 249 160 l 1,9,-1
 290 330 l 1,10,-1
 123 330 l 1,11,-1
 153 455 l 1,0,-1
73 125 m 1,12,-1
 543 125 l 1,13,-1
 513 0 l 1,14,-1
 44 0 l 1,15,-1
 73 125 l 1,12,-1
EndSplineSet
EndChar

StartChar: twosuperior
Encoding: 178 178 141
Width: 363
Flags: W
LayerCount: 2
Fore
SplineSet
411 393 m 1,0,-1
 391 302 l 1,1,-1
 104 302 l 1,2,3
 104 333 104 333 110 359.5 c 128,-1,4
 116 386 116 386 131 410 c 128,-1,5
 146 434 146 434 172.5 456.5 c 128,-1,6
 199 479 199 479 241 502 c 0,7,8
 270 518 270 518 287 529.5 c 128,-1,9
 304 541 304 541 313 550.5 c 128,-1,10
 322 560 322 560 324.5 568.5 c 128,-1,11
 327 577 327 577 327 587 c 0,12,13
 327 600 327 600 317 608 c 128,-1,14
 307 616 307 616 290 616 c 0,15,16
 271 616 271 616 245.5 605 c 128,-1,17
 220 594 220 594 188 568 c 1,18,-1
 151 647 l 1,19,20
 219 709 219 709 310 709 c 0,21,22
 335 709 335 709 357.5 703 c 128,-1,23
 380 697 380 697 397 684.5 c 128,-1,24
 414 672 414 672 424 652 c 128,-1,25
 434 632 434 632 434 605 c 0,26,27
 434 559 434 559 410 524.5 c 128,-1,28
 386 490 386 490 332 456 c 0,29,30
 318 447 318 447 304 438.5 c 128,-1,31
 290 430 290 430 277.5 421.5 c 128,-1,32
 265 413 265 413 256 406 c 128,-1,33
 247 399 247 399 244 393 c 1,34,-1
 411 393 l 1,0,-1
EndSplineSet
Substitution2: "Single Substitution lookup 26 subtable" twoinferior
Substitution2: "'sinf' Scientific Inferiors lookup 13 subtable" two.sinf
Substitution2: "'subs' Subscript lookup 12 subtable" two.sinf
Substitution2: "'sups' Superscript lookup 11 subtable" two.sups
Substitution2: "'dnom' Denominators lookup 10 subtable" twoinferior
EndChar

StartChar: threesuperior
Encoding: 179 179 142
Width: 363
Flags: W
LayerCount: 2
Fore
SplineSet
132 410 m 1,0,1
 151 398 151 398 180 390.5 c 128,-1,2
 209 383 209 383 238 383 c 0,3,4
 270 383 270 383 294 394 c 128,-1,5
 318 405 318 405 318 431 c 0,6,7
 318 448 318 448 303 457.5 c 128,-1,8
 288 467 288 467 255 467 c 2,9,-1
 204 467 l 1,10,-1
 224 544 l 1,11,-1
 269 544 l 2,12,13
 301 544 301 544 318.5 559 c 128,-1,14
 336 574 336 574 336 591 c 0,15,16
 336 603 336 603 325 612 c 128,-1,17
 314 621 314 621 290 621 c 0,18,19
 265 621 265 621 239 613 c 128,-1,20
 213 605 213 605 193 595 c 1,21,-1
 172 675 l 1,22,23
 197 688 197 688 236.5 698.5 c 128,-1,24
 276 709 276 709 316 709 c 0,25,26
 340 709 340 709 361.5 704.5 c 128,-1,27
 383 700 383 700 399.5 688.5 c 128,-1,28
 416 677 416 677 425.5 658.5 c 128,-1,29
 435 640 435 640 435 613 c 0,30,31
 435 584 435 584 418 556 c 128,-1,32
 401 528 401 528 369 514 c 1,33,34
 391 503 391 503 404 480.5 c 128,-1,35
 417 458 417 458 417 431 c 0,36,37
 417 393 417 393 401 367 c 128,-1,38
 385 341 385 341 359 324.5 c 128,-1,39
 333 308 333 308 299.5 300.5 c 128,-1,40
 266 293 266 293 232 293 c 0,41,42
 192 293 192 293 155 301.5 c 128,-1,43
 118 310 118 310 92 326 c 1,44,-1
 132 410 l 1,0,1
EndSplineSet
Substitution2: "Single Substitution lookup 26 subtable" threeinferior
Substitution2: "'sinf' Scientific Inferiors lookup 13 subtable" three.sinf
Substitution2: "'subs' Subscript lookup 12 subtable" three.sinf
Substitution2: "'sups' Superscript lookup 11 subtable" three.sups
Substitution2: "'dnom' Denominators lookup 10 subtable" threeinferior
EndChar

StartChar: acute
Encoding: 180 180 143
Width: 286
Flags: W
LayerCount: 2
Fore
SplineSet
414 712 m 1,0,-1
 237 576 l 1,1,-1
 177 638 l 1,2,-1
 337 799 l 1,3,-1
 414 712 l 1,0,-1
EndSplineSet
EndChar

StartChar: mu
Encoding: 181 181 144
Width: 632
Flags: W
LayerCount: 2
Fore
SplineSet
652 526 m 1,0,-1
 581 227 l 2,1,2
 576 207 576 207 572.5 190.5 c 128,-1,3
 569 174 569 174 569 161 c 0,4,5
 569 138 569 138 582 126.5 c 128,-1,6
 595 115 595 115 630 113 c 1,7,-1
 581 -11 l 1,8,9
 518 -10 518 -10 486 4.5 c 128,-1,10
 454 19 454 19 440 40 c 1,11,12
 407 16 407 16 370.5 2 c 128,-1,13
 334 -12 334 -12 299 -12 c 0,14,15
 277 -12 277 -12 256 -5.5 c 128,-1,16
 235 1 235 1 217 15 c 1,17,18
 217 -8 217 -8 214 -30 c 128,-1,19
 211 -52 211 -52 202 -89 c 2,20,-1
 183 -166 l 1,21,-1
 35 -166 l 1,22,-1
 200 526 l 1,23,-1
 349 526 l 1,24,-1
 282 244 l 2,25,26
 278 227 278 227 274.5 208.5 c 128,-1,27
 271 190 271 190 270 173 c 0,28,29
 270 147 270 147 283.5 129.5 c 128,-1,30
 297 112 297 112 338 112 c 0,31,32
 351 112 351 112 372 118.5 c 128,-1,33
 393 125 393 125 422 151 c 1,34,35
 424 176 424 176 428.5 203.5 c 128,-1,36
 433 231 433 231 438 253 c 2,37,-1
 503 526 l 1,38,-1
 652 526 l 1,0,-1
EndSplineSet
EndChar

StartChar: paragraph
Encoding: 182 182 145
Width: 710
Flags: W
LayerCount: 2
Fore
SplineSet
309 258 m 1,0,1
 237 269 237 269 196 314 c 128,-1,2
 155 359 155 359 155 437 c 0,3,4
 155 501 155 501 185 550.5 c 128,-1,5
 215 600 215 600 269.5 633 c 128,-1,6
 324 666 324 666 401.5 683 c 128,-1,7
 479 700 479 700 575 700 c 0,8,9
 621 700 621 700 669 696 c 128,-1,10
 717 692 717 692 771 683 c 1,11,-1
 563 -185 l 1,12,-1
 421 -185 l 1,13,-1
 605 582 l 1,14,15
 591 584 591 584 571 585 c 128,-1,16
 551 586 551 586 529 586 c 1,17,-1
 344 -185 l 1,18,-1
 202 -185 l 1,19,-1
 309 258 l 1,0,1
EndSplineSet
EndChar

StartChar: cedilla
Encoding: 184 184 147
Width: 326
Flags: W
LayerCount: 2
Fore
SplineSet
194 -44 m 1,0,1
 216 -55 216 -55 227 -73 c 128,-1,2
 238 -91 238 -91 238 -111 c 0,3,4
 238 -140 238 -140 226.5 -161 c 128,-1,5
 215 -182 215 -182 195.5 -195.5 c 128,-1,6
 176 -209 176 -209 151 -215 c 128,-1,7
 126 -221 126 -221 100 -221 c 0,8,9
 73 -221 73 -221 46.5 -215 c 128,-1,10
 20 -209 20 -209 -1 -198 c 1,11,-1
 35 -116 l 1,12,13
 48 -122 48 -122 64.5 -126 c 128,-1,14
 81 -130 81 -130 96 -130 c 0,15,16
 136 -130 136 -130 136 -106 c 0,17,18
 136 -95 136 -95 129 -88 c 128,-1,19
 122 -81 122 -81 106 -74 c 2,20,-1
 86 -65 l 1,21,22
 92 -55 92 -55 101 -42.5 c 128,-1,23
 110 -30 110 -30 118.5 -17.5 c 128,-1,24
 127 -5 127 -5 134.5 5 c 128,-1,25
 142 15 142 15 145 20 c 1,26,-1
 239 20 l 1,27,28
 235 15 235 15 229 6.5 c 128,-1,29
 223 -2 223 -2 216.5 -11 c 128,-1,30
 210 -20 210 -20 204 -29 c 128,-1,31
 198 -38 198 -38 194 -44 c 1,0,1
EndSplineSet
EndChar

StartChar: onesuperior
Encoding: 185 185 148
Width: 363
Flags: W
LayerCount: 2
Fore
SplineSet
156 618 m 1,0,1
 204 635 204 635 247.5 656.5 c 128,-1,2
 291 678 291 678 326 701 c 1,3,-1
 413 701 l 1,4,-1
 318 302 l 1,5,-1
 204 302 l 1,6,-1
 268 572 l 1,7,8
 246 561 246 561 222.5 551.5 c 128,-1,9
 199 542 199 542 167 531 c 1,10,-1
 156 618 l 1,0,1
EndSplineSet
Substitution2: "Single Substitution lookup 26 subtable" oneinferior
Substitution2: "'sinf' Scientific Inferiors lookup 13 subtable" one.sinf
Substitution2: "'subs' Subscript lookup 12 subtable" one.sinf
Substitution2: "'sups' Superscript lookup 11 subtable" one.sups
Substitution2: "'dnom' Denominators lookup 10 subtable" oneinferior
EndChar

StartChar: ordmasculine
Encoding: 186 186 149
Width: 439
Flags: W
LayerCount: 2
Fore
SplineSet
244 456 m 0,0,1
 244 437 244 437 249 425.5 c 128,-1,2
 254 414 254 414 262 407.5 c 128,-1,3
 270 401 270 401 280.5 398.5 c 128,-1,4
 291 396 291 396 302 396 c 0,5,6
 324 396 324 396 344.5 408.5 c 128,-1,7
 365 421 365 421 380.5 443 c 128,-1,8
 396 465 396 465 405.5 494.5 c 128,-1,9
 415 524 415 524 415 559 c 0,10,11
 415 577 415 577 410 589 c 128,-1,12
 405 601 405 601 397 607.5 c 128,-1,13
 389 614 389 614 378.5 616.5 c 128,-1,14
 368 619 368 619 357 619 c 0,15,16
 335 619 335 619 314.5 606.5 c 128,-1,17
 294 594 294 594 278.5 572 c 128,-1,18
 263 550 263 550 253.5 520 c 128,-1,19
 244 490 244 490 244 456 c 0,0,1
140 448 m 0,20,21
 140 498 140 498 154.5 545 c 128,-1,22
 169 592 169 592 197.5 628.5 c 128,-1,23
 226 665 226 665 269 687 c 128,-1,24
 312 709 312 709 368 709 c 0,25,26
 446 709 446 709 482.5 671 c 128,-1,27
 519 633 519 633 519 567 c 0,28,29
 519 517 519 517 504.5 470 c 128,-1,30
 490 423 490 423 461.5 386.5 c 128,-1,31
 433 350 433 350 390 328 c 128,-1,32
 347 306 347 306 291 306 c 0,33,34
 213 306 213 306 176.5 344 c 128,-1,35
 140 382 140 382 140 448 c 0,20,21
EndSplineSet
EndChar

StartChar: questiondown
Encoding: 191 191 154
Width: 430
Flags: W
LayerCount: 2
Fore
SplineSet
298 106 m 0,0,1
 268 83 268 83 246.5 66 c 128,-1,2
 225 49 225 49 211.5 34.5 c 128,-1,3
 198 20 198 20 192 7.5 c 128,-1,4
 186 -5 186 -5 186 -20 c 0,5,6
 186 -46 186 -46 204.5 -58 c 128,-1,7
 223 -70 223 -70 251 -70 c 0,8,9
 269 -70 269 -70 289 -66.5 c 128,-1,10
 309 -63 309 -63 328 -57.5 c 128,-1,11
 347 -52 347 -52 364 -45 c 128,-1,12
 381 -38 381 -38 394 -30 c 1,13,-1
 413 -147 l 1,14,15
 374 -169 374 -169 323.5 -182.5 c 128,-1,16
 273 -196 273 -196 222 -196 c 0,17,18
 186 -196 186 -196 153 -187 c 128,-1,19
 120 -178 120 -178 95 -159.5 c 128,-1,20
 70 -141 70 -141 55 -113.5 c 128,-1,21
 40 -86 40 -86 40 -50 c 0,22,23
 40 -7 40 -7 53.5 25 c 128,-1,24
 67 57 67 57 88 82 c 128,-1,25
 109 107 109 107 135.5 127.5 c 128,-1,26
 162 148 162 148 188 168 c 0,27,28
 226 196 226 196 254.5 225 c 128,-1,29
 283 254 283 254 287 292 c 1,30,-1
 419 292 l 1,31,32
 419 260 419 260 409.5 234.5 c 128,-1,33
 400 209 400 209 383.5 186.5 c 128,-1,34
 367 164 367 164 345 144.5 c 128,-1,35
 323 125 323 125 298 106 c 0,0,1
367 342 m 0,36,37
 332 342 332 342 308.5 361.5 c 128,-1,38
 285 381 285 381 285 423 c 0,39,40
 285 446 285 446 293.5 465 c 128,-1,41
 302 484 302 484 316 497.5 c 128,-1,42
 330 511 330 511 348 518.5 c 128,-1,43
 366 526 366 526 385 526 c 0,44,45
 420 526 420 526 443.5 506.5 c 128,-1,46
 467 487 467 487 467 445 c 0,47,48
 467 422 467 422 458.5 403 c 128,-1,49
 450 384 450 384 436 370.5 c 128,-1,50
 422 357 422 357 404 349.5 c 128,-1,51
 386 342 386 342 367 342 c 0,36,37
EndSplineSet
Substitution2: "'case' Case-Sensitive Forms lookup 18 subtable" Questiondown
EndChar

StartChar: Aring
Encoding: 197 197 160
Width: 714
Flags: W
LayerCount: 2
Fore
SplineSet
532 0 m 1,0,1
 530 39 530 39 527.5 76.5 c 128,-1,2
 525 114 525 114 522 151 c 1,3,-1
 262 151 l 1,4,5
 242 114 242 114 220 76.5 c 128,-1,6
 198 39 198 39 178 0 c 1,7,-1
 15 0 l 1,8,9
 79 110 79 110 135 204 c 128,-1,10
 191 298 191 298 242.5 381.5 c 128,-1,11
 294 465 294 465 343.5 539.5 c 128,-1,12
 393 614 393 614 444 685 c 1,13,14
 430 700 430 700 421.5 720.5 c 128,-1,15
 413 741 413 741 413 767 c 0,16,17
 413 795 413 795 422.5 816.5 c 128,-1,18
 432 838 432 838 448.5 852.5 c 128,-1,19
 465 867 465 867 486 874.5 c 128,-1,20
 507 882 507 882 530 882 c 0,21,22
 554 882 554 882 575.5 874.5 c 128,-1,23
 597 867 597 867 613.5 852.5 c 128,-1,24
 630 838 630 838 639.5 816.5 c 128,-1,25
 649 795 649 795 649 767 c 0,26,27
 649 732 649 732 633.5 707 c 128,-1,28
 618 682 618 682 594 668 c 1,29,30
 609 596 609 596 623 511.5 c 128,-1,31
 637 427 637 427 649 339 c 128,-1,32
 661 251 661 251 671 164 c 128,-1,33
 681 77 681 77 689 0 c 1,34,-1
 532 0 l 1,0,1
486 541 m 1,35,36
 444 474 444 474 403.5 408 c 128,-1,37
 363 342 363 342 325 273 c 1,38,-1
 512 273 l 1,39,40
 507 334 507 334 501.5 403 c 128,-1,41
 496 472 496 472 486 541 c 1,35,36
576 767 m 256,42,43
 576 790 576 790 562 802 c 128,-1,44
 548 814 548 814 530 814 c 0,45,46
 513 814 513 814 499 802 c 128,-1,47
 485 790 485 790 485 767 c 256,48,49
 485 744 485 744 499 732 c 128,-1,50
 513 720 513 720 530 720 c 0,51,52
 548 720 548 720 562 732 c 128,-1,53
 576 744 576 744 576 767 c 256,42,43
EndSplineSet
EndChar

StartChar: AE
Encoding: 198 198 161
Width: 977
Flags: W
LayerCount: 2
Fore
SplineSet
508 164 m 1,0,-1
 284 164 l 1,1,2
 253 126 253 126 220 82 c 128,-1,3
 187 38 187 38 160 0 c 1,4,-1
 0 0 l 1,5,6
 84 108 84 108 156 200 c 128,-1,7
 228 292 228 292 297 374.5 c 128,-1,8
 366 457 366 457 435.5 535 c 128,-1,9
 505 613 505 613 582 693 c 1,10,-1
 1077 693 l 1,11,-1
 1045 562 l 1,12,-1
 749 562 l 1,13,-1
 717 426 l 1,14,-1
 978 426 l 1,15,-1
 947 298 l 1,16,-1
 686 298 l 1,17,-1
 646 131 l 1,18,-1
 965 131 l 1,19,-1
 933 0 l 1,20,-1
 468 0 l 1,21,-1
 508 164 l 1,0,-1
599 546 m 1,22,23
 578 523 578 523 549.5 490.5 c 128,-1,24
 521 458 521 458 490.5 422.5 c 128,-1,25
 460 387 460 387 430 351.5 c 128,-1,26
 400 316 400 316 376 288 c 1,27,-1
 537 288 l 1,28,-1
 599 546 l 1,22,23
EndSplineSet
EndChar

StartChar: Ccedilla
Encoding: 199 199 162
Width: 638
Flags: W
LayerCount: 2
Fore
SplineSet
614 30 m 1,0,1
 573 10 573 10 524.5 -1.5 c 128,-1,2
 476 -13 476 -13 405 -14 c 1,3,4
 399 -22 399 -22 394 -30 c 128,-1,5
 389 -38 389 -38 385 -44 c 1,6,7
 407 -55 407 -55 418 -73 c 128,-1,8
 429 -91 429 -91 429 -111 c 0,9,10
 429 -140 429 -140 417.5 -161 c 128,-1,11
 406 -182 406 -182 386.5 -195.5 c 128,-1,12
 367 -209 367 -209 342 -215 c 128,-1,13
 317 -221 317 -221 291 -221 c 0,14,15
 264 -221 264 -221 237.5 -215 c 128,-1,16
 211 -209 211 -209 190 -198 c 1,17,-1
 226 -116 l 1,18,19
 239 -122 239 -122 255.5 -126 c 128,-1,20
 272 -130 272 -130 287 -130 c 0,21,22
 327 -130 327 -130 327 -106 c 0,23,24
 327 -95 327 -95 320 -88 c 128,-1,25
 313 -81 313 -81 297 -74 c 2,26,-1
 277 -65 l 1,27,-1
 318 -4 l 1,28,29
 227 19 227 19 175 93.5 c 128,-1,30
 123 168 123 168 123 280 c 0,31,32
 123 358 123 358 150.5 435 c 128,-1,33
 178 512 178 512 231.5 572.5 c 128,-1,34
 285 633 285 633 362.5 671 c 128,-1,35
 440 709 440 709 541 709 c 0,36,37
 589 709 589 709 635.5 698 c 128,-1,38
 682 687 682 687 733 659 c 1,39,-1
 677 538 l 1,40,41
 635 560 635 560 602 568 c 128,-1,42
 569 576 569 576 531 576 c 0,43,44
 474 576 474 576 428.5 553 c 128,-1,45
 383 530 383 530 350.5 490.5 c 128,-1,46
 318 451 318 451 301 399 c 128,-1,47
 284 347 284 347 284 289 c 0,48,49
 284 201 284 201 322.5 161 c 128,-1,50
 361 121 361 121 433 121 c 0,51,52
 481 121 481 121 521.5 131 c 128,-1,53
 562 141 562 141 597 157 c 1,54,-1
 614 30 l 1,0,1
EndSplineSet
EndChar

StartChar: Eth
Encoding: 208 208 171
Width: 718
Flags: W
LayerCount: 2
Fore
SplineSet
257 125 m 1,0,1
 268 124 268 124 279.5 123.5 c 128,-1,2
 291 123 291 123 311 123 c 0,3,4
 376 123 376 123 428.5 143 c 128,-1,5
 481 163 481 163 517.5 200.5 c 128,-1,6
 554 238 554 238 574 292.5 c 128,-1,7
 594 347 594 347 594 415 c 0,8,9
 594 450 594 450 585 478.5 c 128,-1,10
 576 507 576 507 555.5 527.5 c 128,-1,11
 535 548 535 548 502.5 559 c 128,-1,12
 470 570 470 570 424 570 c 0,13,14
 394 570 394 570 363 567 c 1,15,-1
 327 417 l 1,16,-1
 454 417 l 1,17,-1
 427 302 l 1,18,-1
 299 302 l 1,19,-1
 257 125 l 1,0,1
754 423 m 0,20,21
 754 322 754 322 721 242 c 128,-1,22
 688 162 688 162 626.5 106.5 c 128,-1,23
 565 51 565 51 477 21 c 128,-1,24
 389 -9 389 -9 278 -9 c 0,25,26
 236 -9 236 -9 181 -4 c 128,-1,27
 126 1 126 1 75 12 c 1,28,-1
 145 302 l 1,29,-1
 65 302 l 1,30,-1
 91 417 l 1,31,-1
 172 417 l 1,32,-1
 236 681 l 1,33,34
 293 692 293 692 345.5 696.5 c 128,-1,35
 398 701 398 701 440 701 c 0,36,37
 514 701 514 701 572.5 681 c 128,-1,38
 631 661 631 661 671.5 624 c 128,-1,39
 712 587 712 587 733 536 c 128,-1,40
 754 485 754 485 754 423 c 0,20,21
EndSplineSet
EndChar

StartChar: multiply
Encoding: 215 215 178
Width: 568
Flags: W
LayerCount: 2
Fore
SplineSet
89 166 m 1,0,-1
 260 304 l 1,1,-1
 158 439 l 1,2,-1
 260 521 l 1,3,-1
 361 386 l 1,4,-1
 533 525 l 1,5,-1
 603 433 l 1,6,-1
 432 295 l 1,7,-1
 534 160 l 1,8,-1
 432 78 l 1,9,-1
 331 213 l 1,10,-1
 159 74 l 1,11,-1
 89 166 l 1,0,-1
EndSplineSet
EndChar

StartChar: Oslash
Encoding: 216 216 179
Width: 757
Flags: W
LayerCount: 2
Fore
SplineSet
401 -14 m 0,0,1
 309 -14 309 -14 243 28 c 1,2,-1
 179 -45 l 1,3,-1
 101 18 l 1,4,-1
 172 99 l 1,5,6
 123 169 123 169 123 277 c 0,7,8
 123 355 123 355 150 432 c 128,-1,9
 177 509 177 509 227.5 570.5 c 128,-1,10
 278 632 278 632 351 670.5 c 128,-1,11
 424 709 424 709 516 709 c 0,12,13
 606 709 606 709 672 667 c 1,14,-1
 734 738 l 1,15,-1
 812 675 l 1,16,-1
 744 597 l 1,17,18
 768 562 768 562 781 517 c 128,-1,19
 794 472 794 472 794 418 c 0,20,21
 794 340 794 340 767.5 262.5 c 128,-1,22
 741 185 741 185 690.5 123.5 c 128,-1,23
 640 62 640 62 567 24 c 128,-1,24
 494 -14 494 -14 401 -14 c 0,0,1
639 412 m 0,25,26
 639 444 639 444 633 471 c 1,27,-1
 336 135 l 1,28,29
 365 115 365 115 411 115 c 256,30,31
 457 115 457 115 498.5 140.5 c 128,-1,32
 540 166 540 166 571 208 c 128,-1,33
 602 250 602 250 620.5 303 c 128,-1,34
 639 356 639 356 639 412 c 0,25,26
505 580 m 0,35,36
 458 580 458 580 417 554 c 128,-1,37
 376 528 376 528 345 486 c 128,-1,38
 314 444 314 444 296 390.5 c 128,-1,39
 278 337 278 337 278 282 c 0,40,41
 278 266 278 266 279 252 c 128,-1,42
 280 238 280 238 283 225 c 1,43,-1
 578 560 l 1,44,45
 549 580 549 580 505 580 c 0,35,36
EndSplineSet
EndChar

StartChar: Thorn
Encoding: 222 222 185
Width: 643
Flags: W
LayerCount: 2
Fore
SplineSet
453 596 m 0,0,1
 516 596 516 596 561 580 c 128,-1,2
 606 564 606 564 635.5 537 c 128,-1,3
 665 510 665 510 679 475 c 128,-1,4
 693 440 693 440 693 402 c 0,5,6
 693 356 693 356 673.5 307.5 c 128,-1,7
 654 259 654 259 610.5 219 c 128,-1,8
 567 179 567 179 497.5 153.5 c 128,-1,9
 428 128 428 128 329 128 c 2,10,-1
 260 128 l 1,11,-1
 229 0 l 1,12,-1
 74 0 l 1,13,-1
 240 693 l 1,14,-1
 396 693 l 1,15,-1
 372 593 l 1,16,17
 379 594 379 594 390.5 594.5 c 128,-1,18
 402 595 402 595 414 595.5 c 128,-1,19
 426 596 426 596 436.5 596 c 128,-1,20
 447 596 447 596 453 596 c 0,0,1
403 464 m 0,21,22
 386 464 386 464 369 463 c 128,-1,23
 352 462 352 462 340 461 c 1,24,-1
 292 261 l 1,25,-1
 341 261 l 2,26,27
 383 261 383 261 418 267.5 c 128,-1,28
 453 274 453 274 478.5 289 c 128,-1,29
 504 304 504 304 518 329 c 128,-1,30
 532 354 532 354 532 392 c 0,31,32
 532 433 532 433 497 448.5 c 128,-1,33
 462 464 462 464 403 464 c 0,21,22
EndSplineSet
EndChar

StartChar: germandbls
Encoding: 223 223 186
Width: 637
Flags: W
LayerCount: 2
Fore
SplineSet
209 568 m 2,0,1
 222 625 222 625 248.5 664.5 c 128,-1,2
 275 704 275 704 310 729 c 128,-1,3
 345 754 345 754 386.5 765 c 128,-1,4
 428 776 428 776 471 776 c 0,5,6
 511 776 511 776 548.5 765.5 c 128,-1,7
 586 755 586 755 614.5 736 c 128,-1,8
 643 717 643 717 660 689.5 c 128,-1,9
 677 662 677 662 677 628 c 256,10,11
 677 594 677 594 661.5 560 c 128,-1,12
 646 526 646 526 613 495 c 0,13,14
 598 481 598 481 583.5 468 c 128,-1,15
 569 455 569 455 557.5 442 c 128,-1,16
 546 429 546 429 538.5 415 c 128,-1,17
 531 401 531 401 531 386 c 0,18,19
 531 365 531 365 550 349.5 c 128,-1,20
 569 334 569 334 593 316 c 2,21,-1
 613 301 l 2,22,23
 640 281 640 281 654 250 c 128,-1,24
 668 219 668 219 668 184 c 0,25,26
 668 134 668 134 648 97 c 128,-1,27
 628 60 628 60 595 36 c 128,-1,28
 562 12 562 12 519.5 0 c 128,-1,29
 477 -12 477 -12 432 -12 c 0,30,31
 392 -12 392 -12 353.5 -3 c 128,-1,32
 315 6 315 6 282 24 c 1,33,-1
 335 141 l 1,34,35
 364 124 364 124 390 117 c 128,-1,36
 416 110 416 110 438 110 c 0,37,38
 475 110 475 110 497 126.5 c 128,-1,39
 519 143 519 143 519 168 c 0,40,41
 519 181 519 181 511 194.5 c 128,-1,42
 503 208 503 208 486 221 c 2,43,-1
 441 254 l 2,44,45
 402 283 402 283 390 310 c 128,-1,46
 378 337 378 337 378 366 c 0,47,48
 378 396 378 396 389.5 420 c 128,-1,49
 401 444 401 444 418.5 464 c 128,-1,50
 436 484 436 484 456.5 500.5 c 128,-1,51
 477 517 477 517 494.5 533.5 c 128,-1,52
 512 550 512 550 523.5 567 c 128,-1,53
 535 584 535 584 535 605 c 0,54,55
 535 628 535 628 513 639 c 128,-1,56
 491 650 491 650 462 650 c 0,57,58
 426 650 426 650 395 627 c 128,-1,59
 364 604 364 604 350 548 c 2,60,-1
 255 149 l 2,61,62
 221 6 221 6 181 -73.5 c 128,-1,63
 141 -153 141 -153 93 -189 c 1,64,-1
 -36 -170 l 1,65,66
 -10 -146 -10 -146 12 -111 c 128,-1,67
 34 -76 34 -76 51.5 -37 c 128,-1,68
 69 2 69 2 81.5 42.5 c 128,-1,69
 94 83 94 83 102 118 c 2,70,-1
 209 568 l 2,0,1
EndSplineSet
EndChar

StartChar: ae
Encoding: 230 230 193
Width: 837
Flags: W
LayerCount: 2
Fore
SplineSet
176 511 m 1,0,1
 211 523 211 523 253 531.5 c 128,-1,2
 295 540 295 540 337 540 c 0,3,4
 394 540 394 540 443 521 c 128,-1,5
 492 502 492 502 522 453 c 1,6,7
 541 474 541 474 565 490.5 c 128,-1,8
 589 507 589 507 615 518 c 128,-1,9
 641 529 641 529 668.5 534.5 c 128,-1,10
 696 540 696 540 722 540 c 0,11,12
 755 540 755 540 785 531 c 128,-1,13
 815 522 815 522 837.5 503.5 c 128,-1,14
 860 485 860 485 873.5 457 c 128,-1,15
 887 429 887 429 887 392 c 0,16,17
 887 336 887 336 862.5 297 c 128,-1,18
 838 258 838 258 794 233.5 c 128,-1,19
 750 209 750 209 690 198 c 128,-1,20
 630 187 630 187 558 187 c 1,21,22
 565 145 565 145 588.5 127.5 c 128,-1,23
 612 110 612 110 663 110 c 0,24,25
 695 110 695 110 728 115.5 c 128,-1,26
 761 121 761 121 790 132 c 1,27,-1
 801 15 l 1,28,29
 763 2 763 2 721.5 -6 c 128,-1,30
 680 -14 680 -14 638 -14 c 0,31,32
 583 -14 583 -14 535 4.5 c 128,-1,33
 487 23 487 23 455 71 c 1,34,35
 438 51 438 51 414.5 35 c 128,-1,36
 391 19 391 19 364.5 8 c 128,-1,37
 338 -3 338 -3 310 -8.5 c 128,-1,38
 282 -14 282 -14 255 -14 c 0,39,40
 222 -14 222 -14 192.5 -5.5 c 128,-1,41
 163 3 163 3 140 21 c 128,-1,42
 117 39 117 39 103.5 67 c 128,-1,43
 90 95 90 95 90 134 c 0,44,45
 90 190 90 190 114.5 229 c 128,-1,46
 139 268 139 268 183 292.5 c 128,-1,47
 227 317 227 317 287 328 c 128,-1,48
 347 339 347 339 419 339 c 1,49,50
 412 381 412 381 388.5 398.5 c 128,-1,51
 365 416 365 416 314 416 c 0,52,53
 282 416 282 416 249 410.5 c 128,-1,54
 216 405 216 405 187 394 c 1,55,-1
 176 511 l 1,0,1
279 104 m 0,56,57
 330 104 330 104 366.5 140.5 c 128,-1,58
 403 177 403 177 415 237 c 1,59,60
 353 235 353 235 315.5 226.5 c 128,-1,61
 278 218 278 218 258 206 c 128,-1,62
 238 194 238 194 231.5 179.5 c 128,-1,63
 225 165 225 165 225 152 c 0,64,65
 225 104 225 104 279 104 c 0,56,57
698 422 m 0,66,67
 647 422 647 422 610.5 385.5 c 128,-1,68
 574 349 574 349 562 289 c 1,69,70
 624 291 624 291 661.5 299.5 c 128,-1,71
 699 308 699 308 719 320 c 128,-1,72
 739 332 739 332 745.5 346 c 128,-1,73
 752 360 752 360 752 374 c 0,74,75
 752 422 752 422 698 422 c 0,66,67
EndSplineSet
Substitution2: "'case' Case-Sensitive Forms lookup 19 subtable" AE
EndChar

StartChar: ccedilla
Encoding: 231 231 194
Width: 480
Flags: W
LayerCount: 2
Fore
SplineSet
100 210 m 0,0,1
 100 278 100 278 122 338 c 128,-1,2
 144 398 144 398 185 443 c 128,-1,3
 226 488 226 488 284.5 514 c 128,-1,4
 343 540 343 540 415 540 c 0,5,6
 460 540 460 540 495.5 531.5 c 128,-1,7
 531 523 531 523 560 509 c 1,8,-1
 509 393 l 1,9,10
 489 401 489 401 467.5 407.5 c 128,-1,11
 446 414 446 414 415 414 c 0,12,13
 340 414 340 414 297 363.5 c 128,-1,14
 254 313 254 313 254 226 c 0,15,16
 254 175 254 175 276 143.5 c 128,-1,17
 298 112 298 112 357 112 c 0,18,19
 386 112 386 112 413 118 c 128,-1,20
 440 124 440 124 461 133 c 1,21,-1
 472 14 l 1,22,23
 446 4 446 4 415 -4 c 128,-1,24
 384 -12 384 -12 342 -14 c 1,25,26
 336 -22 336 -22 331 -30 c 128,-1,27
 326 -38 326 -38 322 -44 c 1,28,29
 344 -55 344 -55 355 -73 c 128,-1,30
 366 -91 366 -91 366 -111 c 0,31,32
 366 -140 366 -140 354.5 -161 c 128,-1,33
 343 -182 343 -182 323.5 -195.5 c 128,-1,34
 304 -209 304 -209 279 -215 c 128,-1,35
 254 -221 254 -221 228 -221 c 0,36,37
 201 -221 201 -221 174.5 -215 c 128,-1,38
 148 -209 148 -209 127 -198 c 1,39,-1
 163 -116 l 1,40,41
 176 -122 176 -122 192.5 -126 c 128,-1,42
 209 -130 209 -130 224 -130 c 0,43,44
 264 -130 264 -130 264 -106 c 0,45,46
 264 -95 264 -95 257 -88 c 128,-1,47
 250 -81 250 -81 234 -74 c 2,48,-1
 214 -65 l 1,49,-1
 254 -5 l 1,50,51
 213 5 213 5 184 25.5 c 128,-1,52
 155 46 155 46 136 74.5 c 128,-1,53
 117 103 117 103 108.5 137.5 c 128,-1,54
 100 172 100 172 100 210 c 0,0,1
EndSplineSet
Substitution2: "'case' Case-Sensitive Forms lookup 19 subtable" Ccedilla
EndChar

StartChar: eth
Encoding: 240 240 203
Width: 606
Flags: W
LayerCount: 2
Fore
SplineSet
587 612 m 1,0,1
 610 564 610 564 620 510.5 c 128,-1,2
 630 457 630 457 630 397 c 0,3,4
 630 312 630 312 610 237 c 128,-1,5
 590 162 590 162 549.5 106.5 c 128,-1,6
 509 51 509 51 448 18.5 c 128,-1,7
 387 -14 387 -14 305 -14 c 0,8,9
 256 -14 256 -14 218 3 c 128,-1,10
 180 20 180 20 153.5 49 c 128,-1,11
 127 78 127 78 113.5 117.5 c 128,-1,12
 100 157 100 157 100 201 c 0,13,14
 100 282 100 282 125 337 c 128,-1,15
 150 392 150 392 189.5 425.5 c 128,-1,16
 229 459 229 459 277.5 474 c 128,-1,17
 326 489 326 489 374 489 c 0,18,19
 406 489 406 489 435 482.5 c 128,-1,20
 464 476 464 476 488 465 c 1,21,22
 485 495 485 495 479.5 521.5 c 128,-1,23
 474 548 474 548 463 573 c 1,24,-1
 345 535 l 1,25,-1
 334 618 l 1,26,-1
 418 645 l 1,27,28
 404 661 404 661 386.5 677 c 128,-1,29
 369 693 369 693 346 709 c 1,30,-1
 445 776 l 1,31,32
 502 738 502 738 543 685 c 1,33,-1
 686 732 l 1,34,-1
 696 647 l 1,35,-1
 587 612 l 1,0,1
323 115 m 0,36,37
 359 115 359 115 386 135.5 c 128,-1,38
 413 156 413 156 431.5 189 c 128,-1,39
 450 222 450 222 460.5 263.5 c 128,-1,40
 471 305 471 305 474 346 c 1,41,42
 421 371 421 371 378 371 c 0,43,44
 346 371 346 371 322 358 c 128,-1,45
 298 345 298 345 282 322 c 128,-1,46
 266 299 266 299 258 268.5 c 128,-1,47
 250 238 250 238 250 203 c 0,48,49
 250 167 250 167 267.5 141 c 128,-1,50
 285 115 285 115 323 115 c 0,36,37
EndSplineSet
Substitution2: "'case' Case-Sensitive Forms lookup 19 subtable" Eth
EndChar

StartChar: divide
Encoding: 247 247 210
Width: 568
Flags: W
LayerCount: 2
Fore
SplineSet
121 361 m 1,0,-1
 591 361 l 1,1,-1
 560 236 l 1,2,-1
 90 236 l 1,3,-1
 121 361 l 1,0,-1
296 181 m 0,4,5
 328 181 328 181 349.5 163 c 128,-1,6
 371 145 371 145 371 107 c 0,7,8
 371 62 371 62 342.5 36.5 c 128,-1,9
 314 11 314 11 278 11 c 0,10,11
 246 11 246 11 224.5 29 c 128,-1,12
 203 47 203 47 203 85 c 0,13,14
 203 130 203 130 231.5 155.5 c 128,-1,15
 260 181 260 181 296 181 c 0,4,5
393 585 m 0,16,17
 425 585 425 585 446.5 567 c 128,-1,18
 468 549 468 549 468 511 c 0,19,20
 468 466 468 466 439.5 440.5 c 128,-1,21
 411 415 411 415 375 415 c 0,22,23
 343 415 343 415 321.5 433 c 128,-1,24
 300 451 300 451 300 489 c 0,25,26
 300 534 300 534 328.5 559.5 c 128,-1,27
 357 585 357 585 393 585 c 0,16,17
EndSplineSet
EndChar

StartChar: oslash
Encoding: 248 248 211
Width: 574
Flags: W
LayerCount: 2
Fore
SplineSet
274 116 m 1,0,1
 294 109 294 109 318 109 c 0,2,3
 357 109 357 109 384 128.5 c 128,-1,4
 411 148 411 148 428 179.5 c 128,-1,5
 445 211 445 211 452.5 250 c 128,-1,6
 460 289 460 289 460 328 c 1,7,-1
 274 116 l 1,0,1
308 -14 m 0,8,9
 270 -14 270 -14 240 -5.5 c 128,-1,10
 210 3 210 3 186 17 c 1,11,-1
 137 -39 l 1,12,-1
 72 14 l 1,13,-1
 129 79 l 1,14,15
 100 132 100 132 100 203 c 0,16,17
 100 263 100 263 119.5 323 c 128,-1,18
 139 383 139 383 177 431 c 128,-1,19
 215 479 215 479 270 509.5 c 128,-1,20
 325 540 325 540 396 540 c 0,21,22
 430 540 430 540 458.5 533 c 128,-1,23
 487 526 487 526 510 513 c 1,24,-1
 556 566 l 1,25,-1
 621 513 l 1,26,-1
 570 455 l 1,27,28
 587 429 587 429 595.5 395 c 128,-1,29
 604 361 604 361 604 323 c 0,30,31
 604 263 604 263 585 203 c 128,-1,32
 566 143 566 143 529 95 c 128,-1,33
 492 47 492 47 436.5 16.5 c 128,-1,34
 381 -14 381 -14 308 -14 c 0,8,9
425 416 m 1,35,36
 405 423 405 423 381 423 c 0,37,38
 342 423 342 423 315 403.5 c 128,-1,39
 288 384 288 384 271 352.5 c 128,-1,40
 254 321 254 321 246.5 282 c 128,-1,41
 239 243 239 243 239 204 c 1,42,-1
 425 416 l 1,35,36
EndSplineSet
Substitution2: "'case' Case-Sensitive Forms lookup 19 subtable" Oslash
EndChar

StartChar: thorn
Encoding: 254 254 217
Width: 578
Flags: W
LayerCount: 2
Fore
SplineSet
347 536 m 1,0,1
 358 537 358 537 370 537.5 c 128,-1,2
 382 538 382 538 394 538 c 0,3,4
 450 538 450 538 490.5 521 c 128,-1,5
 531 504 531 504 557 474.5 c 128,-1,6
 583 445 583 445 595.5 405.5 c 128,-1,7
 608 366 608 366 608 321 c 0,8,9
 608 248 608 248 584.5 187 c 128,-1,10
 561 126 561 126 518 82.5 c 128,-1,11
 475 39 475 39 416 14.5 c 128,-1,12
 357 -10 357 -10 286 -10 c 0,13,14
 253 -10 253 -10 217 -4 c 1,15,-1
 174 -185 l 1,16,-1
 26 -185 l 1,17,-1
 250 752 l 1,18,-1
 405 776 l 1,19,-1
 347 536 l 1,0,1
375 413 m 0,20,21
 344 413 344 413 316 407 c 1,22,-1
 246 115 l 1,23,24
 257 113 257 113 267 112.5 c 128,-1,25
 277 112 277 112 287 112 c 0,26,27
 328 112 328 112 360 126.5 c 128,-1,28
 392 141 392 141 414.5 167 c 128,-1,29
 437 193 437 193 448.5 229.5 c 128,-1,30
 460 266 460 266 460 310 c 0,31,32
 460 353 460 353 441 383 c 128,-1,33
 422 413 422 413 375 413 c 0,20,21
EndSplineSet
Substitution2: "'case' Case-Sensitive Forms lookup 19 subtable" Thorn
EndChar

StartChar: Aogonek
Encoding: 260 260 223
Width: 714
Flags: W
LayerCount: 2
Fore
SplineSet
532 0 m 1,0,1
 530 39 530 39 527.5 76.5 c 128,-1,2
 525 114 525 114 522 151 c 1,3,-1
 262 151 l 1,4,5
 242 114 242 114 220 76.5 c 128,-1,6
 198 39 198 39 178 0 c 1,7,-1
 15 0 l 1,8,9
 80 112 80 112 136.5 207 c 128,-1,10
 193 302 193 302 245.5 386 c 128,-1,11
 298 470 298 470 348 545.5 c 128,-1,12
 398 621 398 621 450 693 c 1,13,-1
 589 693 l 1,14,15
 605 621 605 621 619.5 533.5 c 128,-1,16
 634 446 634 446 646.5 354.5 c 128,-1,17
 659 263 659 263 669.5 171.5 c 128,-1,18
 680 80 680 80 689 0 c 1,19,-1
 685 -3 l 2,20,21
 634 -38 634 -38 614 -61 c 128,-1,22
 594 -84 594 -84 594 -97 c 0,23,24
 594 -113 594 -113 619 -113 c 0,25,26
 633 -113 633 -113 649 -108.5 c 128,-1,27
 665 -104 665 -104 672 -102 c 1,28,-1
 662 -201 l 1,29,30
 642 -210 642 -210 617.5 -215.5 c 128,-1,31
 593 -221 593 -221 567 -221 c 0,32,33
 546 -221 546 -221 526 -216.5 c 128,-1,34
 506 -212 506 -212 490.5 -202 c 128,-1,35
 475 -192 475 -192 466 -176 c 128,-1,36
 457 -160 457 -160 457 -136 c 0,37,38
 457 -106 457 -106 478 -74 c 128,-1,39
 499 -42 499 -42 547 -13 c 2,40,-1
 569 0 l 1,41,-1
 532 0 l 1,0,1
486 541 m 1,42,43
 444 474 444 474 403.5 408 c 128,-1,44
 363 342 363 342 325 273 c 1,45,-1
 512 273 l 1,46,47
 507 334 507 334 501.5 403 c 128,-1,48
 496 472 496 472 486 541 c 1,42,43
EndSplineSet
EndChar

StartChar: aogonek
Encoding: 261 261 224
Width: 588
Flags: W
LayerCount: 2
Fore
SplineSet
563 227 m 2,0,1
 549 170 549 170 555 112.5 c 128,-1,2
 561 55 561 55 578 10 c 1,3,-1
 559 -3 l 2,4,5
 508 -38 508 -38 488 -61 c 128,-1,6
 468 -84 468 -84 468 -97 c 0,7,8
 468 -113 468 -113 493 -113 c 0,9,10
 507 -113 507 -113 523 -108.5 c 128,-1,11
 539 -104 539 -104 546 -102 c 1,12,-1
 536 -201 l 1,13,14
 516 -210 516 -210 491.5 -215.5 c 128,-1,15
 467 -221 467 -221 441 -221 c 0,16,17
 420 -221 420 -221 400 -216.5 c 128,-1,18
 380 -212 380 -212 364.5 -202 c 128,-1,19
 349 -192 349 -192 340 -176 c 128,-1,20
 331 -160 331 -160 331 -136 c 0,21,22
 331 -106 331 -106 352 -74 c 128,-1,23
 373 -42 373 -42 421 -13 c 2,24,-1
 441 -1 l 1,25,26
 436 8 436 8 432 18 c 128,-1,27
 428 28 428 28 424 39 c 1,28,29
 396 16 396 16 362 1 c 128,-1,30
 328 -14 328 -14 286 -14 c 0,31,32
 236 -14 236 -14 200.5 3.5 c 128,-1,33
 165 21 165 21 142.5 50.5 c 128,-1,34
 120 80 120 80 110 119.5 c 128,-1,35
 100 159 100 159 100 204 c 0,36,37
 100 273 100 273 124.5 334 c 128,-1,38
 149 395 149 395 192.5 440.5 c 128,-1,39
 236 486 236 486 295 512 c 128,-1,40
 354 538 354 538 423 538 c 0,41,42
 432 538 432 538 454.5 537 c 128,-1,43
 477 536 477 536 506 532.5 c 128,-1,44
 535 529 535 529 567 521 c 128,-1,45
 599 513 599 513 628 499 c 1,46,-1
 563 227 l 2,0,1
459 411 m 1,47,48
 446 413 446 413 435.5 414 c 128,-1,49
 425 415 425 415 410 415 c 0,50,51
 376 415 376 415 346.5 398 c 128,-1,52
 317 381 317 381 295 353.5 c 128,-1,53
 273 326 273 326 260.5 290 c 128,-1,54
 248 254 248 254 248 215 c 0,55,56
 248 167 248 167 264 139 c 128,-1,57
 280 111 280 111 323 111 c 0,58,59
 346 111 346 111 364.5 120 c 128,-1,60
 383 129 383 129 404 150 c 1,61,62
 406 175 406 175 410.5 202.5 c 128,-1,63
 415 230 415 230 420 253 c 2,64,-1
 459 411 l 1,47,48
EndSplineSet
Substitution2: "'case' Case-Sensitive Forms lookup 19 subtable" Aogonek
EndChar

StartChar: dcroat
Encoding: 273 273 236
Width: 590
Flags: W
LayerCount: 2
Fore
SplineSet
287 -14 m 0,0,1
 237 -14 237 -14 201.5 3 c 128,-1,2
 166 20 166 20 143.5 49.5 c 128,-1,3
 121 79 121 79 110.5 118.5 c 128,-1,4
 100 158 100 158 100 203 c 0,5,6
 100 271 100 271 124.5 331.5 c 128,-1,7
 149 392 149 392 192 437 c 128,-1,8
 235 482 235 482 294 508 c 128,-1,9
 353 534 353 534 423 534 c 0,10,11
 441 534 441 534 456.5 532 c 128,-1,12
 472 530 472 530 488 526 c 1,13,-1
 504 596 l 1,14,-1
 373 596 l 1,15,-1
 395 689 l 1,16,-1
 527 689 l 1,17,-1
 542 752 l 1,18,-1
 697 776 l 1,19,-1
 676 689 l 1,20,-1
 749 689 l 1,21,-1
 727 596 l 1,22,-1
 653 596 l 1,23,-1
 565 227 l 2,24,25
 551 170 551 170 557 112.5 c 128,-1,26
 563 55 563 55 580 10 c 1,27,-1
 447 -9 l 1,28,29
 441 3 441 3 436 14 c 128,-1,30
 431 25 431 25 426 39 c 1,31,32
 398 16 398 16 363.5 1 c 128,-1,33
 329 -14 329 -14 287 -14 c 0,0,1
459 407 m 1,34,35
 453 408 453 408 448.5 409 c 128,-1,36
 444 410 444 410 439.5 410.5 c 128,-1,37
 435 411 435 411 428 411 c 128,-1,38
 421 411 421 411 410 411 c 0,39,40
 375 411 375 411 345 394.5 c 128,-1,41
 315 378 315 378 293.5 350 c 128,-1,42
 272 322 272 322 260 286.5 c 128,-1,43
 248 251 248 251 248 214 c 0,44,45
 248 166 248 166 264.5 138.5 c 128,-1,46
 281 111 281 111 324 111 c 0,47,48
 347 111 347 111 366 120 c 128,-1,49
 385 129 385 129 406 150 c 1,50,51
 408 175 408 175 412.5 202.5 c 128,-1,52
 417 230 417 230 422 253 c 2,53,-1
 459 407 l 1,34,35
EndSplineSet
Substitution2: "'case' Case-Sensitive Forms lookup 19 subtable" Dcroat
EndChar

StartChar: Eogonek
Encoding: 280 280 243
Width: 594
Flags: W
LayerCount: 2
Fore
SplineSet
75 0 m 1,0,-1
 241 693 l 1,1,-1
 694 693 l 1,2,-1
 662 565 l 1,3,-1
 365 565 l 1,4,-1
 333 425 l 1,5,-1
 595 425 l 1,6,-1
 564 299 l 1,7,-1
 302 299 l 1,8,-1
 262 129 l 1,9,-1
 582 129 l 1,10,-1
 550 0 l 1,11,-1
 546 -3 l 2,12,13
 495 -38 495 -38 475 -61 c 128,-1,14
 455 -84 455 -84 455 -97 c 0,15,16
 455 -113 455 -113 480 -113 c 0,17,18
 494 -113 494 -113 510 -108.5 c 128,-1,19
 526 -104 526 -104 533 -102 c 1,20,-1
 523 -201 l 1,21,22
 503 -210 503 -210 478.5 -215.5 c 128,-1,23
 454 -221 454 -221 428 -221 c 0,24,25
 407 -221 407 -221 387 -216.5 c 128,-1,26
 367 -212 367 -212 351.5 -202 c 128,-1,27
 336 -192 336 -192 327 -176 c 128,-1,28
 318 -160 318 -160 318 -136 c 0,29,30
 318 -106 318 -106 339 -74 c 128,-1,31
 360 -42 360 -42 408 -13 c 2,32,-1
 430 0 l 1,33,-1
 75 0 l 1,0,-1
EndSplineSet
EndChar

StartChar: eogonek
Encoding: 281 281 244
Width: 530
Flags: W
LayerCount: 2
Fore
SplineSet
100 206 m 0,0,1
 100 270 100 270 122.5 330 c 128,-1,2
 145 390 145 390 186 436.5 c 128,-1,3
 227 483 227 483 285.5 511.5 c 128,-1,4
 344 540 344 540 415 540 c 0,5,6
 450 540 450 540 480 530 c 128,-1,7
 510 520 510 520 532.5 501 c 128,-1,8
 555 482 555 482 567.5 454.5 c 128,-1,9
 580 427 580 427 580 392 c 0,10,11
 580 336 580 336 555 297 c 128,-1,12
 530 258 530 258 485.5 233.5 c 128,-1,13
 441 209 441 209 380 198 c 128,-1,14
 319 187 319 187 247 187 c 1,15,16
 254 145 254 145 277.5 127.5 c 128,-1,17
 301 110 301 110 352 110 c 0,18,19
 384 110 384 110 417 115.5 c 128,-1,20
 450 121 450 121 479 132 c 1,21,-1
 490 15 l 1,22,-1
 464 -3 l 2,23,24
 413 -38 413 -38 393 -61 c 128,-1,25
 373 -84 373 -84 373 -97 c 0,26,27
 373 -113 373 -113 398 -113 c 0,28,29
 412 -113 412 -113 428 -108.5 c 128,-1,30
 444 -104 444 -104 451 -102 c 1,31,-1
 441 -201 l 1,32,33
 421 -210 421 -210 396.5 -215.5 c 128,-1,34
 372 -221 372 -221 346 -221 c 0,35,36
 325 -221 325 -221 305 -216.5 c 128,-1,37
 285 -212 285 -212 269.5 -202 c 128,-1,38
 254 -192 254 -192 245 -176 c 128,-1,39
 236 -160 236 -160 236 -136 c 0,40,41
 236 -106 236 -106 256 -74.5 c 128,-1,42
 276 -43 276 -43 324 -14 c 1,43,44
 262 -14 262 -14 219.5 3.5 c 128,-1,45
 177 21 177 21 150.5 51 c 128,-1,46
 124 81 124 81 112 121 c 128,-1,47
 100 161 100 161 100 206 c 0,0,1
391 422 m 0,48,49
 340 422 340 422 301.5 385.5 c 128,-1,50
 263 349 263 349 251 289 c 1,51,52
 313 291 313 291 351 299.5 c 128,-1,53
 389 308 389 308 410 320 c 128,-1,54
 431 332 431 332 438 346 c 128,-1,55
 445 360 445 360 445 374 c 0,56,57
 445 422 445 422 391 422 c 0,48,49
EndSplineSet
Substitution2: "'case' Case-Sensitive Forms lookup 19 subtable" Eogonek
EndChar

StartChar: Hbar
Encoding: 294 294 257
Width: 714
Flags: W
LayerCount: 2
Fore
SplineSet
141 612 m 1,0,-1
 221 612 l 1,1,-1
 241 693 l 1,2,-1
 397 693 l 1,3,-1
 377 612 l 1,4,-1
 623 612 l 1,5,-1
 643 693 l 1,6,-1
 799 693 l 1,7,-1
 779 612 l 1,8,-1
 857 612 l 1,9,-1
 831 502 l 1,10,-1
 753 502 l 1,11,-1
 632 0 l 1,12,-1
 476 0 l 1,13,-1
 547 295 l 1,14,-1
 301 295 l 1,15,-1
 230 0 l 1,16,-1
 75 0 l 1,17,-1
 195 502 l 1,18,-1
 115 502 l 1,19,-1
 141 612 l 1,0,-1
597 502 m 1,20,-1
 351 502 l 1,21,-1
 333 427 l 1,22,-1
 579 427 l 1,23,-1
 597 502 l 1,20,-1
EndSplineSet
EndChar

StartChar: hbar
Encoding: 295 295 258
Width: 565
Flags: W
LayerCount: 2
Fore
SplineSet
423 523 m 0,0,1
 464 523 464 523 495 510 c 128,-1,2
 526 497 526 497 546.5 473.5 c 128,-1,3
 567 450 567 450 577.5 418.5 c 128,-1,4
 588 387 588 387 588 350 c 0,5,6
 588 332 588 332 585.5 312 c 128,-1,7
 583 292 583 292 578 272 c 2,8,-1
 512 0 l 1,9,-1
 363 0 l 1,10,-1
 427 266 l 2,11,12
 430 280 430 280 433.5 297.5 c 128,-1,13
 437 315 437 315 437 332 c 0,14,15
 437 360 437 360 424 380.5 c 128,-1,16
 411 401 411 401 373 401 c 0,17,18
 357 401 357 401 342.5 399 c 128,-1,19
 328 397 328 397 314 394 c 1,20,-1
 219 0 l 1,21,-1
 70 0 l 1,22,-1
 212 596 l 1,23,-1
 150 596 l 1,24,-1
 173 689 l 1,25,-1
 235 689 l 1,26,-1
 250 752 l 1,27,-1
 405 776 l 1,28,-1
 384 689 l 1,29,-1
 527 689 l 1,30,-1
 504 596 l 1,31,-1
 362 596 l 1,32,-1
 342 513 l 1,33,34
 362 517 362 517 382.5 520 c 128,-1,35
 403 523 403 523 423 523 c 0,0,1
EndSplineSet
Substitution2: "'case' Case-Sensitive Forms lookup 19 subtable" Hbar
EndChar

StartChar: Iogonek
Encoding: 302 302 265
Width: 312
Flags: W
LayerCount: 2
Fore
SplineSet
241 693 m 1,0,-1
 397 693 l 1,1,-1
 230 0 l 1,2,-1
 229 0 l 1,3,4
 215 -10 215 -10 198 -22 c 128,-1,5
 181 -34 181 -34 167 -47 c 128,-1,6
 153 -60 153 -60 143.5 -72.5 c 128,-1,7
 134 -85 134 -85 134 -96 c 0,8,9
 134 -104 134 -104 139.5 -108.5 c 128,-1,10
 145 -113 145 -113 159 -113 c 0,11,12
 168 -113 168 -113 181 -111.5 c 128,-1,13
 194 -110 194 -110 212 -105 c 1,14,-1
 200 -205 l 1,15,16
 179 -213 179 -213 149.5 -217 c 128,-1,17
 120 -221 120 -221 97 -221 c 0,18,19
 49 -221 49 -221 23 -199.5 c 128,-1,20
 -3 -178 -3 -178 -3 -144 c 0,21,22
 -3 -123 -3 -123 7 -103 c 128,-1,23
 17 -83 17 -83 32.5 -65 c 128,-1,24
 48 -47 48 -47 68 -30.5 c 128,-1,25
 88 -14 88 -14 109 0 c 1,26,-1
 75 0 l 1,27,-1
 241 693 l 1,0,-1
EndSplineSet
EndChar

StartChar: iogonek
Encoding: 303 303 266
Width: 283
Flags: W
LayerCount: 2
Fore
SplineSet
218 0 m 1,0,1
 204 -10 204 -10 187 -22.5 c 128,-1,2
 170 -35 170 -35 156 -47.5 c 128,-1,3
 142 -60 142 -60 132.5 -72.5 c 128,-1,4
 123 -85 123 -85 123 -96 c 0,5,6
 123 -104 123 -104 128.5 -108.5 c 128,-1,7
 134 -113 134 -113 148 -113 c 0,8,9
 157 -113 157 -113 170 -111.5 c 128,-1,10
 183 -110 183 -110 201 -105 c 1,11,-1
 189 -205 l 1,12,13
 168 -213 168 -213 138.5 -217 c 128,-1,14
 109 -221 109 -221 86 -221 c 0,15,16
 38 -221 38 -221 12 -199.5 c 128,-1,17
 -14 -178 -14 -178 -14 -144 c 0,18,19
 -14 -123 -14 -123 -4 -103 c 128,-1,20
 6 -83 6 -83 21.5 -65 c 128,-1,21
 37 -47 37 -47 57 -30.5 c 128,-1,22
 77 -14 77 -14 98 0 c 1,23,-1
 70 0 l 1,24,-1
 195 526 l 1,25,-1
 344 526 l 1,26,-1
 218 0 l 1,0,1
290 590 m 0,27,28
 259 590 259 590 234 608.5 c 128,-1,29
 209 627 209 627 209 665 c 0,30,31
 209 686 209 686 217.5 704.5 c 128,-1,32
 226 723 226 723 240 736.5 c 128,-1,33
 254 750 254 750 272.5 758 c 128,-1,34
 291 766 291 766 312 766 c 0,35,36
 343 766 343 766 368 747.5 c 128,-1,37
 393 729 393 729 393 691 c 0,38,39
 393 670 393 670 384.5 651.5 c 128,-1,40
 376 633 376 633 362 619.5 c 128,-1,41
 348 606 348 606 329.5 598 c 128,-1,42
 311 590 311 590 290 590 c 0,27,28
EndSplineSet
Substitution2: "'case' Case-Sensitive Forms lookup 19 subtable" Iogonek
EndChar

StartChar: dotlessi
Encoding: 305 305 268
Width: 283
Flags: W
LayerCount: 2
Fore
SplineSet
218 0 m 1,0,-1
 70 0 l 1,1,-1
 195 526 l 1,2,-1
 344 526 l 1,3,-1
 218 0 l 1,0,-1
EndSplineSet
EndChar

StartChar: kgreenlandic
Encoding: 312 312 277
Width: 574
Flags: W
LayerCount: 2
Fore
SplineSet
299 336 m 1,0,1
 326 360 326 360 354 386 c 128,-1,2
 382 412 382 412 408 437 c 128,-1,3
 434 462 434 462 457.5 485 c 128,-1,4
 481 508 481 508 499 526 c 1,5,-1
 679 526 l 1,6,7
 623 464 623 464 561 404 c 128,-1,8
 499 344 499 344 416 278 c 1,9,10
 437 252 437 252 458.5 218 c 128,-1,11
 480 184 480 184 499.5 147 c 128,-1,12
 519 110 519 110 535.5 72 c 128,-1,13
 552 34 552 34 563 0 c 1,14,-1
 397 0 l 1,15,16
 388 26 388 26 374.5 57 c 128,-1,17
 361 88 361 88 344.5 118.5 c 128,-1,18
 328 149 328 149 310 178 c 128,-1,19
 292 207 292 207 274 230 c 1,20,-1
 218 0 l 1,21,-1
 70 0 l 1,22,-1
 196 526 l 1,23,-1
 345 526 l 1,24,-1
 299 336 l 1,0,1
EndSplineSet
Substitution2: "'case' Case-Sensitive Forms lookup 19 subtable" kgreenlandic.case
EndChar

StartChar: Lslash
Encoding: 321 321 286
Width: 564
Flags: W
LayerCount: 2
Fore
SplineSet
569 132 m 1,0,-1
 537 0 l 1,1,-1
 75 0 l 1,2,-1
 136 256 l 1,3,-1
 62 223 l 1,4,-1
 38 324 l 1,5,-1
 166 382 l 1,6,-1
 241 693 l 1,7,-1
 397 693 l 1,8,-1
 341 460 l 1,9,-1
 473 520 l 1,10,-1
 498 419 l 1,11,-1
 311 335 l 1,12,-1
 262 132 l 1,13,-1
 569 132 l 1,0,-1
EndSplineSet
EndChar

StartChar: lslash
Encoding: 322 322 287
Width: 315
Flags: W
LayerCount: 2
Fore
SplineSet
268 -10 m 1,0,1
 197 -10 197 -10 156.5 8.5 c 128,-1,2
 116 27 116 27 98.5 59 c 128,-1,3
 81 91 81 91 81.5 132.5 c 128,-1,4
 82 174 82 174 93 221 c 2,5,-1
 117 322 l 1,6,-1
 70 301 l 1,7,-1
 48 393 l 1,8,-1
 144 436 l 1,9,-1
 220 752 l 1,10,-1
 375 776 l 1,11,-1
 311 510 l 1,12,-1
 413 556 l 1,13,-1
 435 464 l 1,14,-1
 283 396 l 1,15,-1
 236 200 l 2,16,17
 232 182 232 182 231.5 167 c 128,-1,18
 231 152 231 152 237 140.5 c 128,-1,19
 243 129 243 129 257.5 122 c 128,-1,20
 272 115 272 115 298 113 c 1,21,-1
 268 -10 l 1,0,1
EndSplineSet
Substitution2: "'case' Case-Sensitive Forms lookup 19 subtable" Lslash
EndChar

StartChar: Eng
Encoding: 330 330 296
Width: 742
Flags: W
LayerCount: 2
Fore
SplineSet
522 57 m 1,0,1
 483 162 483 162 436.5 265 c 128,-1,2
 390 368 390 368 338 459 c 1,3,-1
 228 0 l 1,4,-1
 75 0 l 1,5,-1
 241 693 l 1,6,-1
 360 693 l 1,7,8
 388 646 388 646 417 593.5 c 128,-1,9
 446 541 446 541 473.5 487 c 128,-1,10
 501 433 501 433 526.5 379 c 128,-1,11
 552 325 552 325 573 276 c 1,12,-1
 672 693 l 1,13,-1
 827 693 l 1,14,-1
 665 17 l 2,15,16
 642 -78 642 -78 591 -132.5 c 128,-1,17
 540 -187 540 -187 453 -187 c 0,18,19
 430 -187 430 -187 404.5 -183 c 128,-1,20
 379 -179 379 -179 350 -170 c 1,21,-1
 397 -52 l 1,22,23
 421 -61 421 -61 439 -61 c 0,24,25
 475 -61 475 -61 492 -29.5 c 128,-1,26
 509 2 509 2 522 57 c 1,0,1
EndSplineSet
EndChar

StartChar: eng
Encoding: 331 331 297
Width: 567
Flags: W
LayerCount: 2
Fore
SplineSet
191 502 m 1,0,1
 208 507 208 507 228.5 513.5 c 128,-1,2
 249 520 249 520 274.5 525.5 c 128,-1,3
 300 531 300 531 331.5 534.5 c 128,-1,4
 363 538 363 538 403 538 c 0,5,6
 521 538 521 538 565 470 c 128,-1,7
 609 402 609 402 580 284 c 2,8,-1
 505 -30 l 2,9,10
 494 -77 494 -77 473.5 -107 c 128,-1,11
 453 -137 453 -137 427 -155 c 128,-1,12
 401 -173 401 -173 371.5 -180 c 128,-1,13
 342 -187 342 -187 312 -187 c 0,14,15
 283 -187 283 -187 256.5 -182 c 128,-1,16
 230 -177 230 -177 209 -170 c 1,17,-1
 247 -63 l 1,18,19
 275 -74 275 -74 295 -74 c 0,20,21
 318 -74 318 -74 335 -58.5 c 128,-1,22
 352 -43 352 -43 362 -4 c 2,23,-1
 429 278 l 2,24,25
 435 304 435 304 438.5 328.5 c 128,-1,26
 442 353 442 353 438 371.5 c 128,-1,27
 434 390 434 390 419.5 401.5 c 128,-1,28
 405 413 405 413 375 413 c 0,29,30
 346 413 346 413 316 407 c 1,31,-1
 219 0 l 1,32,-1
 70 0 l 1,33,-1
 191 502 l 1,0,1
EndSplineSet
Substitution2: "'case' Case-Sensitive Forms lookup 19 subtable" Eng
EndChar

StartChar: Scedilla
Encoding: 350 350 314
Width: 559
Flags: W
LayerCount: 2
Fore
SplineSet
269 116 m 0,0,1
 292 116 292 116 315 119.5 c 128,-1,2
 338 123 338 123 356 132 c 128,-1,3
 374 141 374 141 385.5 157.5 c 128,-1,4
 397 174 397 174 397 200 c 0,5,6
 397 220 397 220 386 234.5 c 128,-1,7
 375 249 375 249 358 261 c 128,-1,8
 341 273 341 273 320 283 c 128,-1,9
 299 293 299 293 278 305 c 0,10,11
 251 321 251 321 227 339 c 128,-1,12
 203 357 203 357 186 379.5 c 128,-1,13
 169 402 169 402 159 429.5 c 128,-1,14
 149 457 149 457 149 493 c 0,15,16
 149 539 149 539 166.5 578.5 c 128,-1,17
 184 618 184 618 218.5 647 c 128,-1,18
 253 676 253 676 305 692.5 c 128,-1,19
 357 709 357 709 427 709 c 0,20,21
 459 709 459 709 489 703.5 c 128,-1,22
 519 698 519 698 545 690 c 128,-1,23
 571 682 571 682 592.5 671.5 c 128,-1,24
 614 661 614 661 629 651 c 1,25,-1
 564 536 l 1,26,27
 539 555 539 555 503 568 c 128,-1,28
 467 581 467 581 425 581 c 0,29,30
 402 581 402 581 381 577 c 128,-1,31
 360 573 360 573 344 563.5 c 128,-1,32
 328 554 328 554 318.5 539 c 128,-1,33
 309 524 309 524 309 502 c 0,34,35
 309 482 309 482 316.5 468.5 c 128,-1,36
 324 455 324 455 336 445 c 128,-1,37
 348 435 348 435 364 427 c 128,-1,38
 380 419 380 419 398 410 c 0,39,40
 429 394 429 394 458 376 c 128,-1,41
 487 358 487 358 509 334.5 c 128,-1,42
 531 311 531 311 544 281 c 128,-1,43
 557 251 557 251 557 210 c 0,44,45
 557 155 557 155 537.5 114 c 128,-1,46
 518 73 518 73 483 45.5 c 128,-1,47
 448 18 448 18 399 3.5 c 128,-1,48
 350 -11 350 -11 291 -13 c 1,49,-1
 271 -44 l 1,50,51
 293 -55 293 -55 304 -73 c 128,-1,52
 315 -91 315 -91 315 -111 c 0,53,54
 315 -140 315 -140 303.5 -161 c 128,-1,55
 292 -182 292 -182 272.5 -195.5 c 128,-1,56
 253 -209 253 -209 228 -215 c 128,-1,57
 203 -221 203 -221 177 -221 c 0,58,59
 150 -221 150 -221 123.5 -215 c 128,-1,60
 97 -209 97 -209 76 -198 c 1,61,-1
 112 -116 l 1,62,63
 125 -122 125 -122 141.5 -126 c 128,-1,64
 158 -130 158 -130 173 -130 c 0,65,66
 213 -130 213 -130 213 -106 c 0,67,68
 213 -95 213 -95 206 -88 c 128,-1,69
 199 -81 199 -81 183 -74 c 2,70,-1
 163 -65 l 1,71,72
 170 -54 170 -54 180.5 -38.5 c 128,-1,73
 191 -23 191 -23 201 -9 c 1,74,75
 143 0 143 0 101.5 18 c 128,-1,76
 60 36 60 36 40 50 c 1,77,-1
 106 169 l 1,78,79
 118 161 118 161 135 152 c 128,-1,80
 152 143 152 143 173.5 135 c 128,-1,81
 195 127 195 127 219 121.5 c 128,-1,82
 243 116 243 116 269 116 c 0,0,1
EndSplineSet
EndChar

StartChar: scedilla
Encoding: 351 351 315
Width: 483
Flags: W
LayerCount: 2
Fore
SplineSet
241 106 m 256,0,1
 292 106 292 106 311 120.5 c 128,-1,2
 330 135 330 135 330 152 c 0,3,4
 330 163 330 163 326.5 171 c 128,-1,5
 323 179 323 179 315 186 c 128,-1,6
 307 193 307 193 293 200.5 c 128,-1,7
 279 208 279 208 257 218 c 0,8,9
 232 229 232 229 210 241.5 c 128,-1,10
 188 254 188 254 171.5 271.5 c 128,-1,11
 155 289 155 289 145.5 311.5 c 128,-1,12
 136 334 136 334 136 365 c 0,13,14
 136 446 136 446 195.5 493 c 128,-1,15
 255 540 255 540 369 540 c 0,16,17
 423 540 423 540 465 528 c 128,-1,18
 507 516 507 516 533 502 c 1,19,-1
 482 391 l 1,20,21
 461 402 461 402 428 412 c 128,-1,22
 395 422 395 422 363 422 c 0,23,24
 349 422 349 422 335.5 420.5 c 128,-1,25
 322 419 322 419 310.5 414 c 128,-1,26
 299 409 299 409 292 400 c 128,-1,27
 285 391 285 391 285 376 c 0,28,29
 285 356 285 356 300.5 346 c 128,-1,30
 316 336 316 336 344 322 c 0,31,32
 383 303 383 303 409 287 c 128,-1,33
 435 271 435 271 450.5 253 c 128,-1,34
 466 235 466 235 473 212 c 128,-1,35
 480 189 480 189 480 158 c 0,36,37
 480 130 480 130 469.5 103 c 128,-1,38
 459 76 459 76 437.5 53 c 128,-1,39
 416 30 416 30 382 13.5 c 128,-1,40
 348 -3 348 -3 301 -10 c 1,41,42
 294 -19 294 -19 288 -28 c 128,-1,43
 282 -37 282 -37 278 -44 c 1,44,45
 300 -55 300 -55 311 -73 c 128,-1,46
 322 -91 322 -91 322 -111 c 0,47,48
 322 -140 322 -140 310.5 -161 c 128,-1,49
 299 -182 299 -182 279.5 -195.5 c 128,-1,50
 260 -209 260 -209 235 -215 c 128,-1,51
 210 -221 210 -221 184 -221 c 0,52,53
 157 -221 157 -221 130.5 -215 c 128,-1,54
 104 -209 104 -209 83 -198 c 1,55,-1
 119 -116 l 1,56,57
 132 -122 132 -122 148.5 -126 c 128,-1,58
 165 -130 165 -130 180 -130 c 0,59,60
 220 -130 220 -130 220 -106 c 0,61,62
 220 -95 220 -95 213 -88 c 128,-1,63
 206 -81 206 -81 190 -74 c 2,64,-1
 170 -65 l 1,65,66
 177 -54 177 -54 186.5 -40 c 128,-1,67
 196 -26 196 -26 205 -12 c 1,68,69
 143 -7 143 -7 105 7.5 c 128,-1,70
 67 22 67 22 50 32 c 1,71,-1
 101 146 l 1,72,73
 118 136 118 136 154 121 c 128,-1,74
 190 106 190 106 241 106 c 256,0,1
EndSplineSet
Substitution2: "'case' Case-Sensitive Forms lookup 19 subtable" Scedilla
EndChar

StartChar: uni0162
Encoding: 354 354 316
Width: 594
Flags: W
LayerCount: 2
Fore
SplineSet
739 693 m 1,0,-1
 707 562 l 1,1,-1
 504 562 l 1,2,-1
 369 0 l 1,3,-1
 350 0 l 1,4,5
 342 -11 342 -11 333.5 -23.5 c 128,-1,6
 325 -36 325 -36 320 -44 c 1,7,8
 342 -55 342 -55 353 -73 c 128,-1,9
 364 -91 364 -91 364 -111 c 0,10,11
 364 -140 364 -140 352.5 -161 c 128,-1,12
 341 -182 341 -182 321.5 -195.5 c 128,-1,13
 302 -209 302 -209 277 -215 c 128,-1,14
 252 -221 252 -221 226 -221 c 0,15,16
 199 -221 199 -221 172.5 -215 c 128,-1,17
 146 -209 146 -209 125 -198 c 1,18,-1
 161 -116 l 1,19,20
 174 -122 174 -122 190.5 -126 c 128,-1,21
 207 -130 207 -130 222 -130 c 0,22,23
 262 -130 262 -130 262 -106 c 0,24,25
 262 -95 262 -95 255 -88 c 128,-1,26
 248 -81 248 -81 232 -74 c 2,27,-1
 212 -65 l 1,28,29
 220 -51 220 -51 232.5 -32.5 c 128,-1,30
 245 -14 245 -14 256 0 c 1,31,-1
 213 0 l 1,32,-1
 348 562 l 1,33,-1
 145 562 l 1,34,-1
 177 693 l 1,35,-1
 739 693 l 1,0,-1
EndSplineSet
EndChar

StartChar: uni0163
Encoding: 355 355 317
Width: 416
Flags: W
LayerCount: 2
Fore
SplineSet
213 657 m 1,0,-1
 368 681 l 1,1,-1
 330 526 l 1,2,-1
 496 526 l 1,3,-1
 466 404 l 1,4,-1
 301 404 l 1,5,-1
 257 220 l 2,6,7
 251 197 251 197 249.5 177 c 128,-1,8
 248 157 248 157 254.5 142.5 c 128,-1,9
 261 128 261 128 277 120 c 128,-1,10
 293 112 293 112 321 112 c 0,11,12
 345 112 345 112 367.5 116.5 c 128,-1,13
 390 121 390 121 413 129 c 1,14,-1
 424 15 l 1,15,16
 400 6 400 6 373.5 -1 c 128,-1,17
 347 -8 347 -8 314 -10 c 1,18,-1
 291 -44 l 1,19,20
 313 -55 313 -55 324 -73 c 128,-1,21
 335 -91 335 -91 335 -111 c 0,22,23
 335 -140 335 -140 323.5 -161 c 128,-1,24
 312 -182 312 -182 292.5 -195.5 c 128,-1,25
 273 -209 273 -209 248 -215 c 128,-1,26
 223 -221 223 -221 197 -221 c 0,27,28
 170 -221 170 -221 143.5 -215 c 128,-1,29
 117 -209 117 -209 96 -198 c 1,30,-1
 132 -116 l 1,31,32
 145 -122 145 -122 161.5 -126 c 128,-1,33
 178 -130 178 -130 193 -130 c 0,34,35
 233 -130 233 -130 233 -106 c 0,36,37
 233 -95 233 -95 226 -88 c 128,-1,38
 219 -81 219 -81 203 -74 c 2,39,-1
 183 -65 l 1,40,41
 190 -53 190 -53 200.5 -37 c 128,-1,42
 211 -21 211 -21 222 -7 c 1,43,44
 173 1 173 1 146 24 c 128,-1,45
 119 47 119 47 108.5 80.5 c 128,-1,46
 98 114 98 114 101 156 c 128,-1,47
 104 198 104 198 115 243 c 2,48,-1
 213 657 l 1,0,-1
EndSplineSet
Substitution2: "'case' Case-Sensitive Forms lookup 19 subtable" uni0162
EndChar

StartChar: Tbar
Encoding: 358 358 320
Width: 594
Flags: W
LayerCount: 2
Fore
SplineSet
739 693 m 1,0,-1
 707 562 l 1,1,-1
 504 562 l 1,2,-1
 459 377 l 1,3,-1
 602 377 l 1,4,-1
 575 267 l 1,5,-1
 433 267 l 1,6,-1
 369 0 l 1,7,-1
 213 0 l 1,8,-1
 277 267 l 1,9,-1
 137 267 l 1,10,-1
 164 377 l 1,11,-1
 303 377 l 1,12,-1
 348 562 l 1,13,-1
 145 562 l 1,14,-1
 177 693 l 1,15,-1
 739 693 l 1,0,-1
EndSplineSet
EndChar

StartChar: tbar
Encoding: 359 359 321
Width: 416
Flags: W
LayerCount: 2
Fore
SplineSet
213 657 m 1,0,-1
 368 681 l 1,1,-1
 330 526 l 1,2,-1
 496 526 l 1,3,-1
 466 404 l 1,4,-1
 301 404 l 1,5,-1
 281 321 l 1,6,-1
 459 321 l 1,7,-1
 437 228 l 1,8,-1
 259 228 l 1,9,-1
 257 220 l 2,10,11
 251 197 251 197 249.5 177 c 128,-1,12
 248 157 248 157 254.5 142.5 c 128,-1,13
 261 128 261 128 277 120 c 128,-1,14
 293 112 293 112 321 112 c 0,15,16
 345 112 345 112 367.5 116.5 c 128,-1,17
 390 121 390 121 413 129 c 1,18,-1
 424 15 l 1,19,20
 394 4 394 4 359 -4 c 128,-1,21
 324 -12 324 -12 276 -12 c 0,22,23
 207 -12 207 -12 169 8.5 c 128,-1,24
 131 29 131 29 115 64.5 c 128,-1,25
 99 100 99 100 101 146 c 128,-1,26
 103 192 103 192 115 243 c 2,27,-1
 213 657 l 1,0,-1
EndSplineSet
Substitution2: "'case' Case-Sensitive Forms lookup 19 subtable" Tbar
EndChar

StartChar: Uogonek
Encoding: 370 370 332
Width: 683
Flags: W
LayerCount: 2
Fore
SplineSet
669 252 m 2,0,1
 640 128 640 128 578.5 66 c 128,-1,2
 517 4 517 4 417 -10 c 1,3,4
 372 -42 372 -42 354.5 -63.5 c 128,-1,5
 337 -85 337 -85 337 -97 c 0,6,7
 337 -113 337 -113 362 -113 c 0,8,9
 376 -113 376 -113 392 -108.5 c 128,-1,10
 408 -104 408 -104 415 -102 c 1,11,-1
 405 -201 l 1,12,13
 385 -210 385 -210 360.5 -215.5 c 128,-1,14
 336 -221 336 -221 310 -221 c 0,15,16
 289 -221 289 -221 269 -216.5 c 128,-1,17
 249 -212 249 -212 233.5 -202 c 128,-1,18
 218 -192 218 -192 209 -176 c 128,-1,19
 200 -160 200 -160 200 -136 c 0,20,21
 200 -106 200 -106 220.5 -74 c 128,-1,22
 241 -42 241 -42 295 -10 c 1,23,24
 248 -3 248 -3 215 15 c 128,-1,25
 182 33 182 33 161 59.5 c 128,-1,26
 140 86 140 86 130.5 120 c 128,-1,27
 121 154 121 154 121 194 c 0,28,29
 121 246 121 246 136 305 c 2,30,-1
 229 693 l 1,31,-1
 385 693 l 1,32,-1
 287 283 l 2,33,34
 277 247 277 247 277 210 c 0,35,36
 277 190 277 190 281.5 174 c 128,-1,37
 286 158 286 158 297.5 146 c 128,-1,38
 309 134 309 134 328.5 127.5 c 128,-1,39
 348 121 348 121 377 121 c 0,40,41
 437 121 437 121 468 158.5 c 128,-1,42
 499 196 499 196 516 265 c 2,43,-1
 618 693 l 1,44,-1
 774 693 l 1,45,-1
 669 252 l 2,0,1
EndSplineSet
EndChar

StartChar: uogonek
Encoding: 371 371 333
Width: 581
Flags: W
LayerCount: 2
Fore
SplineSet
621 526 m 1,0,-1
 550 227 l 2,1,2
 536 170 536 170 542 112.5 c 128,-1,3
 548 55 548 55 565 10 c 1,4,-1
 546 -3 l 2,5,6
 495 -38 495 -38 475 -61 c 128,-1,7
 455 -84 455 -84 455 -97 c 0,8,9
 455 -113 455 -113 480 -113 c 0,10,11
 494 -113 494 -113 510 -108.5 c 128,-1,12
 526 -104 526 -104 533 -102 c 1,13,-1
 523 -201 l 1,14,15
 503 -210 503 -210 478.5 -215.5 c 128,-1,16
 454 -221 454 -221 428 -221 c 0,17,18
 407 -221 407 -221 387 -216.5 c 128,-1,19
 367 -212 367 -212 351.5 -202 c 128,-1,20
 336 -192 336 -192 327 -176 c 128,-1,21
 318 -160 318 -160 318 -136 c 0,22,23
 318 -106 318 -106 339 -74 c 128,-1,24
 360 -42 360 -42 408 -13 c 2,25,-1
 428 -1 l 1,26,27
 423 9 423 9 419 19 c 128,-1,28
 415 29 415 29 411 40 c 1,29,30
 383 18 383 18 348 3 c 128,-1,31
 313 -12 313 -12 270 -12 c 0,32,33
 211 -12 211 -12 174.5 9.5 c 128,-1,34
 138 31 138 31 120 66.5 c 128,-1,35
 102 102 102 102 100.5 148 c 128,-1,36
 99 194 99 194 111 242 c 2,37,-1
 179 526 l 1,38,-1
 328 526 l 1,39,-1
 261 244 l 2,40,41
 256 222 256 222 252.5 199 c 128,-1,42
 249 176 249 176 252 156.5 c 128,-1,43
 255 137 255 137 267.5 124.5 c 128,-1,44
 280 112 280 112 307 112 c 0,45,46
 330 112 330 112 349.5 120.5 c 128,-1,47
 369 129 369 129 391 150 c 1,48,49
 393 175 393 175 397.5 202.5 c 128,-1,50
 402 230 402 230 407 253 c 2,51,-1
 472 526 l 1,52,-1
 621 526 l 1,0,-1
EndSplineSet
Substitution2: "'case' Case-Sensitive Forms lookup 19 subtable" Uogonek
EndChar

StartChar: longs
Encoding: 383 383 344
Width: 435
Flags: W
LayerCount: 2
Fore
SplineSet
477 776 m 0,0,1
 522 776 522 776 555.5 766.5 c 128,-1,2
 589 757 589 757 606 749 c 1,3,-1
 556 632 l 1,4,5
 538 641 538 641 514.5 645.5 c 128,-1,6
 491 650 491 650 471 650 c 0,7,8
 416 650 416 650 389.5 622 c 128,-1,9
 363 594 363 594 353 552 c 2,10,-1
 257 149 l 2,11,12
 223 6 223 6 183 -73.5 c 128,-1,13
 143 -153 143 -153 95 -189 c 1,14,-1
 -38 -170 l 1,15,16
 -12 -146 -12 -146 10 -111 c 128,-1,17
 32 -76 32 -76 49.5 -37 c 128,-1,18
 67 2 67 2 79.5 42.5 c 128,-1,19
 92 83 92 83 100 118 c 2,20,-1
 204 554 l 2,21,22
 229 660 229 660 294 718 c 128,-1,23
 359 776 359 776 477 776 c 0,0,1
EndSplineSet
Substitution2: "'case' Case-Sensitive Forms lookup 18 subtable" S
EndChar

StartChar: dotlessj
Encoding: 567 567 349
Width: 290
Flags: W
LayerCount: 2
Fore
SplineSet
15 -185 m 0,0,1
 -13 -185 -13 -185 -40.5 -179.5 c 128,-1,2
 -68 -174 -68 -174 -90 -166 c 1,3,-1
 -52 -48 l 1,4,5
 -38 -53 -38 -53 -24.5 -56 c 128,-1,6
 -11 -59 -11 -59 6 -59 c 0,7,8
 41 -59 41 -59 60 -38 c 128,-1,9
 79 -17 79 -17 87 23 c 2,10,-1
 208 526 l 1,11,-1
 357 526 l 1,12,-1
 235 19 l 2,13,14
 211 -85 211 -85 160 -135 c 128,-1,15
 109 -185 109 -185 15 -185 c 0,0,1
EndSplineSet
Substitution2: "'case' Case-Sensitive Forms lookup 18 subtable" J
EndChar

StartChar: apostrophe
Encoding: 700 700 350
Width: 272
Flags: W
LayerCount: 2
Fore
SplineSet
387 776 m 1,0,1
 377 735 377 735 366 705.5 c 128,-1,2
 355 676 355 676 342 651.5 c 128,-1,3
 329 627 329 627 312 603.5 c 128,-1,4
 295 580 295 580 273 553 c 1,5,-1
 184 584 l 1,6,7
 201 611 201 611 213.5 634 c 128,-1,8
 226 657 226 657 234.5 679.5 c 128,-1,9
 243 702 243 702 248.5 725.5 c 128,-1,10
 254 749 254 749 257 776 c 1,11,-1
 387 776 l 1,0,1
EndSplineSet
EndChar

StartChar: caron
Encoding: 711 711 351
Width: 398
Flags: W
LayerCount: 2
Fore
SplineSet
212 740 m 1,0,-1
 272 793 l 1,1,-1
 355 715 l 1,2,-1
 468 791 l 1,3,-1
 514 730 l 1,4,-1
 335 585 l 1,5,-1
 212 740 l 1,0,-1
EndSplineSet
EndChar

StartChar: breve
Encoding: 728 728 353
Width: 410
Flags: W
LayerCount: 2
Fore
SplineSet
311 764 m 1,0,1
 310 759 310 759 309.5 754 c 128,-1,2
 309 749 309 749 309 744 c 0,3,4
 309 720 309 720 319.5 706.5 c 128,-1,5
 330 693 330 693 355 693 c 0,6,7
 379 693 379 693 397.5 711 c 128,-1,8
 416 729 416 729 422 764 c 1,9,-1
 524 764 l 1,10,11
 521 722 521 722 504 691 c 128,-1,12
 487 660 487 660 462 639.5 c 128,-1,13
 437 619 437 619 406.5 608.5 c 128,-1,14
 376 598 376 598 345 598 c 0,15,16
 318 598 318 598 293 606 c 128,-1,17
 268 614 268 614 248.5 630.5 c 128,-1,18
 229 647 229 647 217.5 672 c 128,-1,19
 206 697 206 697 206 730 c 0,20,21
 206 749 206 749 210 764 c 1,22,-1
 311 764 l 1,0,1
EndSplineSet
EndChar

StartChar: dotaccent
Encoding: 729 729 354
Width: 536
Flags: W
LayerCount: 2
Fore
SplineSet
409 600 m 0,0,1
 378 600 378 600 358 618 c 128,-1,2
 338 636 338 636 338 668 c 0,3,4
 338 710 338 710 364.5 733 c 128,-1,5
 391 756 391 756 424 756 c 0,6,7
 454 756 454 756 475 738 c 128,-1,8
 496 720 496 720 496 687 c 0,9,10
 496 667 496 667 488.5 651 c 128,-1,11
 481 635 481 635 468.5 623.5 c 128,-1,12
 456 612 456 612 440.5 606 c 128,-1,13
 425 600 425 600 409 600 c 0,0,1
EndSplineSet
EndChar

StartChar: ring
Encoding: 730 730 355
Width: 324
Flags: W
LayerCount: 2
Fore
SplineSet
439 699 m 256,0,1
 439 671 439 671 429.5 649.5 c 128,-1,2
 420 628 420 628 403.5 613.5 c 128,-1,3
 387 599 387 599 365.5 591.5 c 128,-1,4
 344 584 344 584 320 584 c 0,5,6
 297 584 297 584 276 591.5 c 128,-1,7
 255 599 255 599 238.5 613.5 c 128,-1,8
 222 628 222 628 212.5 649.5 c 128,-1,9
 203 671 203 671 203 699 c 256,10,11
 203 727 203 727 212.5 748.5 c 128,-1,12
 222 770 222 770 238.5 784.5 c 128,-1,13
 255 799 255 799 276 806.5 c 128,-1,14
 297 814 297 814 320 814 c 0,15,16
 344 814 344 814 365.5 806.5 c 128,-1,17
 387 799 387 799 403.5 784.5 c 128,-1,18
 420 770 420 770 429.5 748.5 c 128,-1,19
 439 727 439 727 439 699 c 256,0,1
366 699 m 256,20,21
 366 722 366 722 352 734 c 128,-1,22
 338 746 338 746 320 746 c 0,23,24
 303 746 303 746 289 734 c 128,-1,25
 275 722 275 722 275 699 c 256,26,27
 275 676 275 676 289 664 c 128,-1,28
 303 652 303 652 320 652 c 0,29,30
 338 652 338 652 352 664 c 128,-1,31
 366 676 366 676 366 699 c 256,20,21
EndSplineSet
EndChar

StartChar: ogonek
Encoding: 731 731 356
Width: 312
Flags: W
LayerCount: 2
Fore
SplineSet
222 -201 m 1,0,1
 202 -210 202 -210 177.5 -215.5 c 128,-1,2
 153 -221 153 -221 127 -221 c 0,3,4
 106 -221 106 -221 86 -216.5 c 128,-1,5
 66 -212 66 -212 50.5 -202 c 128,-1,6
 35 -192 35 -192 26 -176 c 128,-1,7
 17 -160 17 -160 17 -136 c 0,8,9
 17 -106 17 -106 38 -74 c 128,-1,10
 59 -42 59 -42 107 -13 c 2,11,-1
 154 15 l 1,12,-1
 271 15 l 1,13,-1
 245 -3 l 2,14,15
 194 -38 194 -38 174 -61 c 128,-1,16
 154 -84 154 -84 154 -97 c 0,17,18
 154 -113 154 -113 179 -113 c 0,19,20
 193 -113 193 -113 209 -108.5 c 128,-1,21
 225 -104 225 -104 232 -102 c 1,22,-1
 222 -201 l 1,0,1
EndSplineSet
EndChar

StartChar: hungarumlaut
Encoding: 733 733 357
Width: 434
Flags: W
LayerCount: 2
Fore
SplineSet
392 713 m 1,0,-1
 228 577 l 1,1,-1
 174 638 l 1,2,-1
 320 799 l 1,3,-1
 392 713 l 1,0,-1
595 713 m 1,4,-1
 431 577 l 1,5,-1
 377 638 l 1,6,-1
 523 799 l 1,7,-1
 595 713 l 1,4,-1
EndSplineSet
EndChar

StartChar: fraction
Encoding: 8260 8260 366
Width: 152
Flags: W
LayerCount: 2
Fore
SplineSet
406 693 m 1,0,-1
 -115 0 l 1,1,-1
 -253 0 l 1,2,-1
 270 693 l 1,3,-1
 406 693 l 1,0,-1
EndSplineSet
EndChar

StartChar: zerosuperior
Encoding: 8304 8304 367
Width: 363
Flags: W
LayerCount: 2
Fore
SplineSet
106 434 m 0,0,1
 106 496 106 496 121 547 c 128,-1,2
 136 598 136 598 164 634 c 128,-1,3
 192 670 192 670 232 689.5 c 128,-1,4
 272 709 272 709 323 709 c 0,5,6
 363 709 363 709 388.5 697 c 128,-1,7
 414 685 414 685 428 665.5 c 128,-1,8
 442 646 442 646 447.5 621.5 c 128,-1,9
 453 597 453 597 453 571 c 0,10,11
 453 509 453 509 438 458 c 128,-1,12
 423 407 423 407 395 371 c 128,-1,13
 367 335 367 335 327 315.5 c 128,-1,14
 287 296 287 296 236 296 c 0,15,16
 196 296 196 296 170.5 308 c 128,-1,17
 145 320 145 320 131 339.5 c 128,-1,18
 117 359 117 359 111.5 383.5 c 128,-1,19
 106 408 106 408 106 434 c 0,0,1
211 448 m 0,20,21
 211 422 211 422 218.5 404.5 c 128,-1,22
 226 387 226 387 247 387 c 0,23,24
 274 387 274 387 293 403.5 c 128,-1,25
 312 420 312 420 324 445 c 128,-1,26
 336 470 336 470 342 500 c 128,-1,27
 348 530 348 530 348 558 c 0,28,29
 348 584 348 584 340.5 601.5 c 128,-1,30
 333 619 333 619 312 619 c 0,31,32
 285 619 285 619 266 602.5 c 128,-1,33
 247 586 247 586 235 561 c 128,-1,34
 223 536 223 536 217 506 c 128,-1,35
 211 476 211 476 211 448 c 0,20,21
EndSplineSet
Substitution2: "Single Substitution lookup 26 subtable" zeroinferior
Substitution2: "'sinf' Scientific Inferiors lookup 13 subtable" zero.sinf
Substitution2: "'subs' Subscript lookup 12 subtable" zero.sinf
Substitution2: "'sups' Superscript lookup 11 subtable" zero.sups
Substitution2: "'dnom' Denominators lookup 10 subtable" zeroinferior
EndChar

StartChar: foursuperior
Encoding: 8308 8308 368
Width: 363
Flags: W
LayerCount: 2
Fore
SplineSet
448 701 m 1,0,-1
 392 470 l 1,1,-1
 438 470 l 1,2,-1
 419 390 l 1,3,-1
 373 390 l 1,4,-1
 351 301 l 1,5,-1
 257 301 l 1,6,-1
 279 390 l 1,7,-1
 89 390 l 1,8,-1
 104 459 l 1,9,10
 159 530 159 530 219.5 589.5 c 128,-1,11
 280 649 280 649 355 701 c 1,12,-1
 448 701 l 1,0,-1
329 597 m 1,13,14
 298 570 298 570 265.5 537.5 c 128,-1,15
 233 505 233 505 207 470 c 1,16,-1
 298 470 l 1,17,-1
 329 597 l 1,13,14
EndSplineSet
Substitution2: "Single Substitution lookup 26 subtable" fourinferior
Substitution2: "'sinf' Scientific Inferiors lookup 13 subtable" four.sinf
Substitution2: "'subs' Subscript lookup 12 subtable" four.sinf
Substitution2: "'sups' Superscript lookup 11 subtable" four.sups
Substitution2: "'dnom' Denominators lookup 10 subtable" fourinferior
EndChar

StartChar: fivesuperior
Encoding: 8309 8309 369
Width: 363
Flags: W
LayerCount: 2
Fore
SplineSet
263 558 m 1,0,1
 308 551 308 551 336 540 c 128,-1,2
 364 529 364 529 379 514 c 128,-1,3
 394 499 394 499 399 480 c 128,-1,4
 404 461 404 461 404 438 c 0,5,6
 404 412 404 412 393 386.5 c 128,-1,7
 382 361 382 361 358 340.5 c 128,-1,8
 334 320 334 320 297 307 c 128,-1,9
 260 294 260 294 209 294 c 0,10,11
 180 294 180 294 145.5 302.5 c 128,-1,12
 111 311 111 311 82 327 c 1,13,-1
 123 411 l 1,14,15
 149 399 149 399 175.5 393.5 c 128,-1,16
 202 388 202 388 228 388 c 0,17,18
 257 388 257 388 277.5 399 c 128,-1,19
 298 410 298 410 298 438 c 0,20,21
 298 464 298 464 262.5 473.5 c 128,-1,22
 227 483 227 483 146 486 c 1,23,24
 156 512 156 512 166.5 542.5 c 128,-1,25
 177 573 177 573 186.5 602.5 c 128,-1,26
 196 632 196 632 204.5 658 c 128,-1,27
 213 684 213 684 218 701 c 1,28,-1
 455 701 l 1,29,-1
 434 610 l 1,30,-1
 281 610 l 1,31,32
 277 600 277 600 272.5 584.5 c 128,-1,33
 268 569 268 569 263 558 c 1,0,1
EndSplineSet
Substitution2: "Single Substitution lookup 26 subtable" fiveinferior
Substitution2: "'sinf' Scientific Inferiors lookup 13 subtable" five.sinf
Substitution2: "'subs' Subscript lookup 12 subtable" five.sinf
Substitution2: "'sups' Superscript lookup 11 subtable" five.sups
Substitution2: "'dnom' Denominators lookup 10 subtable" fiveinferior
EndChar

StartChar: sixsuperior
Encoding: 8310 8310 370
Width: 363
Flags: W
LayerCount: 2
Fore
SplineSet
437 618 m 1,0,1
 363 617 363 617 317 601 c 128,-1,2
 271 585 271 585 241 550 c 1,3,4
 269 559 269 559 303 559 c 0,5,6
 324 559 324 559 343.5 553.5 c 128,-1,7
 363 548 363 548 378 535.5 c 128,-1,8
 393 523 393 523 402.5 501 c 128,-1,9
 412 479 412 479 412 446 c 0,10,11
 412 410 412 410 397.5 381.5 c 128,-1,12
 383 353 383 353 359.5 333.5 c 128,-1,13
 336 314 336 314 306.5 304 c 128,-1,14
 277 294 277 294 247 294 c 0,15,16
 220 294 220 294 195.5 302 c 128,-1,17
 171 310 171 310 152 326.5 c 128,-1,18
 133 343 133 343 121.5 369 c 128,-1,19
 110 395 110 395 110 430 c 0,20,21
 110 482 110 482 128.5 531.5 c 128,-1,22
 147 581 147 581 187.5 619 c 128,-1,23
 228 657 228 657 291.5 680 c 128,-1,24
 355 703 355 703 445 703 c 1,25,-1
 437 618 l 1,0,1
248 380 m 0,26,27
 280 380 280 380 296 399.5 c 128,-1,28
 312 419 312 419 312 441 c 0,29,30
 312 459 312 459 300.5 473 c 128,-1,31
 289 487 289 487 264 487 c 0,32,33
 253 487 253 487 240 484.5 c 128,-1,34
 227 482 227 482 214 478 c 1,35,36
 210 467 210 467 207.5 454 c 128,-1,37
 205 441 205 441 205 430 c 0,38,39
 205 410 205 410 214.5 395 c 128,-1,40
 224 380 224 380 248 380 c 0,26,27
EndSplineSet
Substitution2: "Single Substitution lookup 26 subtable" sixinferior
Substitution2: "'sinf' Scientific Inferiors lookup 13 subtable" six.sinf
Substitution2: "'subs' Subscript lookup 12 subtable" six.sinf
Substitution2: "'sups' Superscript lookup 11 subtable" six.sups
Substitution2: "'dnom' Denominators lookup 10 subtable" sixinferior
EndChar

StartChar: sevensuperior
Encoding: 8311 8311 371
Width: 363
Flags: W
LayerCount: 2
Fore
SplineSet
154 302 m 1,0,1
 174 381 174 381 218 457.5 c 128,-1,2
 262 534 262 534 341 605 c 1,3,-1
 163 605 l 1,4,-1
 186 701 l 1,5,-1
 493 701 l 1,6,-1
 473 617 l 1,7,8
 437 584 437 584 403 546 c 128,-1,9
 369 508 369 508 341 467.5 c 128,-1,10
 313 427 313 427 292.5 385 c 128,-1,11
 272 343 272 343 264 302 c 1,12,-1
 154 302 l 1,0,1
EndSplineSet
Substitution2: "Single Substitution lookup 26 subtable" seveninferior
Substitution2: "'sinf' Scientific Inferiors lookup 13 subtable" seven.sinf
Substitution2: "'subs' Subscript lookup 12 subtable" seven.sinf
Substitution2: "'sups' Superscript lookup 11 subtable" seven.sups
Substitution2: "'dnom' Denominators lookup 10 subtable" seveninferior
EndChar

StartChar: eightsuperior
Encoding: 8312 8312 372
Width: 363
Flags: W
LayerCount: 2
Fore
SplineSet
456 617 m 0,0,1
 456 583 456 583 436.5 553.5 c 128,-1,2
 417 524 417 524 376 505 c 1,3,4
 402 489 402 489 412 469.5 c 128,-1,5
 422 450 422 450 422 428 c 0,6,7
 422 394 422 394 406.5 369 c 128,-1,8
 391 344 391 344 365.5 327 c 128,-1,9
 340 310 340 310 308.5 301.5 c 128,-1,10
 277 293 277 293 245 293 c 0,11,12
 217 293 217 293 191.5 299 c 128,-1,13
 166 305 166 305 146.5 317.5 c 128,-1,14
 127 330 127 330 115 348.5 c 128,-1,15
 103 367 103 367 103 392 c 0,16,17
 103 428 103 428 124.5 459.5 c 128,-1,18
 146 491 146 491 195 511 c 1,19,20
 172 527 172 527 164 545 c 128,-1,21
 156 563 156 563 156 583 c 0,22,23
 156 614 156 614 171 638 c 128,-1,24
 186 662 186 662 210 677.5 c 128,-1,25
 234 693 234 693 264 701 c 128,-1,26
 294 709 294 709 324 709 c 0,27,28
 350 709 350 709 374 703 c 128,-1,29
 398 697 398 697 416 685.5 c 128,-1,30
 434 674 434 674 445 657 c 128,-1,31
 456 640 456 640 456 617 c 0,0,1
255 476 m 1,32,33
 229 465 229 465 213.5 445 c 128,-1,34
 198 425 198 425 198 408 c 0,35,36
 198 393 198 393 211 382.5 c 128,-1,37
 224 372 224 372 253 372 c 0,38,39
 285 372 285 372 304.5 387.5 c 128,-1,40
 324 403 324 403 324 423 c 0,41,42
 324 454 324 454 274 470 c 2,43,-1
 255 476 l 1,32,33
249 588 m 0,44,45
 249 557 249 557 303 538 c 1,46,-1
 309 535 l 1,47,48
 332 546 332 546 347 564.5 c 128,-1,49
 362 583 362 583 362 600 c 0,50,51
 362 614 362 614 350.5 623.5 c 128,-1,52
 339 633 339 633 313 633 c 0,53,54
 284 633 284 633 266.5 619.5 c 128,-1,55
 249 606 249 606 249 588 c 0,44,45
EndSplineSet
Substitution2: "Single Substitution lookup 26 subtable" eightinferior
Substitution2: "'sinf' Scientific Inferiors lookup 13 subtable" eight.sinf
Substitution2: "'subs' Subscript lookup 12 subtable" eight.sinf
Substitution2: "'sups' Superscript lookup 11 subtable" eight.sups
Substitution2: "'dnom' Denominators lookup 10 subtable" eightinferior
EndChar

StartChar: ninesuperior
Encoding: 8313 8313 373
Width: 363
Flags: W
LayerCount: 2
Fore
SplineSet
128 385 m 1,0,1
 202 386 202 386 248 401.5 c 128,-1,2
 294 417 294 417 323 452 c 1,3,4
 293 444 293 444 262 444 c 0,5,6
 241 444 241 444 221.5 449.5 c 128,-1,7
 202 455 202 455 187 467.5 c 128,-1,8
 172 480 172 480 162.5 502 c 128,-1,9
 153 524 153 524 153 557 c 0,10,11
 153 593 153 593 167.5 621.5 c 128,-1,12
 182 650 182 650 205.5 669.5 c 128,-1,13
 229 689 229 689 258.5 699 c 128,-1,14
 288 709 288 709 318 709 c 0,15,16
 345 709 345 709 369.5 701 c 128,-1,17
 394 693 394 693 413 676.5 c 128,-1,18
 432 660 432 660 443.5 634 c 128,-1,19
 455 608 455 608 455 573 c 0,20,21
 455 520 455 520 436.5 471 c 128,-1,22
 418 422 418 422 377.5 384 c 128,-1,23
 337 346 337 346 273.5 323 c 128,-1,24
 210 300 210 300 120 300 c 1,25,-1
 128 385 l 1,0,1
317 623 m 0,26,27
 285 623 285 623 269 603.5 c 128,-1,28
 253 584 253 584 253 562 c 0,29,30
 253 544 253 544 264.5 530 c 128,-1,31
 276 516 276 516 301 516 c 0,32,33
 312 516 312 516 325 518.5 c 128,-1,34
 338 521 338 521 351 525 c 1,35,36
 355 536 355 536 357.5 549 c 128,-1,37
 360 562 360 562 360 573 c 0,38,39
 360 593 360 593 350.5 608 c 128,-1,40
 341 623 341 623 317 623 c 0,26,27
EndSplineSet
Substitution2: "Single Substitution lookup 26 subtable" nineinferior
Substitution2: "'sinf' Scientific Inferiors lookup 13 subtable" nine.sinf
Substitution2: "'subs' Subscript lookup 12 subtable" nine.sinf
Substitution2: "'sups' Superscript lookup 11 subtable" nine.sups
Substitution2: "'dnom' Denominators lookup 10 subtable" nineinferior
EndChar

StartChar: afii61289
Encoding: 8467 8467 384
Width: 541
Flags: W
LayerCount: 2
Fore
SplineSet
566 61 m 1,0,1
 528 25 528 25 479 5.5 c 128,-1,2
 430 -14 430 -14 370 -14 c 0,3,4
 285 -14 285 -14 237 26 c 128,-1,5
 189 66 189 66 179 154 c 1,6,-1
 134 122 l 1,7,-1
 86 194 l 1,8,9
 110 213 110 213 132.5 229.5 c 128,-1,10
 155 246 155 246 177 264 c 1,11,-1
 177 504 l 2,12,13
 177 645 177 645 229.5 710.5 c 128,-1,14
 282 776 282 776 370 776 c 0,15,16
 412 776 412 776 442.5 761 c 128,-1,17
 473 746 473 746 493.5 720.5 c 128,-1,18
 514 695 514 695 523.5 661 c 128,-1,19
 533 627 533 627 533 589 c 0,20,21
 533 498 533 498 475.5 414 c 128,-1,22
 418 330 418 330 315 239 c 1,23,-1
 315 206 l 2,24,25
 315 112 315 112 400 112 c 0,26,27
 428 112 428 112 456 125.5 c 128,-1,28
 484 139 484 139 505 157 c 1,29,-1
 566 61 l 1,0,1
315 372 m 1,30,31
 367 429 367 429 399.5 486.5 c 128,-1,32
 432 544 432 544 432 593 c 0,33,34
 432 632 432 632 420 652 c 128,-1,35
 408 672 408 672 378 672 c 0,36,37
 366 672 366 672 354.5 665 c 128,-1,38
 343 658 343 658 334.5 640.5 c 128,-1,39
 326 623 326 623 320.5 593.5 c 128,-1,40
 315 564 315 564 315 520 c 2,41,-1
 315 372 l 1,30,31
EndSplineSet
EndChar

StartChar: estimated
Encoding: 8494 8494 385
Width: 936
Flags: W
LayerCount: 2
Fore
SplineSet
301 337 m 2,0,1
 296 337 296 337 296 333 c 2,2,-1
 296 136 l 2,3,4
 296 123 296 123 305 114 c 0,5,6
 353 63 353 63 415 35 c 128,-1,7
 477 7 477 7 550 7 c 0,8,9
 629 7 629 7 695 39.5 c 128,-1,10
 761 72 761 72 809 126 c 1,11,-1
 866 126 l 1,12,13
 840 94 840 94 805.5 68.5 c 128,-1,14
 771 43 771 43 730 25 c 128,-1,15
 689 7 689 7 643 -3 c 128,-1,16
 597 -13 597 -13 549 -13 c 0,17,18
 466 -13 466 -13 393 15.5 c 128,-1,19
 320 44 320 44 266 92.5 c 128,-1,20
 212 141 212 141 180.5 206.5 c 128,-1,21
 149 272 149 272 149 347 c 256,22,23
 149 422 149 422 180.5 487.5 c 128,-1,24
 212 553 212 553 266 602 c 128,-1,25
 320 651 320 651 393 679.5 c 128,-1,26
 466 708 466 708 549 708 c 256,27,28
 632 708 632 708 705.5 679.5 c 128,-1,29
 779 651 779 651 833.5 602 c 128,-1,30
 888 553 888 553 919.5 487.5 c 128,-1,31
 951 422 951 422 951 347 c 2,32,-1
 951 337 l 1,33,-1
 301 337 l 2,0,1
803 560 m 2,34,35
 803 573 803 573 794 584 c 0,36,37
 746 632 746 632 684 659 c 128,-1,38
 622 686 622 686 550 686 c 256,39,40
 478 686 478 686 416 657 c 128,-1,41
 354 628 354 628 306 580 c 0,42,43
 301 576 301 576 298.5 569.5 c 128,-1,44
 296 563 296 563 296 556 c 2,45,-1
 296 363 l 2,46,47
 296 356 296 356 301 356 c 2,48,-1
 799 356 l 2,49,50
 803 356 803 356 803 363 c 2,51,-1
 803 560 l 2,34,35
EndSplineSet
EndChar

StartChar: partialdiff
Encoding: 8706 8706 410
Width: 618
Flags: W
LayerCount: 2
Fore
SplineSet
222 737 m 1,0,1
 262 755 262 755 307 765.5 c 128,-1,2
 352 776 352 776 400 776 c 0,3,4
 449 776 449 776 494.5 762.5 c 128,-1,5
 540 749 540 749 575 718 c 128,-1,6
 610 687 610 687 631.5 636 c 128,-1,7
 653 585 653 585 653 510 c 0,8,9
 653 463 653 463 645.5 406 c 128,-1,10
 638 349 638 349 620.5 290.5 c 128,-1,11
 603 232 603 232 575.5 177.5 c 128,-1,12
 548 123 548 123 508 80.5 c 128,-1,13
 468 38 468 38 414.5 12.5 c 128,-1,14
 361 -13 361 -13 292 -13 c 0,15,16
 243 -13 243 -13 207 3.5 c 128,-1,17
 171 20 171 20 147 48.5 c 128,-1,18
 123 77 123 77 111.5 114.5 c 128,-1,19
 100 152 100 152 100 193 c 0,20,21
 100 248 100 248 119 304.5 c 128,-1,22
 138 361 138 361 175.5 407 c 128,-1,23
 213 453 213 453 269.5 482 c 128,-1,24
 326 511 326 511 401 511 c 0,25,26
 431 511 431 511 461 504.5 c 128,-1,27
 491 498 491 498 520 484 c 1,28,29
 521 493 521 493 521.5 500 c 128,-1,30
 522 507 522 507 522 515 c 0,31,32
 522 554 522 554 511 579.5 c 128,-1,33
 500 605 500 605 481 621 c 128,-1,34
 462 637 462 637 437 643.5 c 128,-1,35
 412 650 412 650 385 650 c 0,36,37
 347 650 347 650 309 640.5 c 128,-1,38
 271 631 271 631 241 617 c 1,39,-1
 222 737 l 1,0,1
313 115 m 0,40,41
 336 115 336 115 361.5 126 c 128,-1,42
 387 137 387 137 411 160 c 128,-1,43
 435 183 435 183 455.5 219 c 128,-1,44
 476 255 476 255 489 305 c 2,45,-1
 503 359 l 1,46,47
 477 378 477 378 452 386 c 128,-1,48
 427 394 427 394 403 394 c 0,49,50
 369 394 369 394 339 378.5 c 128,-1,51
 309 363 309 363 286.5 336.5 c 128,-1,52
 264 310 264 310 251 274 c 128,-1,53
 238 238 238 238 238 198 c 0,54,55
 238 163 238 163 255.5 139 c 128,-1,56
 273 115 273 115 313 115 c 0,40,41
EndSplineSet
EndChar

StartChar: product
Encoding: 8719 8719 412
Width: 727
Flags: W
LayerCount: 2
Fore
SplineSet
802 693 m 1,0,-1
 609 -109 l 1,1,-1
 453 -109 l 1,2,-1
 614 561 l 1,3,-1
 376 561 l 1,4,-1
 215 -109 l 1,5,-1
 60 -109 l 1,6,-1
 252 693 l 1,7,-1
 802 693 l 1,0,-1
EndSplineSet
EndChar

StartChar: summation
Encoding: 8721 8721 413
Width: 580
Flags: W
LayerCount: 2
Fore
SplineSet
469 296 m 1,0,1
 400 230 400 230 335 159 c 128,-1,2
 270 88 270 88 215 22 c 1,3,-1
 539 22 l 1,4,-1
 507 -109 l 1,5,-1
 0 -109 l 1,6,-1
 23 -13 l 1,7,8
 93 78 93 78 169 156 c 128,-1,9
 245 234 245 234 314 306 c 1,10,11
 293 346 293 346 274 383 c 128,-1,12
 255 420 255 420 238 456.5 c 128,-1,13
 221 493 221 493 205.5 530 c 128,-1,14
 190 567 190 567 174 608 c 1,15,-1
 195 693 l 1,16,-1
 700 693 l 1,17,-1
 668 562 l 1,18,-1
 344 562 l 1,19,20
 357 533 357 533 372.5 499.5 c 128,-1,21
 388 466 388 466 404.5 431.5 c 128,-1,22
 421 397 421 397 437.5 362 c 128,-1,23
 454 327 454 327 469 296 c 1,0,1
EndSplineSet
EndChar

StartChar: uni2126
Encoding: 8486 8486 414
Width: 807
Flags: W
LayerCount: 2
Fore
SplineSet
775 129 m 1,0,-1
 744 0 l 1,1,-1
 457 0 l 1,2,-1
 485 116 l 1,3,4
 521 136 521 136 554.5 172 c 128,-1,5
 588 208 588 208 613 251.5 c 128,-1,6
 638 295 638 295 653 342.5 c 128,-1,7
 668 390 668 390 668 432 c 0,8,9
 668 466 668 466 656 492.5 c 128,-1,10
 644 519 644 519 624 537 c 128,-1,11
 604 555 604 555 577.5 564 c 128,-1,12
 551 573 551 573 522 573 c 0,13,14
 483 573 483 573 443 556.5 c 128,-1,15
 403 540 403 540 370.5 505.5 c 128,-1,16
 338 471 338 471 317.5 418.5 c 128,-1,17
 297 366 297 366 297 295 c 0,18,19
 297 244 297 244 313 197 c 128,-1,20
 329 150 329 150 363 116 c 1,21,-1
 335 0 l 1,22,-1
 60 0 l 1,23,-1
 91 129 l 1,24,-1
 212 129 l 1,25,26
 180 177 180 177 165 229.5 c 128,-1,27
 150 282 150 282 150 336 c 0,28,29
 150 427 150 427 185 497 c 128,-1,30
 220 567 220 567 276.5 614 c 128,-1,31
 333 661 333 661 403 685 c 128,-1,32
 473 709 473 709 542 709 c 0,33,34
 598 709 598 709 649.5 693 c 128,-1,35
 701 677 701 677 740.5 645.5 c 128,-1,36
 780 614 780 614 803.5 566.5 c 128,-1,37
 827 519 827 519 827 455 c 0,38,39
 827 411 827 411 815.5 365.5 c 128,-1,40
 804 320 804 320 782 277.5 c 128,-1,41
 760 235 760 235 728.5 196.5 c 128,-1,42
 697 158 697 158 657 129 c 1,43,-1
 775 129 l 1,0,-1
EndSplineSet
EndChar

StartChar: minus
Encoding: 8722 8722 415
Width: 568
Flags: W
LayerCount: 2
Fore
SplineSet
122 361 m 1,0,-1
 592 361 l 1,1,-1
 561 236 l 1,2,-1
 91 236 l 1,3,-1
 122 361 l 1,0,-1
EndSplineSet
EndChar

StartChar: radical
Encoding: 8730 8730 418
Width: 602
Flags: W
LayerCount: 2
Fore
SplineSet
85 358 m 1,0,-1
 303 423 l 1,1,2
 310 394 310 394 316 368 c 128,-1,3
 322 342 322 342 328 314.5 c 128,-1,4
 334 287 334 287 339 257 c 128,-1,5
 344 227 344 227 349 192 c 1,6,-1
 660 783 l 1,7,-1
 793 783 l 1,8,-1
 368 -15 l 1,9,-1
 243 -15 l 1,10,11
 234 63 234 63 222.5 133 c 128,-1,12
 211 203 211 203 194 280 c 1,13,-1
 98 251 l 1,14,-1
 85 358 l 1,0,-1
EndSplineSet
EndChar

StartChar: infinity
Encoding: 8734 8734 419
Width: 624
Flags: W
LayerCount: 2
Fore
SplineSet
559 315 m 0,0,1
 559 342 559 342 546 354 c 128,-1,2
 533 366 533 366 514 366 c 256,3,4
 495 366 495 366 474.5 355.5 c 128,-1,5
 454 345 454 345 438 327 c 2,6,-1
 416 302 l 1,7,-1
 424 277 l 2,8,9
 432 252 432 252 447.5 241 c 128,-1,10
 463 230 463 230 481 230 c 0,11,12
 495 230 495 230 509 236 c 128,-1,13
 523 242 523 242 534 253.5 c 128,-1,14
 545 265 545 265 552 280.5 c 128,-1,15
 559 296 559 296 559 315 c 0,0,1
354 213 m 1,16,17
 325 176 325 176 285.5 157 c 128,-1,18
 246 138 246 138 207 138 c 0,19,20
 183 138 183 138 160.5 146 c 128,-1,21
 138 154 138 154 121.5 170 c 128,-1,22
 105 186 105 186 95 211 c 128,-1,23
 85 236 85 236 85 269 c 0,24,25
 85 313 85 313 101.5 348 c 128,-1,26
 118 383 118 383 145 407.5 c 128,-1,27
 172 432 172 432 205 445 c 128,-1,28
 238 458 238 458 271 458 c 0,29,30
 309 458 309 458 341 439.5 c 128,-1,31
 373 421 373 421 390 383 c 1,32,33
 419 420 419 420 458.5 439 c 128,-1,34
 498 458 498 458 537 458 c 0,35,36
 561 458 561 458 583.5 450 c 128,-1,37
 606 442 606 442 622.5 426 c 128,-1,38
 639 410 639 410 649 385 c 128,-1,39
 659 360 659 360 659 327 c 0,40,41
 659 283 659 283 642.5 248 c 128,-1,42
 626 213 626 213 599 188.5 c 128,-1,43
 572 164 572 164 539 151 c 128,-1,44
 506 138 506 138 473 138 c 0,45,46
 435 138 435 138 403 156.5 c 128,-1,47
 371 175 371 175 354 213 c 1,16,17
185 281 m 0,48,49
 185 254 185 254 198 242 c 128,-1,50
 211 230 211 230 230 230 c 256,51,52
 249 230 249 230 269.5 240.5 c 128,-1,53
 290 251 290 251 306 269 c 2,54,-1
 328 294 l 1,55,-1
 320 319 l 2,56,57
 312 344 312 344 296.5 355 c 128,-1,58
 281 366 281 366 263 366 c 0,59,60
 249 366 249 366 235 360 c 128,-1,61
 221 354 221 354 210 342.5 c 128,-1,62
 199 331 199 331 192 315.5 c 128,-1,63
 185 300 185 300 185 281 c 0,48,49
EndSplineSet
EndChar

StartChar: integral
Encoding: 8747 8747 420
Width: 422
Flags: W
LayerCount: 2
Fore
SplineSet
263 567 m 2,0,1
 289 678 289 678 352.5 727 c 128,-1,2
 416 776 416 776 508 776 c 0,3,4
 526 776 526 776 544 774 c 128,-1,5
 562 772 562 772 582 769 c 1,6,-1
 551 639 l 1,7,8
 530 642 530 642 512 642 c 0,9,10
 470 642 470 642 444.5 622 c 128,-1,11
 419 602 419 602 408 554 c 2,12,-1
 285 40 l 2,13,14
 259 -69 259 -69 195.5 -127 c 128,-1,15
 132 -185 132 -185 36 -185 c 0,16,17
 -1 -185 -1 -185 -40 -176 c 1,18,-1
 -9 -46 l 1,19,20
 8 -50 8 -50 33 -50 c 0,21,22
 75 -50 75 -50 100 -30 c 128,-1,23
 125 -10 125 -10 136 38 c 2,24,-1
 263 567 l 2,0,1
EndSplineSet
EndChar

StartChar: approxequal
Encoding: 8776 8776 421
Width: 568
Flags: W
LayerCount: 2
Fore
SplineSet
458 314 m 0,0,1
 425 314 425 314 400.5 326 c 128,-1,2
 376 338 376 338 356 352 c 128,-1,3
 336 366 336 366 317.5 378 c 128,-1,4
 299 390 299 390 277 390 c 0,5,6
 268 390 268 390 260.5 388 c 128,-1,7
 253 386 253 386 245 378.5 c 128,-1,8
 237 371 237 371 228 356.5 c 128,-1,9
 219 342 219 342 207 317 c 1,10,-1
 112 345 l 1,11,12
 123 379 123 379 139.5 410.5 c 128,-1,13
 156 442 156 442 179 465.5 c 128,-1,14
 202 489 202 489 232.5 503 c 128,-1,15
 263 517 263 517 302 517 c 0,16,17
 335 517 335 517 359.5 505 c 128,-1,18
 384 493 384 493 404 479 c 128,-1,19
 424 465 424 465 442.5 453 c 128,-1,20
 461 441 461 441 483 441 c 0,21,22
 492 441 492 441 499.5 443 c 128,-1,23
 507 445 507 445 515 452.5 c 128,-1,24
 523 460 523 460 532 474.5 c 128,-1,25
 541 489 541 489 553 514 c 1,26,-1
 649 490 l 1,27,28
 635 452 635 452 618 420 c 128,-1,29
 601 388 601 388 578.5 364.5 c 128,-1,30
 556 341 556 341 526.5 327.5 c 128,-1,31
 497 314 497 314 458 314 c 0,0,1
399 71 m 0,32,33
 366 71 366 71 341.5 83 c 128,-1,34
 317 95 317 95 297 109 c 128,-1,35
 277 123 277 123 258.5 135 c 128,-1,36
 240 147 240 147 218 147 c 0,37,38
 209 147 209 147 201.5 145 c 128,-1,39
 194 143 194 143 186 135.5 c 128,-1,40
 178 128 178 128 169 113.5 c 128,-1,41
 160 99 160 99 148 74 c 1,42,-1
 53 102 l 1,43,44
 64 136 64 136 80.5 167.5 c 128,-1,45
 97 199 97 199 120 222.5 c 128,-1,46
 143 246 143 246 173.5 260 c 128,-1,47
 204 274 204 274 243 274 c 0,48,49
 276 274 276 274 300.5 262 c 128,-1,50
 325 250 325 250 345 236 c 128,-1,51
 365 222 365 222 383.5 210 c 128,-1,52
 402 198 402 198 424 198 c 0,53,54
 433 198 433 198 440.5 200 c 128,-1,55
 448 202 448 202 456 209.5 c 128,-1,56
 464 217 464 217 473 231.5 c 128,-1,57
 482 246 482 246 494 271 c 1,58,-1
 590 247 l 1,59,60
 576 209 576 209 559 177 c 128,-1,61
 542 145 542 145 519.5 121.5 c 128,-1,62
 497 98 497 98 467.5 84.5 c 128,-1,63
 438 71 438 71 399 71 c 0,32,33
EndSplineSet
EndChar

StartChar: notequal
Encoding: 8800 8800 422
Width: 568
Flags: W
LayerCount: 2
Fore
SplineSet
157 470 m 1,0,-1
 429 470 l 1,1,-1
 528 598 l 1,2,-1
 601 552 l 1,3,-1
 538 470 l 1,4,-1
 627 470 l 1,5,-1
 597 345 l 1,6,-1
 442 345 l 1,7,-1
 370 251 l 1,8,-1
 574 251 l 1,9,-1
 544 126 l 1,10,-1
 274 126 l 1,11,-1
 175 -4 l 1,12,-1
 102 42 l 1,13,-1
 166 126 l 1,14,-1
 74 126 l 1,15,-1
 104 251 l 1,16,-1
 261 251 l 1,17,-1
 334 345 l 1,18,-1
 127 345 l 1,19,-1
 157 470 l 1,0,-1
EndSplineSet
EndChar

